<?xml version="1.0" encoding="utf-8" standalone="no"?>
<!DOCTYPE svg PUBLIC "-//W3C//DTD SVG 1.1//EN"
  "http://www.w3.org/Graphics/SVG/1.1/DTD/svg11.dtd">
<svg xmlns:xlink="http://www.w3.org/1999/xlink" width="576pt" height="288pt" viewBox="0 0 576 288" xmlns="http://www.w3.org/2000/svg" version="1.1">
 <metadata>
  <rdf:RDF xmlns:dc="http://purl.org/dc/elements/1.1/" xmlns:cc="http://creativecommons.org/ns#" xmlns:rdf="http://www.w3.org/1999/02/22-rdf-syntax-ns#">
   <cc:Work>
    <dc:type rdf:resource="http://purl.org/dc/dcmitype/StillImage"/>
    <dc:date>2025-05-26T04:06:44.821527</dc:date>
    <dc:format>image/svg+xml</dc:format>
    <dc:creator>
     <cc:Agent>
      <dc:title>Matplotlib v3.6.3, https://matplotlib.org/</dc:title>
     </cc:Agent>
    </dc:creator>
   </cc:Work>
  </rdf:RDF>
 </metadata>
 <defs>
  <style type="text/css">*{stroke-linejoin: round; stroke-linecap: butt}</style>
 </defs>
 <g id="figure_1">
  <g id="patch_1">
   <path d="M 0 288 
L 576 288 
L 576 0 
L 0 0 
z
" style="fill: #ffffff"/>
  </g>
  <g id="axes_1">
   <g id="patch_2">
    <path d="M 49.395 245.94 
L 565.2 245.94 
L 565.2 29.76 
L 49.395 29.76 
z
" style="fill: #ffffff"/>
   </g>
   <g id="PolyCollection_1">
    <defs>
     <path id="m3ce36eb1d6" d="M 72.840682 -51.886364 
L 72.840682 -51.886364 
L 75.197032 -53.871488 
L 77.553382 -55.856612 
L 79.909732 -57.841736 
L 82.266082 -59.82686 
L 84.622431 -61.811983 
L 86.978781 -63.797107 
L 89.335131 -65.782231 
L 91.691481 -67.767355 
L 94.047831 -69.752479 
L 96.404181 -71.737603 
L 98.760531 -73.722727 
L 101.116881 -75.707851 
L 103.473231 -77.692975 
L 105.829581 -79.678099 
L 108.185931 -81.663223 
L 110.542281 -83.648347 
L 112.898631 -85.633471 
L 115.254981 -87.618595 
L 117.611331 -89.603719 
L 119.96768 -91.588843 
L 122.32403 -93.573967 
L 124.68038 -95.559091 
L 127.03673 -97.544215 
L 129.39308 -99.529339 
L 131.74943 -101.514463 
L 134.10578 -103.499587 
L 136.46213 -105.484711 
L 138.81848 -107.469835 
L 141.17483 -109.454959 
L 143.53118 -111.440083 
L 145.88753 -113.425207 
L 148.24388 -115.410331 
L 150.60023 -117.395455 
L 152.956579 -119.380579 
L 155.312929 -121.365702 
L 157.669279 -123.350826 
L 160.025629 -125.33595 
L 162.381979 -127.321074 
L 164.738329 -129.306198 
L 167.094679 -131.291322 
L 169.451029 -133.276446 
L 171.807379 -135.26157 
L 174.163729 -137.246694 
L 176.520079 -139.231818 
L 178.876429 -141.216942 
L 181.232779 -143.202066 
L 183.589129 -145.18719 
L 185.945479 -147.172314 
L 188.301828 -149.157438 
L 190.658178 -151.142562 
L 193.014528 -153.127686 
L 195.370878 -155.11281 
L 197.727228 -157.097934 
L 200.083578 -159.083058 
L 202.439928 -161.068182 
L 204.796278 -163.053306 
L 207.152628 -165.03843 
L 209.508978 -167.023554 
L 211.865328 -169.008678 
L 214.221678 -170.993802 
L 216.578028 -172.978926 
L 218.934378 -174.96405 
L 221.290728 -176.949174 
L 223.647077 -178.934298 
L 226.003427 -180.919421 
L 228.359777 -182.904545 
L 230.716127 -184.889669 
L 233.072477 -186.874793 
L 235.428827 -188.859917 
L 237.785177 -190.845041 
L 240.141527 -192.830165 
L 242.497877 -194.815289 
L 244.854227 -196.800413 
L 247.210577 -198.785537 
L 249.566927 -200.770661 
L 251.923277 -202.755785 
L 254.279627 -204.740909 
L 256.635976 -206.726033 
L 258.992326 -208.711157 
L 261.348676 -210.696281 
L 263.705026 -212.681405 
L 266.061376 -214.666529 
L 268.417726 -216.651653 
L 270.774076 -218.636777 
L 273.130426 -220.621901 
L 275.486776 -222.607025 
L 277.843126 -224.592149 
L 280.199476 -226.577273 
L 282.555826 -228.562397 
L 284.912176 -230.547521 
L 287.268526 -232.532645 
L 289.624876 -234.517769 
L 291.981225 -236.502893 
L 294.337575 -238.488017 
L 296.693925 -240.47314 
L 299.050275 -242.458264 
L 301.406625 -244.443388 
L 303.762975 -246.428512 
L 306.119325 -248.413636 
L 306.119325 -51.886364 
L 306.119325 -51.886364 
L 303.762975 -51.886364 
L 301.406625 -51.886364 
L 299.050275 -51.886364 
L 296.693925 -51.886364 
L 294.337575 -51.886364 
L 291.981225 -51.886364 
L 289.624876 -51.886364 
L 287.268526 -51.886364 
L 284.912176 -51.886364 
L 282.555826 -51.886364 
L 280.199476 -51.886364 
L 277.843126 -51.886364 
L 275.486776 -51.886364 
L 273.130426 -51.886364 
L 270.774076 -51.886364 
L 268.417726 -51.886364 
L 266.061376 -51.886364 
L 263.705026 -51.886364 
L 261.348676 -51.886364 
L 258.992326 -51.886364 
L 256.635976 -51.886364 
L 254.279627 -51.886364 
L 251.923277 -51.886364 
L 249.566927 -51.886364 
L 247.210577 -51.886364 
L 244.854227 -51.886364 
L 242.497877 -51.886364 
L 240.141527 -51.886364 
L 237.785177 -51.886364 
L 235.428827 -51.886364 
L 233.072477 -51.886364 
L 230.716127 -51.886364 
L 228.359777 -51.886364 
L 226.003427 -51.886364 
L 223.647077 -51.886364 
L 221.290728 -51.886364 
L 218.934378 -51.886364 
L 216.578028 -51.886364 
L 214.221678 -51.886364 
L 211.865328 -51.886364 
L 209.508978 -51.886364 
L 207.152628 -51.886364 
L 204.796278 -51.886364 
L 202.439928 -51.886364 
L 200.083578 -51.886364 
L 197.727228 -51.886364 
L 195.370878 -51.886364 
L 193.014528 -51.886364 
L 190.658178 -51.886364 
L 188.301828 -51.886364 
L 185.945479 -51.886364 
L 183.589129 -51.886364 
L 181.232779 -51.886364 
L 178.876429 -51.886364 
L 176.520079 -51.886364 
L 174.163729 -51.886364 
L 171.807379 -51.886364 
L 169.451029 -51.886364 
L 167.094679 -51.886364 
L 164.738329 -51.886364 
L 162.381979 -51.886364 
L 160.025629 -51.886364 
L 157.669279 -51.886364 
L 155.312929 -51.886364 
L 152.956579 -51.886364 
L 150.60023 -51.886364 
L 148.24388 -51.886364 
L 145.88753 -51.886364 
L 143.53118 -51.886364 
L 141.17483 -51.886364 
L 138.81848 -51.886364 
L 136.46213 -51.886364 
L 134.10578 -51.886364 
L 131.74943 -51.886364 
L 129.39308 -51.886364 
L 127.03673 -51.886364 
L 124.68038 -51.886364 
L 122.32403 -51.886364 
L 119.96768 -51.886364 
L 117.611331 -51.886364 
L 115.254981 -51.886364 
L 112.898631 -51.886364 
L 110.542281 -51.886364 
L 108.185931 -51.886364 
L 105.829581 -51.886364 
L 103.473231 -51.886364 
L 101.116881 -51.886364 
L 98.760531 -51.886364 
L 96.404181 -51.886364 
L 94.047831 -51.886364 
L 91.691481 -51.886364 
L 89.335131 -51.886364 
L 86.978781 -51.886364 
L 84.622431 -51.886364 
L 82.266082 -51.886364 
L 79.909732 -51.886364 
L 77.553382 -51.886364 
L 75.197032 -51.886364 
L 72.840682 -51.886364 
z
" style="stroke: #0072b2; stroke-opacity: 0.3"/>
    </defs>
    <g clip-path="url(#p76b127316f)">
     <use xlink:href="#m3ce36eb1d6" x="0" y="288" style="fill: #0072b2; fill-opacity: 0.3; stroke: #0072b2; stroke-opacity: 0.3"/>
    </g>
   </g>
   <g id="PolyCollection_2">
    <defs>
     <path id="m4e470366e8" d="M 308.475675 -51.886364 
L 308.475675 -248.413636 
L 310.832025 -246.428512 
L 313.188375 -244.443388 
L 315.544725 -242.458264 
L 317.901075 -240.47314 
L 320.257425 -238.488017 
L 322.613775 -236.502893 
L 324.970124 -234.517769 
L 327.326474 -232.532645 
L 329.682824 -230.547521 
L 332.039174 -228.562397 
L 334.395524 -226.577273 
L 336.751874 -224.592149 
L 339.108224 -222.607025 
L 341.464574 -220.621901 
L 343.820924 -218.636777 
L 346.177274 -216.651653 
L 348.533624 -214.666529 
L 350.889974 -212.681405 
L 353.246324 -210.696281 
L 355.602674 -208.711157 
L 357.959024 -206.726033 
L 360.315373 -204.740909 
L 362.671723 -202.755785 
L 365.028073 -200.770661 
L 367.384423 -198.785537 
L 369.740773 -196.800413 
L 372.097123 -194.815289 
L 374.453473 -192.830165 
L 376.809823 -190.845041 
L 379.166173 -188.859917 
L 381.522523 -186.874793 
L 383.878873 -184.889669 
L 386.235223 -182.904545 
L 388.591573 -180.919421 
L 390.947923 -178.934298 
L 393.304272 -176.949174 
L 395.660622 -174.96405 
L 398.016972 -172.978926 
L 400.373322 -170.993802 
L 402.729672 -169.008678 
L 405.086022 -167.023554 
L 407.442372 -165.03843 
L 409.798722 -163.053306 
L 412.155072 -161.068182 
L 414.511422 -159.083058 
L 416.867772 -157.097934 
L 419.224122 -155.11281 
L 421.580472 -153.127686 
L 423.936822 -151.142562 
L 426.293172 -149.157438 
L 428.649521 -147.172314 
L 431.005871 -145.18719 
L 433.362221 -143.202066 
L 435.718571 -141.216942 
L 438.074921 -139.231818 
L 440.431271 -137.246694 
L 442.787621 -135.26157 
L 445.143971 -133.276446 
L 447.500321 -131.291322 
L 449.856671 -129.306198 
L 452.213021 -127.321074 
L 454.569371 -125.33595 
L 456.925721 -123.350826 
L 459.282071 -121.365702 
L 461.638421 -119.380579 
L 463.99477 -117.395455 
L 466.35112 -115.410331 
L 468.70747 -113.425207 
L 471.06382 -111.440083 
L 473.42017 -109.454959 
L 475.77652 -107.469835 
L 478.13287 -105.484711 
L 480.48922 -103.499587 
L 482.84557 -101.514463 
L 485.20192 -99.529339 
L 487.55827 -97.544215 
L 489.91462 -95.559091 
L 492.27097 -93.573967 
L 494.62732 -91.588843 
L 496.983669 -89.603719 
L 499.340019 -87.618595 
L 501.696369 -85.633471 
L 504.052719 -83.648347 
L 506.409069 -81.663223 
L 508.765419 -79.678099 
L 511.121769 -77.692975 
L 513.478119 -75.707851 
L 515.834469 -73.722727 
L 518.190819 -71.737603 
L 520.547169 -69.752479 
L 522.903519 -67.767355 
L 525.259869 -65.782231 
L 527.616219 -63.797107 
L 529.972569 -61.811983 
L 532.328918 -59.82686 
L 534.685268 -57.841736 
L 537.041618 -55.856612 
L 539.397968 -53.871488 
L 541.754318 -51.886364 
L 541.754318 -51.886364 
L 541.754318 -51.886364 
L 539.397968 -51.886364 
L 537.041618 -51.886364 
L 534.685268 -51.886364 
L 532.328918 -51.886364 
L 529.972569 -51.886364 
L 527.616219 -51.886364 
L 525.259869 -51.886364 
L 522.903519 -51.886364 
L 520.547169 -51.886364 
L 518.190819 -51.886364 
L 515.834469 -51.886364 
L 513.478119 -51.886364 
L 511.121769 -51.886364 
L 508.765419 -51.886364 
L 506.409069 -51.886364 
L 504.052719 -51.886364 
L 501.696369 -51.886364 
L 499.340019 -51.886364 
L 496.983669 -51.886364 
L 494.62732 -51.886364 
L 492.27097 -51.886364 
L 489.91462 -51.886364 
L 487.55827 -51.886364 
L 485.20192 -51.886364 
L 482.84557 -51.886364 
L 480.48922 -51.886364 
L 478.13287 -51.886364 
L 475.77652 -51.886364 
L 473.42017 -51.886364 
L 471.06382 -51.886364 
L 468.70747 -51.886364 
L 466.35112 -51.886364 
L 463.99477 -51.886364 
L 461.638421 -51.886364 
L 459.282071 -51.886364 
L 456.925721 -51.886364 
L 454.569371 -51.886364 
L 452.213021 -51.886364 
L 449.856671 -51.886364 
L 447.500321 -51.886364 
L 445.143971 -51.886364 
L 442.787621 -51.886364 
L 440.431271 -51.886364 
L 438.074921 -51.886364 
L 435.718571 -51.886364 
L 433.362221 -51.886364 
L 431.005871 -51.886364 
L 428.649521 -51.886364 
L 426.293172 -51.886364 
L 423.936822 -51.886364 
L 421.580472 -51.886364 
L 419.224122 -51.886364 
L 416.867772 -51.886364 
L 414.511422 -51.886364 
L 412.155072 -51.886364 
L 409.798722 -51.886364 
L 407.442372 -51.886364 
L 405.086022 -51.886364 
L 402.729672 -51.886364 
L 400.373322 -51.886364 
L 398.016972 -51.886364 
L 395.660622 -51.886364 
L 393.304272 -51.886364 
L 390.947923 -51.886364 
L 388.591573 -51.886364 
L 386.235223 -51.886364 
L 383.878873 -51.886364 
L 381.522523 -51.886364 
L 379.166173 -51.886364 
L 376.809823 -51.886364 
L 374.453473 -51.886364 
L 372.097123 -51.886364 
L 369.740773 -51.886364 
L 367.384423 -51.886364 
L 365.028073 -51.886364 
L 362.671723 -51.886364 
L 360.315373 -51.886364 
L 357.959024 -51.886364 
L 355.602674 -51.886364 
L 353.246324 -51.886364 
L 350.889974 -51.886364 
L 348.533624 -51.886364 
L 346.177274 -51.886364 
L 343.820924 -51.886364 
L 341.464574 -51.886364 
L 339.108224 -51.886364 
L 336.751874 -51.886364 
L 334.395524 -51.886364 
L 332.039174 -51.886364 
L 329.682824 -51.886364 
L 327.326474 -51.886364 
L 324.970124 -51.886364 
L 322.613775 -51.886364 
L 320.257425 -51.886364 
L 317.901075 -51.886364 
L 315.544725 -51.886364 
L 313.188375 -51.886364 
L 310.832025 -51.886364 
L 308.475675 -51.886364 
z
" style="stroke: #0072b2; stroke-opacity: 0.3"/>
    </defs>
    <g clip-path="url(#p76b127316f)">
     <use xlink:href="#m4e470366e8" x="0" y="288" style="fill: #0072b2; fill-opacity: 0.3; stroke: #0072b2; stroke-opacity: 0.3"/>
    </g>
   </g>
   <g id="matplotlib.axis_1">
    <g id="xtick_1">
     <g id="line2d_1">
      <path d="M 72.840682 245.94 
L 72.840682 29.76 
" clip-path="url(#p76b127316f)" style="fill: none; stroke-dasharray: 2.22,0.96; stroke-dashoffset: 0; stroke: #b0b0b0; stroke-opacity: 0.5; stroke-width: 0.6"/>
     </g>
     <g id="line2d_2">
      <defs>
       <path id="me236d9a6c0" d="M 0 0 
L 0 -3.5 
" style="stroke: #1a1a1a; stroke-width: 0.8"/>
      </defs>
      <g>
       <use xlink:href="#me236d9a6c0" x="72.840682" y="245.94" style="fill: #1a1a1a; stroke: #1a1a1a; stroke-width: 0.8"/>
      </g>
     </g>
     <g id="text_1">
      <!-- 0.00 -->
      <g style="fill: #1a1a1a" transform="translate(59.481307 258.558125) scale(0.12 -0.12)">
       <defs>
        <path id="DejaVuSans-30" d="M 2034 4250 
Q 1547 4250 1301 3770 
Q 1056 3291 1056 2328 
Q 1056 1369 1301 889 
Q 1547 409 2034 409 
Q 2525 409 2770 889 
Q 3016 1369 3016 2328 
Q 3016 3291 2770 3770 
Q 2525 4250 2034 4250 
z
M 2034 4750 
Q 2819 4750 3233 4129 
Q 3647 3509 3647 2328 
Q 3647 1150 3233 529 
Q 2819 -91 2034 -91 
Q 1250 -91 836 529 
Q 422 1150 422 2328 
Q 422 3509 836 4129 
Q 1250 4750 2034 4750 
z
" transform="scale(0.015625)"/>
        <path id="DejaVuSans-2e" d="M 684 794 
L 1344 794 
L 1344 0 
L 684 0 
L 684 794 
z
" transform="scale(0.015625)"/>
       </defs>
       <use xlink:href="#DejaVuSans-30"/>
       <use xlink:href="#DejaVuSans-2e" x="63.623047"/>
       <use xlink:href="#DejaVuSans-30" x="95.410156"/>
       <use xlink:href="#DejaVuSans-30" x="159.033203"/>
      </g>
     </g>
    </g>
    <g id="xtick_2">
     <g id="line2d_3">
      <path d="M 131.454886 245.94 
L 131.454886 29.76 
" clip-path="url(#p76b127316f)" style="fill: none; stroke-dasharray: 2.22,0.96; stroke-dashoffset: 0; stroke: #b0b0b0; stroke-opacity: 0.5; stroke-width: 0.6"/>
     </g>
     <g id="line2d_4">
      <g>
       <use xlink:href="#me236d9a6c0" x="131.454886" y="245.94" style="fill: #1a1a1a; stroke: #1a1a1a; stroke-width: 0.8"/>
      </g>
     </g>
     <g id="text_2">
      <!-- 0.25 -->
      <g style="fill: #1a1a1a" transform="translate(118.095511 258.558125) scale(0.12 -0.12)">
       <defs>
        <path id="DejaVuSans-32" d="M 1228 531 
L 3431 531 
L 3431 0 
L 469 0 
L 469 531 
Q 828 903 1448 1529 
Q 2069 2156 2228 2338 
Q 2531 2678 2651 2914 
Q 2772 3150 2772 3378 
Q 2772 3750 2511 3984 
Q 2250 4219 1831 4219 
Q 1534 4219 1204 4116 
Q 875 4013 500 3803 
L 500 4441 
Q 881 4594 1212 4672 
Q 1544 4750 1819 4750 
Q 2544 4750 2975 4387 
Q 3406 4025 3406 3419 
Q 3406 3131 3298 2873 
Q 3191 2616 2906 2266 
Q 2828 2175 2409 1742 
Q 1991 1309 1228 531 
z
" transform="scale(0.015625)"/>
        <path id="DejaVuSans-35" d="M 691 4666 
L 3169 4666 
L 3169 4134 
L 1269 4134 
L 1269 2991 
Q 1406 3038 1543 3061 
Q 1681 3084 1819 3084 
Q 2600 3084 3056 2656 
Q 3513 2228 3513 1497 
Q 3513 744 3044 326 
Q 2575 -91 1722 -91 
Q 1428 -91 1123 -41 
Q 819 9 494 109 
L 494 744 
Q 775 591 1075 516 
Q 1375 441 1709 441 
Q 2250 441 2565 725 
Q 2881 1009 2881 1497 
Q 2881 1984 2565 2268 
Q 2250 2553 1709 2553 
Q 1456 2553 1204 2497 
Q 953 2441 691 2322 
L 691 4666 
z
" transform="scale(0.015625)"/>
       </defs>
       <use xlink:href="#DejaVuSans-30"/>
       <use xlink:href="#DejaVuSans-2e" x="63.623047"/>
       <use xlink:href="#DejaVuSans-32" x="95.410156"/>
       <use xlink:href="#DejaVuSans-35" x="159.033203"/>
      </g>
     </g>
    </g>
    <g id="xtick_3">
     <g id="line2d_5">
      <path d="M 190.069091 245.94 
L 190.069091 29.76 
" clip-path="url(#p76b127316f)" style="fill: none; stroke-dasharray: 2.22,0.96; stroke-dashoffset: 0; stroke: #b0b0b0; stroke-opacity: 0.5; stroke-width: 0.6"/>
     </g>
     <g id="line2d_6">
      <g>
       <use xlink:href="#me236d9a6c0" x="190.069091" y="245.94" style="fill: #1a1a1a; stroke: #1a1a1a; stroke-width: 0.8"/>
      </g>
     </g>
     <g id="text_3">
      <!-- 0.50 -->
      <g style="fill: #1a1a1a" transform="translate(176.709716 258.558125) scale(0.12 -0.12)">
       <use xlink:href="#DejaVuSans-30"/>
       <use xlink:href="#DejaVuSans-2e" x="63.623047"/>
       <use xlink:href="#DejaVuSans-35" x="95.410156"/>
       <use xlink:href="#DejaVuSans-30" x="159.033203"/>
      </g>
     </g>
    </g>
    <g id="xtick_4">
     <g id="line2d_7">
      <path d="M 248.683295 245.94 
L 248.683295 29.76 
" clip-path="url(#p76b127316f)" style="fill: none; stroke-dasharray: 2.22,0.96; stroke-dashoffset: 0; stroke: #b0b0b0; stroke-opacity: 0.5; stroke-width: 0.6"/>
     </g>
     <g id="line2d_8">
      <g>
       <use xlink:href="#me236d9a6c0" x="248.683295" y="245.94" style="fill: #1a1a1a; stroke: #1a1a1a; stroke-width: 0.8"/>
      </g>
     </g>
     <g id="text_4">
      <!-- 0.75 -->
      <g style="fill: #1a1a1a" transform="translate(235.32392 258.558125) scale(0.12 -0.12)">
       <defs>
        <path id="DejaVuSans-37" d="M 525 4666 
L 3525 4666 
L 3525 4397 
L 1831 0 
L 1172 0 
L 2766 4134 
L 525 4134 
L 525 4666 
z
" transform="scale(0.015625)"/>
       </defs>
       <use xlink:href="#DejaVuSans-30"/>
       <use xlink:href="#DejaVuSans-2e" x="63.623047"/>
       <use xlink:href="#DejaVuSans-37" x="95.410156"/>
       <use xlink:href="#DejaVuSans-35" x="159.033203"/>
      </g>
     </g>
    </g>
    <g id="xtick_5">
     <g id="line2d_9">
      <path d="M 307.2975 245.94 
L 307.2975 29.76 
" clip-path="url(#p76b127316f)" style="fill: none; stroke-dasharray: 2.22,0.96; stroke-dashoffset: 0; stroke: #b0b0b0; stroke-opacity: 0.5; stroke-width: 0.6"/>
     </g>
     <g id="line2d_10">
      <g>
       <use xlink:href="#me236d9a6c0" x="307.2975" y="245.94" style="fill: #1a1a1a; stroke: #1a1a1a; stroke-width: 0.8"/>
      </g>
     </g>
     <g id="text_5">
      <!-- 1.00 -->
      <g style="fill: #1a1a1a" transform="translate(293.938125 258.558125) scale(0.12 -0.12)">
       <defs>
        <path id="DejaVuSans-31" d="M 794 531 
L 1825 531 
L 1825 4091 
L 703 3866 
L 703 4441 
L 1819 4666 
L 2450 4666 
L 2450 531 
L 3481 531 
L 3481 0 
L 794 0 
L 794 531 
z
" transform="scale(0.015625)"/>
       </defs>
       <use xlink:href="#DejaVuSans-31"/>
       <use xlink:href="#DejaVuSans-2e" x="63.623047"/>
       <use xlink:href="#DejaVuSans-30" x="95.410156"/>
       <use xlink:href="#DejaVuSans-30" x="159.033203"/>
      </g>
     </g>
    </g>
    <g id="xtick_6">
     <g id="line2d_11">
      <path d="M 365.911705 245.94 
L 365.911705 29.76 
" clip-path="url(#p76b127316f)" style="fill: none; stroke-dasharray: 2.22,0.96; stroke-dashoffset: 0; stroke: #b0b0b0; stroke-opacity: 0.5; stroke-width: 0.6"/>
     </g>
     <g id="line2d_12">
      <g>
       <use xlink:href="#me236d9a6c0" x="365.911705" y="245.94" style="fill: #1a1a1a; stroke: #1a1a1a; stroke-width: 0.8"/>
      </g>
     </g>
     <g id="text_6">
      <!-- 1.25 -->
      <g style="fill: #1a1a1a" transform="translate(352.55233 258.558125) scale(0.12 -0.12)">
       <use xlink:href="#DejaVuSans-31"/>
       <use xlink:href="#DejaVuSans-2e" x="63.623047"/>
       <use xlink:href="#DejaVuSans-32" x="95.410156"/>
       <use xlink:href="#DejaVuSans-35" x="159.033203"/>
      </g>
     </g>
    </g>
    <g id="xtick_7">
     <g id="line2d_13">
      <path d="M 424.525909 245.94 
L 424.525909 29.76 
" clip-path="url(#p76b127316f)" style="fill: none; stroke-dasharray: 2.22,0.96; stroke-dashoffset: 0; stroke: #b0b0b0; stroke-opacity: 0.5; stroke-width: 0.6"/>
     </g>
     <g id="line2d_14">
      <g>
       <use xlink:href="#me236d9a6c0" x="424.525909" y="245.94" style="fill: #1a1a1a; stroke: #1a1a1a; stroke-width: 0.8"/>
      </g>
     </g>
     <g id="text_7">
      <!-- 1.50 -->
      <g style="fill: #1a1a1a" transform="translate(411.166534 258.558125) scale(0.12 -0.12)">
       <use xlink:href="#DejaVuSans-31"/>
       <use xlink:href="#DejaVuSans-2e" x="63.623047"/>
       <use xlink:href="#DejaVuSans-35" x="95.410156"/>
       <use xlink:href="#DejaVuSans-30" x="159.033203"/>
      </g>
     </g>
    </g>
    <g id="xtick_8">
     <g id="line2d_15">
      <path d="M 483.140114 245.94 
L 483.140114 29.76 
" clip-path="url(#p76b127316f)" style="fill: none; stroke-dasharray: 2.22,0.96; stroke-dashoffset: 0; stroke: #b0b0b0; stroke-opacity: 0.5; stroke-width: 0.6"/>
     </g>
     <g id="line2d_16">
      <g>
       <use xlink:href="#me236d9a6c0" x="483.140114" y="245.94" style="fill: #1a1a1a; stroke: #1a1a1a; stroke-width: 0.8"/>
      </g>
     </g>
     <g id="text_8">
      <!-- 1.75 -->
      <g style="fill: #1a1a1a" transform="translate(469.780739 258.558125) scale(0.12 -0.12)">
       <use xlink:href="#DejaVuSans-31"/>
       <use xlink:href="#DejaVuSans-2e" x="63.623047"/>
       <use xlink:href="#DejaVuSans-37" x="95.410156"/>
       <use xlink:href="#DejaVuSans-35" x="159.033203"/>
      </g>
     </g>
    </g>
    <g id="xtick_9">
     <g id="line2d_17">
      <path d="M 541.754318 245.94 
L 541.754318 29.76 
" clip-path="url(#p76b127316f)" style="fill: none; stroke-dasharray: 2.22,0.96; stroke-dashoffset: 0; stroke: #b0b0b0; stroke-opacity: 0.5; stroke-width: 0.6"/>
     </g>
     <g id="line2d_18">
      <g>
       <use xlink:href="#me236d9a6c0" x="541.754318" y="245.94" style="fill: #1a1a1a; stroke: #1a1a1a; stroke-width: 0.8"/>
      </g>
     </g>
     <g id="text_9">
      <!-- 2.00 -->
      <g style="fill: #1a1a1a" transform="translate(528.394943 258.558125) scale(0.12 -0.12)">
       <use xlink:href="#DejaVuSans-32"/>
       <use xlink:href="#DejaVuSans-2e" x="63.623047"/>
       <use xlink:href="#DejaVuSans-30" x="95.410156"/>
       <use xlink:href="#DejaVuSans-30" x="159.033203"/>
      </g>
     </g>
    </g>
    <g id="text_10">
     <!-- x -->
     <g style="fill: #1a1a1a" transform="translate(303.74625 274.171875) scale(0.12 -0.12)">
      <defs>
       <path id="DejaVuSans-78" d="M 3513 3500 
L 2247 1797 
L 3578 0 
L 2900 0 
L 1881 1375 
L 863 0 
L 184 0 
L 1544 1831 
L 300 3500 
L 978 3500 
L 1906 2253 
L 2834 3500 
L 3513 3500 
z
" transform="scale(0.015625)"/>
      </defs>
      <use xlink:href="#DejaVuSans-78"/>
     </g>
    </g>
   </g>
   <g id="matplotlib.axis_2">
    <g id="ytick_1">
     <g id="line2d_19">
      <path d="M 49.395 236.113636 
L 565.2 236.113636 
" clip-path="url(#p76b127316f)" style="fill: none; stroke-dasharray: 2.22,0.96; stroke-dashoffset: 0; stroke: #b0b0b0; stroke-opacity: 0.5; stroke-width: 0.6"/>
     </g>
     <g id="line2d_20">
      <defs>
       <path id="m2b845d9430" d="M 0 0 
L 3.5 0 
" style="stroke: #1a1a1a; stroke-width: 0.8"/>
      </defs>
      <g>
       <use xlink:href="#m2b845d9430" x="49.395" y="236.113636" style="fill: #1a1a1a; stroke: #1a1a1a; stroke-width: 0.8"/>
      </g>
     </g>
     <g id="text_11">
      <!-- 0.0 -->
      <g style="fill: #1a1a1a" transform="translate(26.81125 240.672699) scale(0.12 -0.12)">
       <use xlink:href="#DejaVuSans-30"/>
       <use xlink:href="#DejaVuSans-2e" x="63.623047"/>
       <use xlink:href="#DejaVuSans-30" x="95.410156"/>
      </g>
     </g>
    </g>
    <g id="ytick_2">
     <g id="line2d_21">
      <path d="M 49.395 196.609669 
L 565.2 196.609669 
" clip-path="url(#p76b127316f)" style="fill: none; stroke-dasharray: 2.22,0.96; stroke-dashoffset: 0; stroke: #b0b0b0; stroke-opacity: 0.5; stroke-width: 0.6"/>
     </g>
     <g id="line2d_22">
      <g>
       <use xlink:href="#m2b845d9430" x="49.395" y="196.609669" style="fill: #1a1a1a; stroke: #1a1a1a; stroke-width: 0.8"/>
      </g>
     </g>
     <g id="text_12">
      <!-- 0.2 -->
      <g style="fill: #1a1a1a" transform="translate(26.81125 201.168732) scale(0.12 -0.12)">
       <use xlink:href="#DejaVuSans-30"/>
       <use xlink:href="#DejaVuSans-2e" x="63.623047"/>
       <use xlink:href="#DejaVuSans-32" x="95.410156"/>
      </g>
     </g>
    </g>
    <g id="ytick_3">
     <g id="line2d_23">
      <path d="M 49.395 157.105702 
L 565.2 157.105702 
" clip-path="url(#p76b127316f)" style="fill: none; stroke-dasharray: 2.22,0.96; stroke-dashoffset: 0; stroke: #b0b0b0; stroke-opacity: 0.5; stroke-width: 0.6"/>
     </g>
     <g id="line2d_24">
      <g>
       <use xlink:href="#m2b845d9430" x="49.395" y="157.105702" style="fill: #1a1a1a; stroke: #1a1a1a; stroke-width: 0.8"/>
      </g>
     </g>
     <g id="text_13">
      <!-- 0.4 -->
      <g style="fill: #1a1a1a" transform="translate(26.81125 161.664765) scale(0.12 -0.12)">
       <defs>
        <path id="DejaVuSans-34" d="M 2419 4116 
L 825 1625 
L 2419 1625 
L 2419 4116 
z
M 2253 4666 
L 3047 4666 
L 3047 1625 
L 3713 1625 
L 3713 1100 
L 3047 1100 
L 3047 0 
L 2419 0 
L 2419 1100 
L 313 1100 
L 313 1709 
L 2253 4666 
z
" transform="scale(0.015625)"/>
       </defs>
       <use xlink:href="#DejaVuSans-30"/>
       <use xlink:href="#DejaVuSans-2e" x="63.623047"/>
       <use xlink:href="#DejaVuSans-34" x="95.410156"/>
      </g>
     </g>
    </g>
    <g id="ytick_4">
     <g id="line2d_25">
      <path d="M 49.395 117.601736 
L 565.2 117.601736 
" clip-path="url(#p76b127316f)" style="fill: none; stroke-dasharray: 2.22,0.96; stroke-dashoffset: 0; stroke: #b0b0b0; stroke-opacity: 0.5; stroke-width: 0.6"/>
     </g>
     <g id="line2d_26">
      <g>
       <use xlink:href="#m2b845d9430" x="49.395" y="117.601736" style="fill: #1a1a1a; stroke: #1a1a1a; stroke-width: 0.8"/>
      </g>
     </g>
     <g id="text_14">
      <!-- 0.6 -->
      <g style="fill: #1a1a1a" transform="translate(26.81125 122.160798) scale(0.12 -0.12)">
       <defs>
        <path id="DejaVuSans-36" d="M 2113 2584 
Q 1688 2584 1439 2293 
Q 1191 2003 1191 1497 
Q 1191 994 1439 701 
Q 1688 409 2113 409 
Q 2538 409 2786 701 
Q 3034 994 3034 1497 
Q 3034 2003 2786 2293 
Q 2538 2584 2113 2584 
z
M 3366 4563 
L 3366 3988 
Q 3128 4100 2886 4159 
Q 2644 4219 2406 4219 
Q 1781 4219 1451 3797 
Q 1122 3375 1075 2522 
Q 1259 2794 1537 2939 
Q 1816 3084 2150 3084 
Q 2853 3084 3261 2657 
Q 3669 2231 3669 1497 
Q 3669 778 3244 343 
Q 2819 -91 2113 -91 
Q 1303 -91 875 529 
Q 447 1150 447 2328 
Q 447 3434 972 4092 
Q 1497 4750 2381 4750 
Q 2619 4750 2861 4703 
Q 3103 4656 3366 4563 
z
" transform="scale(0.015625)"/>
       </defs>
       <use xlink:href="#DejaVuSans-30"/>
       <use xlink:href="#DejaVuSans-2e" x="63.623047"/>
       <use xlink:href="#DejaVuSans-36" x="95.410156"/>
      </g>
     </g>
    </g>
    <g id="ytick_5">
     <g id="line2d_27">
      <path d="M 49.395 78.097769 
L 565.2 78.097769 
" clip-path="url(#p76b127316f)" style="fill: none; stroke-dasharray: 2.22,0.96; stroke-dashoffset: 0; stroke: #b0b0b0; stroke-opacity: 0.5; stroke-width: 0.6"/>
     </g>
     <g id="line2d_28">
      <g>
       <use xlink:href="#m2b845d9430" x="49.395" y="78.097769" style="fill: #1a1a1a; stroke: #1a1a1a; stroke-width: 0.8"/>
      </g>
     </g>
     <g id="text_15">
      <!-- 0.8 -->
      <g style="fill: #1a1a1a" transform="translate(26.81125 82.656831) scale(0.12 -0.12)">
       <defs>
        <path id="DejaVuSans-38" d="M 2034 2216 
Q 1584 2216 1326 1975 
Q 1069 1734 1069 1313 
Q 1069 891 1326 650 
Q 1584 409 2034 409 
Q 2484 409 2743 651 
Q 3003 894 3003 1313 
Q 3003 1734 2745 1975 
Q 2488 2216 2034 2216 
z
M 1403 2484 
Q 997 2584 770 2862 
Q 544 3141 544 3541 
Q 544 4100 942 4425 
Q 1341 4750 2034 4750 
Q 2731 4750 3128 4425 
Q 3525 4100 3525 3541 
Q 3525 3141 3298 2862 
Q 3072 2584 2669 2484 
Q 3125 2378 3379 2068 
Q 3634 1759 3634 1313 
Q 3634 634 3220 271 
Q 2806 -91 2034 -91 
Q 1263 -91 848 271 
Q 434 634 434 1313 
Q 434 1759 690 2068 
Q 947 2378 1403 2484 
z
M 1172 3481 
Q 1172 3119 1398 2916 
Q 1625 2713 2034 2713 
Q 2441 2713 2670 2916 
Q 2900 3119 2900 3481 
Q 2900 3844 2670 4047 
Q 2441 4250 2034 4250 
Q 1625 4250 1398 4047 
Q 1172 3844 1172 3481 
z
" transform="scale(0.015625)"/>
       </defs>
       <use xlink:href="#DejaVuSans-30"/>
       <use xlink:href="#DejaVuSans-2e" x="63.623047"/>
       <use xlink:href="#DejaVuSans-38" x="95.410156"/>
      </g>
     </g>
    </g>
    <g id="ytick_6">
     <g id="line2d_29">
      <path d="M 49.395 38.593802 
L 565.2 38.593802 
" clip-path="url(#p76b127316f)" style="fill: none; stroke-dasharray: 2.22,0.96; stroke-dashoffset: 0; stroke: #b0b0b0; stroke-opacity: 0.5; stroke-width: 0.6"/>
     </g>
     <g id="line2d_30">
      <g>
       <use xlink:href="#m2b845d9430" x="49.395" y="38.593802" style="fill: #1a1a1a; stroke: #1a1a1a; stroke-width: 0.8"/>
      </g>
     </g>
     <g id="text_16">
      <!-- 1.0 -->
      <g style="fill: #1a1a1a" transform="translate(26.81125 43.152864) scale(0.12 -0.12)">
       <use xlink:href="#DejaVuSans-31"/>
       <use xlink:href="#DejaVuSans-2e" x="63.623047"/>
       <use xlink:href="#DejaVuSans-30" x="95.410156"/>
      </g>
     </g>
    </g>
    <g id="text_17">
     <!-- f(x) -->
     <g style="fill: #1a1a1a" transform="translate(20.315625 148.195313) rotate(-90) scale(0.12 -0.12)">
      <defs>
       <path id="DejaVuSans-66" d="M 2375 4863 
L 2375 4384 
L 1825 4384 
Q 1516 4384 1395 4259 
Q 1275 4134 1275 3809 
L 1275 3500 
L 2222 3500 
L 2222 3053 
L 1275 3053 
L 1275 0 
L 697 0 
L 697 3053 
L 147 3053 
L 147 3500 
L 697 3500 
L 697 3744 
Q 697 4328 969 4595 
Q 1241 4863 1831 4863 
L 2375 4863 
z
" transform="scale(0.015625)"/>
       <path id="DejaVuSans-28" d="M 1984 4856 
Q 1566 4138 1362 3434 
Q 1159 2731 1159 2009 
Q 1159 1288 1364 580 
Q 1569 -128 1984 -844 
L 1484 -844 
Q 1016 -109 783 600 
Q 550 1309 550 2009 
Q 550 2706 781 3412 
Q 1013 4119 1484 4856 
L 1984 4856 
z
" transform="scale(0.015625)"/>
       <path id="DejaVuSans-29" d="M 513 4856 
L 1013 4856 
Q 1481 4119 1714 3412 
Q 1947 2706 1947 2009 
Q 1947 1309 1714 600 
Q 1481 -109 1013 -844 
L 513 -844 
Q 928 -128 1133 580 
Q 1338 1288 1338 2009 
Q 1338 2731 1133 3434 
Q 928 4138 513 4856 
z
" transform="scale(0.015625)"/>
      </defs>
      <use xlink:href="#DejaVuSans-66"/>
      <use xlink:href="#DejaVuSans-28" x="35.205078"/>
      <use xlink:href="#DejaVuSans-78" x="74.21875"/>
      <use xlink:href="#DejaVuSans-29" x="133.398438"/>
     </g>
    </g>
   </g>
   <g id="line2d_31">
    <path d="M 72.840682 236.113636 
L 75.197032 234.128512 
L 77.553382 232.143388 
L 79.909732 230.158264 
L 82.266082 228.17314 
L 84.622431 226.188017 
L 86.978781 224.202893 
L 89.335131 222.217769 
L 91.691481 220.232645 
L 94.047831 218.247521 
L 96.404181 216.262397 
L 98.760531 214.277273 
L 101.116881 212.292149 
L 103.473231 210.307025 
L 105.829581 208.321901 
L 108.185931 206.336777 
L 110.542281 204.351653 
L 112.898631 202.366529 
L 115.254981 200.381405 
L 117.611331 198.396281 
L 119.96768 196.411157 
L 122.32403 194.426033 
L 124.68038 192.440909 
L 127.03673 190.455785 
L 129.39308 188.470661 
L 131.74943 186.485537 
L 134.10578 184.500413 
L 136.46213 182.515289 
L 138.81848 180.530165 
L 141.17483 178.545041 
L 143.53118 176.559917 
L 145.88753 174.574793 
L 148.24388 172.589669 
L 150.60023 170.604545 
L 152.956579 168.619421 
L 155.312929 166.634298 
L 157.669279 164.649174 
L 160.025629 162.66405 
L 162.381979 160.678926 
L 164.738329 158.693802 
L 167.094679 156.708678 
L 169.451029 154.723554 
L 171.807379 152.73843 
L 174.163729 150.753306 
L 176.520079 148.768182 
L 178.876429 146.783058 
L 181.232779 144.797934 
L 183.589129 142.81281 
L 185.945479 140.827686 
L 188.301828 138.842562 
L 190.658178 136.857438 
L 193.014528 134.872314 
L 195.370878 132.88719 
L 197.727228 130.902066 
L 200.083578 128.916942 
L 202.439928 126.931818 
L 204.796278 124.946694 
L 207.152628 122.96157 
L 209.508978 120.976446 
L 211.865328 118.991322 
L 214.221678 117.006198 
L 216.578028 115.021074 
L 218.934378 113.03595 
L 221.290728 111.050826 
L 223.647077 109.065702 
L 226.003427 107.080579 
L 228.359777 105.095455 
L 230.716127 103.110331 
L 233.072477 101.125207 
L 235.428827 99.140083 
L 237.785177 97.154959 
L 240.141527 95.169835 
L 242.497877 93.184711 
L 244.854227 91.199587 
L 247.210577 89.214463 
L 249.566927 87.229339 
L 251.923277 85.244215 
L 254.279627 83.259091 
L 256.635976 81.273967 
L 258.992326 79.288843 
L 261.348676 77.303719 
L 263.705026 75.318595 
L 266.061376 73.333471 
L 268.417726 71.348347 
L 270.774076 69.363223 
L 273.130426 67.378099 
L 275.486776 65.392975 
L 277.843126 63.407851 
L 280.199476 61.422727 
L 282.555826 59.437603 
L 284.912176 57.452479 
L 287.268526 55.467355 
L 289.624876 53.482231 
L 291.981225 51.497107 
L 294.337575 49.511983 
L 296.693925 47.52686 
L 299.050275 45.541736 
L 301.406625 43.556612 
L 303.762975 41.571488 
L 306.119325 39.586364 
" clip-path="url(#p76b127316f)" style="fill: none; stroke: #0072b2; stroke-width: 2; stroke-linecap: square"/>
   </g>
   <g id="line2d_32">
    <path d="M 308.475675 39.586364 
L 310.832025 41.571488 
L 313.188375 43.556612 
L 315.544725 45.541736 
L 317.901075 47.52686 
L 320.257425 49.511983 
L 322.613775 51.497107 
L 324.970124 53.482231 
L 327.326474 55.467355 
L 329.682824 57.452479 
L 332.039174 59.437603 
L 334.395524 61.422727 
L 336.751874 63.407851 
L 339.108224 65.392975 
L 341.464574 67.378099 
L 343.820924 69.363223 
L 346.177274 71.348347 
L 348.533624 73.333471 
L 350.889974 75.318595 
L 353.246324 77.303719 
L 355.602674 79.288843 
L 357.959024 81.273967 
L 360.315373 83.259091 
L 362.671723 85.244215 
L 365.028073 87.229339 
L 367.384423 89.214463 
L 369.740773 91.199587 
L 372.097123 93.184711 
L 374.453473 95.169835 
L 376.809823 97.154959 
L 379.166173 99.140083 
L 381.522523 101.125207 
L 383.878873 103.110331 
L 386.235223 105.095455 
L 388.591573 107.080579 
L 390.947923 109.065702 
L 393.304272 111.050826 
L 395.660622 113.03595 
L 398.016972 115.021074 
L 400.373322 117.006198 
L 402.729672 118.991322 
L 405.086022 120.976446 
L 407.442372 122.96157 
L 409.798722 124.946694 
L 412.155072 126.931818 
L 414.511422 128.916942 
L 416.867772 130.902066 
L 419.224122 132.88719 
L 421.580472 134.872314 
L 423.936822 136.857438 
L 426.293172 138.842562 
L 428.649521 140.827686 
L 431.005871 142.81281 
L 433.362221 144.797934 
L 435.718571 146.783058 
L 438.074921 148.768182 
L 440.431271 150.753306 
L 442.787621 152.73843 
L 445.143971 154.723554 
L 447.500321 156.708678 
L 449.856671 158.693802 
L 452.213021 160.678926 
L 454.569371 162.66405 
L 456.925721 164.649174 
L 459.282071 166.634298 
L 461.638421 168.619421 
L 463.99477 170.604545 
L 466.35112 172.589669 
L 468.70747 174.574793 
L 471.06382 176.559917 
L 473.42017 178.545041 
L 475.77652 180.530165 
L 478.13287 182.515289 
L 480.48922 184.500413 
L 482.84557 186.485537 
L 485.20192 188.470661 
L 487.55827 190.455785 
L 489.91462 192.440909 
L 492.27097 194.426033 
L 494.62732 196.411157 
L 496.983669 198.396281 
L 499.340019 200.381405 
L 501.696369 202.366529 
L 504.052719 204.351653 
L 506.409069 206.336777 
L 508.765419 208.321901 
L 511.121769 210.307025 
L 513.478119 212.292149 
L 515.834469 214.277273 
L 518.190819 216.262397 
L 520.547169 218.247521 
L 522.903519 220.232645 
L 525.259869 222.217769 
L 527.616219 224.202893 
L 529.972569 226.188017 
L 532.328918 228.17314 
L 534.685268 230.158264 
L 537.041618 232.143388 
L 539.397968 234.128512 
L 541.754318 236.113636 
" clip-path="url(#p76b127316f)" style="fill: none; stroke: #0072b2; stroke-width: 2; stroke-linecap: square"/>
   </g>
   <g id="line2d_33">
    <path d="M 307.2975 245.94 
L 307.2975 29.76 
" clip-path="url(#p76b127316f)" style="fill: none; stroke-dasharray: 5.55,2.4; stroke-dashoffset: 0; stroke: #000000; stroke-width: 1.5"/>
   </g>
   <g id="patch_3">
    <path d="M 49.395 245.94 
L 49.395 29.76 
" style="fill: none; stroke: #1a1a1a; stroke-linejoin: miter; stroke-linecap: square"/>
   </g>
   <g id="patch_4">
    <path d="M 49.395 245.94 
L 565.2 245.94 
" style="fill: none; stroke: #1a1a1a; stroke-linejoin: miter; stroke-linecap: square"/>
   </g>
   <g id="text_18">
    <!-- a -->
    <g style="fill: #333333" transform="translate(311.986636 38.593802) scale(0.12 -0.12)">
     <defs>
      <path id="DejaVuSans-61" d="M 2194 1759 
Q 1497 1759 1228 1600 
Q 959 1441 959 1056 
Q 959 750 1161 570 
Q 1363 391 1709 391 
Q 2188 391 2477 730 
Q 2766 1069 2766 1631 
L 2766 1759 
L 2194 1759 
z
M 3341 1997 
L 3341 0 
L 2766 0 
L 2766 531 
Q 2569 213 2275 61 
Q 1981 -91 1556 -91 
Q 1019 -91 701 211 
Q 384 513 384 1019 
Q 384 1609 779 1909 
Q 1175 2209 1959 2209 
L 2766 2209 
L 2766 2266 
Q 2766 2663 2505 2880 
Q 2244 3097 1772 3097 
Q 1472 3097 1187 3025 
Q 903 2953 641 2809 
L 641 3341 
Q 956 3463 1253 3523 
Q 1550 3584 1831 3584 
Q 2591 3584 2966 3190 
Q 3341 2797 3341 1997 
z
" transform="scale(0.015625)"/>
     </defs>
     <use xlink:href="#DejaVuSans-61"/>
    </g>
   </g>
   <g id="text_19">
    <!-- PDF simétrica respecto a x = a -->
    <g style="fill: #333333" transform="translate(183.53 23.76) scale(0.16 -0.16)">
     <defs>
      <path id="DejaVuSans-50" d="M 1259 4147 
L 1259 2394 
L 2053 2394 
Q 2494 2394 2734 2622 
Q 2975 2850 2975 3272 
Q 2975 3691 2734 3919 
Q 2494 4147 2053 4147 
L 1259 4147 
z
M 628 4666 
L 2053 4666 
Q 2838 4666 3239 4311 
Q 3641 3956 3641 3272 
Q 3641 2581 3239 2228 
Q 2838 1875 2053 1875 
L 1259 1875 
L 1259 0 
L 628 0 
L 628 4666 
z
" transform="scale(0.015625)"/>
      <path id="DejaVuSans-44" d="M 1259 4147 
L 1259 519 
L 2022 519 
Q 2988 519 3436 956 
Q 3884 1394 3884 2338 
Q 3884 3275 3436 3711 
Q 2988 4147 2022 4147 
L 1259 4147 
z
M 628 4666 
L 1925 4666 
Q 3281 4666 3915 4102 
Q 4550 3538 4550 2338 
Q 4550 1131 3912 565 
Q 3275 0 1925 0 
L 628 0 
L 628 4666 
z
" transform="scale(0.015625)"/>
      <path id="DejaVuSans-46" d="M 628 4666 
L 3309 4666 
L 3309 4134 
L 1259 4134 
L 1259 2759 
L 3109 2759 
L 3109 2228 
L 1259 2228 
L 1259 0 
L 628 0 
L 628 4666 
z
" transform="scale(0.015625)"/>
      <path id="DejaVuSans-20" transform="scale(0.015625)"/>
      <path id="DejaVuSans-73" d="M 2834 3397 
L 2834 2853 
Q 2591 2978 2328 3040 
Q 2066 3103 1784 3103 
Q 1356 3103 1142 2972 
Q 928 2841 928 2578 
Q 928 2378 1081 2264 
Q 1234 2150 1697 2047 
L 1894 2003 
Q 2506 1872 2764 1633 
Q 3022 1394 3022 966 
Q 3022 478 2636 193 
Q 2250 -91 1575 -91 
Q 1294 -91 989 -36 
Q 684 19 347 128 
L 347 722 
Q 666 556 975 473 
Q 1284 391 1588 391 
Q 1994 391 2212 530 
Q 2431 669 2431 922 
Q 2431 1156 2273 1281 
Q 2116 1406 1581 1522 
L 1381 1569 
Q 847 1681 609 1914 
Q 372 2147 372 2553 
Q 372 3047 722 3315 
Q 1072 3584 1716 3584 
Q 2034 3584 2315 3537 
Q 2597 3491 2834 3397 
z
" transform="scale(0.015625)"/>
      <path id="DejaVuSans-69" d="M 603 3500 
L 1178 3500 
L 1178 0 
L 603 0 
L 603 3500 
z
M 603 4863 
L 1178 4863 
L 1178 4134 
L 603 4134 
L 603 4863 
z
" transform="scale(0.015625)"/>
      <path id="DejaVuSans-6d" d="M 3328 2828 
Q 3544 3216 3844 3400 
Q 4144 3584 4550 3584 
Q 5097 3584 5394 3201 
Q 5691 2819 5691 2113 
L 5691 0 
L 5113 0 
L 5113 2094 
Q 5113 2597 4934 2840 
Q 4756 3084 4391 3084 
Q 3944 3084 3684 2787 
Q 3425 2491 3425 1978 
L 3425 0 
L 2847 0 
L 2847 2094 
Q 2847 2600 2669 2842 
Q 2491 3084 2119 3084 
Q 1678 3084 1418 2786 
Q 1159 2488 1159 1978 
L 1159 0 
L 581 0 
L 581 3500 
L 1159 3500 
L 1159 2956 
Q 1356 3278 1631 3431 
Q 1906 3584 2284 3584 
Q 2666 3584 2933 3390 
Q 3200 3197 3328 2828 
z
" transform="scale(0.015625)"/>
      <path id="DejaVuSans-e9" d="M 3597 1894 
L 3597 1613 
L 953 1613 
Q 991 1019 1311 708 
Q 1631 397 2203 397 
Q 2534 397 2845 478 
Q 3156 559 3463 722 
L 3463 178 
Q 3153 47 2828 -22 
Q 2503 -91 2169 -91 
Q 1331 -91 842 396 
Q 353 884 353 1716 
Q 353 2575 817 3079 
Q 1281 3584 2069 3584 
Q 2775 3584 3186 3129 
Q 3597 2675 3597 1894 
z
M 3022 2063 
Q 3016 2534 2758 2815 
Q 2500 3097 2075 3097 
Q 1594 3097 1305 2825 
Q 1016 2553 972 2059 
L 3022 2063 
z
M 2466 5119 
L 3088 5119 
L 2070 3944 
L 1591 3944 
L 2466 5119 
z
" transform="scale(0.015625)"/>
      <path id="DejaVuSans-74" d="M 1172 4494 
L 1172 3500 
L 2356 3500 
L 2356 3053 
L 1172 3053 
L 1172 1153 
Q 1172 725 1289 603 
Q 1406 481 1766 481 
L 2356 481 
L 2356 0 
L 1766 0 
Q 1100 0 847 248 
Q 594 497 594 1153 
L 594 3053 
L 172 3053 
L 172 3500 
L 594 3500 
L 594 4494 
L 1172 4494 
z
" transform="scale(0.015625)"/>
      <path id="DejaVuSans-72" d="M 2631 2963 
Q 2534 3019 2420 3045 
Q 2306 3072 2169 3072 
Q 1681 3072 1420 2755 
Q 1159 2438 1159 1844 
L 1159 0 
L 581 0 
L 581 3500 
L 1159 3500 
L 1159 2956 
Q 1341 3275 1631 3429 
Q 1922 3584 2338 3584 
Q 2397 3584 2469 3576 
Q 2541 3569 2628 3553 
L 2631 2963 
z
" transform="scale(0.015625)"/>
      <path id="DejaVuSans-63" d="M 3122 3366 
L 3122 2828 
Q 2878 2963 2633 3030 
Q 2388 3097 2138 3097 
Q 1578 3097 1268 2742 
Q 959 2388 959 1747 
Q 959 1106 1268 751 
Q 1578 397 2138 397 
Q 2388 397 2633 464 
Q 2878 531 3122 666 
L 3122 134 
Q 2881 22 2623 -34 
Q 2366 -91 2075 -91 
Q 1284 -91 818 406 
Q 353 903 353 1747 
Q 353 2603 823 3093 
Q 1294 3584 2113 3584 
Q 2378 3584 2631 3529 
Q 2884 3475 3122 3366 
z
" transform="scale(0.015625)"/>
      <path id="DejaVuSans-65" d="M 3597 1894 
L 3597 1613 
L 953 1613 
Q 991 1019 1311 708 
Q 1631 397 2203 397 
Q 2534 397 2845 478 
Q 3156 559 3463 722 
L 3463 178 
Q 3153 47 2828 -22 
Q 2503 -91 2169 -91 
Q 1331 -91 842 396 
Q 353 884 353 1716 
Q 353 2575 817 3079 
Q 1281 3584 2069 3584 
Q 2775 3584 3186 3129 
Q 3597 2675 3597 1894 
z
M 3022 2063 
Q 3016 2534 2758 2815 
Q 2500 3097 2075 3097 
Q 1594 3097 1305 2825 
Q 1016 2553 972 2059 
L 3022 2063 
z
" transform="scale(0.015625)"/>
      <path id="DejaVuSans-70" d="M 1159 525 
L 1159 -1331 
L 581 -1331 
L 581 3500 
L 1159 3500 
L 1159 2969 
Q 1341 3281 1617 3432 
Q 1894 3584 2278 3584 
Q 2916 3584 3314 3078 
Q 3713 2572 3713 1747 
Q 3713 922 3314 415 
Q 2916 -91 2278 -91 
Q 1894 -91 1617 61 
Q 1341 213 1159 525 
z
M 3116 1747 
Q 3116 2381 2855 2742 
Q 2594 3103 2138 3103 
Q 1681 3103 1420 2742 
Q 1159 2381 1159 1747 
Q 1159 1113 1420 752 
Q 1681 391 2138 391 
Q 2594 391 2855 752 
Q 3116 1113 3116 1747 
z
" transform="scale(0.015625)"/>
      <path id="DejaVuSans-6f" d="M 1959 3097 
Q 1497 3097 1228 2736 
Q 959 2375 959 1747 
Q 959 1119 1226 758 
Q 1494 397 1959 397 
Q 2419 397 2687 759 
Q 2956 1122 2956 1747 
Q 2956 2369 2687 2733 
Q 2419 3097 1959 3097 
z
M 1959 3584 
Q 2709 3584 3137 3096 
Q 3566 2609 3566 1747 
Q 3566 888 3137 398 
Q 2709 -91 1959 -91 
Q 1206 -91 779 398 
Q 353 888 353 1747 
Q 353 2609 779 3096 
Q 1206 3584 1959 3584 
z
" transform="scale(0.015625)"/>
      <path id="DejaVuSans-3d" d="M 678 2906 
L 4684 2906 
L 4684 2381 
L 678 2381 
L 678 2906 
z
M 678 1631 
L 4684 1631 
L 4684 1100 
L 678 1100 
L 678 1631 
z
" transform="scale(0.015625)"/>
     </defs>
     <use xlink:href="#DejaVuSans-50"/>
     <use xlink:href="#DejaVuSans-44" x="60.302734"/>
     <use xlink:href="#DejaVuSans-46" x="137.304688"/>
     <use xlink:href="#DejaVuSans-20" x="194.824219"/>
     <use xlink:href="#DejaVuSans-73" x="226.611328"/>
     <use xlink:href="#DejaVuSans-69" x="278.710938"/>
     <use xlink:href="#DejaVuSans-6d" x="306.494141"/>
     <use xlink:href="#DejaVuSans-e9" x="403.90625"/>
     <use xlink:href="#DejaVuSans-74" x="465.429688"/>
     <use xlink:href="#DejaVuSans-72" x="504.638672"/>
     <use xlink:href="#DejaVuSans-69" x="545.751953"/>
     <use xlink:href="#DejaVuSans-63" x="573.535156"/>
     <use xlink:href="#DejaVuSans-61" x="628.515625"/>
     <use xlink:href="#DejaVuSans-20" x="689.794922"/>
     <use xlink:href="#DejaVuSans-72" x="721.582031"/>
     <use xlink:href="#DejaVuSans-65" x="760.445312"/>
     <use xlink:href="#DejaVuSans-73" x="821.96875"/>
     <use xlink:href="#DejaVuSans-70" x="874.068359"/>
     <use xlink:href="#DejaVuSans-65" x="937.544922"/>
     <use xlink:href="#DejaVuSans-63" x="999.068359"/>
     <use xlink:href="#DejaVuSans-74" x="1054.048828"/>
     <use xlink:href="#DejaVuSans-6f" x="1093.257812"/>
     <use xlink:href="#DejaVuSans-20" x="1154.439453"/>
     <use xlink:href="#DejaVuSans-61" x="1186.226562"/>
     <use xlink:href="#DejaVuSans-20" x="1247.505859"/>
     <use xlink:href="#DejaVuSans-78" x="1279.292969"/>
     <use xlink:href="#DejaVuSans-20" x="1338.472656"/>
     <use xlink:href="#DejaVuSans-3d" x="1370.259766"/>
     <use xlink:href="#DejaVuSans-20" x="1454.048828"/>
     <use xlink:href="#DejaVuSans-61" x="1485.835938"/>
    </g>
   </g>
  </g>
 </g>
 <defs>
  <clipPath id="p76b127316f">
   <rect x="49.395" y="29.76" width="515.805" height="216.18"/>
  </clipPath>
 </defs>
</svg>
