<?xml version="1.0" encoding="utf-8" standalone="no"?>
<!DOCTYPE svg PUBLIC "-//W3C//DTD SVG 1.1//EN"
  "http://www.w3.org/Graphics/SVG/1.1/DTD/svg11.dtd">
<svg xmlns:xlink="http://www.w3.org/1999/xlink" width="432pt" height="216pt" viewBox="0 0 432 216" xmlns="http://www.w3.org/2000/svg" version="1.1">
 <metadata>
  <rdf:RDF xmlns:dc="http://purl.org/dc/elements/1.1/" xmlns:cc="http://creativecommons.org/ns#" xmlns:rdf="http://www.w3.org/1999/02/22-rdf-syntax-ns#">
   <cc:Work>
    <dc:type rdf:resource="http://purl.org/dc/dcmitype/StillImage"/>
    <dc:date>2025-05-26T04:07:00.117735</dc:date>
    <dc:format>image/svg+xml</dc:format>
    <dc:creator>
     <cc:Agent>
      <dc:title>Matplotlib v3.6.3, https://matplotlib.org/</dc:title>
     </cc:Agent>
    </dc:creator>
   </cc:Work>
  </rdf:RDF>
 </metadata>
 <defs>
  <style type="text/css">*{stroke-linejoin: round; stroke-linecap: butt}</style>
 </defs>
 <g id="figure_1">
  <g id="patch_1">
   <path d="M 0 216 
L 432 216 
L 432 0 
L 0 0 
z
" style="fill: #ffffff"/>
  </g>
  <g id="axes_1">
   <g id="patch_2">
    <path d="M 54.39 173.94 
L 421.2 173.94 
L 421.2 29.04 
L 54.39 29.04 
z
" style="fill: #ffffff"/>
   </g>
   <g id="PolyCollection_1">
    <defs>
     <path id="m1a58912ceb" d="M 71.063182 -48.646364 
L 71.063182 -63.282727 
L 72.738878 -63.578404 
L 74.414575 -63.877037 
L 76.090272 -64.178628 
L 77.765968 -64.483174 
L 79.441665 -64.790678 
L 81.117362 -65.101139 
L 82.793058 -65.414556 
L 84.468755 -65.73093 
L 86.144452 -66.050261 
L 87.820148 -66.372548 
L 89.495845 -66.697793 
L 91.171542 -67.025994 
L 92.847238 -67.357151 
L 94.522935 -67.691266 
L 96.198632 -68.028337 
L 97.874328 -68.368366 
L 99.550025 -68.711351 
L 101.225722 -69.057292 
L 102.901418 -69.406191 
L 104.577115 -69.758046 
L 106.252812 -70.112858 
L 107.928508 -70.470627 
L 109.604205 -70.831352 
L 111.279902 -71.195034 
L 112.955598 -71.561673 
L 114.631295 -71.931269 
L 116.306992 -72.303822 
L 117.982688 -72.679331 
L 119.658385 -73.057797 
L 121.334082 -73.43922 
L 123.009778 -73.8236 
L 124.685475 -74.210936 
L 126.361172 -74.601229 
L 128.036868 -74.994479 
L 129.712565 -75.390686 
L 131.388262 -75.789849 
L 133.063958 -76.19197 
L 134.739655 -76.597047 
L 136.415352 -77.00508 
L 138.091048 -77.416071 
L 139.766745 -77.830018 
L 141.442442 -78.246922 
L 143.118138 -78.666783 
L 144.793835 -79.089601 
L 146.469532 -79.515375 
L 148.145228 -79.944106 
L 149.820925 -80.375794 
L 151.496622 -80.810439 
L 153.172318 -81.24804 
L 154.848015 -81.688599 
L 156.523712 -82.132114 
L 158.199408 -82.578585 
L 159.875105 -83.028014 
L 161.550802 -83.480399 
L 163.226498 -83.935741 
L 164.902195 -84.39404 
L 166.577892 -84.855295 
L 168.253588 -85.319508 
L 169.929285 -85.786677 
L 171.604982 -86.256803 
L 173.280678 -86.729885 
L 174.956375 -87.205925 
L 176.632072 -87.684921 
L 178.307768 -88.166874 
L 179.983465 -88.651784 
L 181.659162 -89.13965 
L 183.334858 -89.630473 
L 185.010555 -90.124253 
L 186.686252 -90.62099 
L 188.361948 -91.120684 
L 190.037645 -91.623334 
L 191.713342 -92.128941 
L 193.389038 -92.637505 
L 195.064735 -93.149025 
L 196.740432 -93.663503 
L 198.416128 -94.180937 
L 200.091825 -94.701328 
L 201.767522 -95.224675 
L 203.443218 -95.75098 
L 205.118915 -96.280241 
L 206.794612 -96.812459 
L 208.470308 -97.347634 
L 210.146005 -97.885765 
L 211.821702 -98.426854 
L 213.497398 -98.970899 
L 215.173095 -99.5179 
L 216.848792 -100.067859 
L 218.524488 -100.620774 
L 220.200185 -101.176646 
L 221.875882 -101.735475 
L 223.551578 -102.297261 
L 225.227275 -102.862003 
L 226.902972 -103.429702 
L 228.578668 -104.000358 
L 230.254365 -104.573971 
L 231.930062 -105.150541 
L 233.605758 -105.730067 
L 235.281455 -106.31255 
L 236.957152 -106.89799 
L 238.632848 -107.486386 
L 240.308545 -108.077739 
L 241.984242 -108.672049 
L 243.659938 -109.269316 
L 245.335635 -109.86954 
L 247.011332 -110.47272 
L 248.687028 -111.078857 
L 250.362725 -111.687951 
L 252.038422 -112.300002 
L 253.714118 -112.915009 
L 255.389815 -113.532973 
L 257.065512 -114.153894 
L 258.741208 -114.777772 
L 260.416905 -115.404607 
L 262.092602 -116.034398 
L 263.768298 -116.667146 
L 265.443995 -117.302851 
L 267.119692 -117.941512 
L 268.795388 -118.583131 
L 270.471085 -119.227706 
L 272.146782 -119.875238 
L 273.822478 -120.525726 
L 275.498175 -121.179172 
L 277.173872 -121.835574 
L 278.849568 -122.494933 
L 280.525265 -123.157248 
L 282.200962 -123.822521 
L 283.876658 -124.49075 
L 285.552355 -125.161936 
L 287.228052 -125.836079 
L 288.903748 -126.513178 
L 290.579445 -127.193235 
L 292.255142 -127.876248 
L 293.930838 -128.562217 
L 295.606535 -129.251144 
L 297.282232 -129.943027 
L 298.957928 -130.637868 
L 300.633625 -131.335664 
L 302.309322 -132.036418 
L 303.985018 -132.740128 
L 305.660715 -133.446796 
L 307.336412 -134.15642 
L 309.012108 -134.869 
L 310.687805 -135.584538 
L 312.363502 -136.303032 
L 314.039198 -137.024483 
L 315.714895 -137.748891 
L 317.390592 -138.476255 
L 319.066288 -139.206577 
L 320.741985 -139.939855 
L 322.417682 -140.67609 
L 324.093378 -141.415281 
L 325.769075 -142.15743 
L 327.444772 -142.902535 
L 329.120468 -143.650597 
L 330.796165 -144.401615 
L 332.471862 -145.155591 
L 334.147558 -145.912523 
L 335.823255 -146.672412 
L 337.498952 -147.435258 
L 339.174648 -148.20106 
L 340.850345 -148.96982 
L 342.526042 -149.741536 
L 344.201738 -150.516209 
L 345.877435 -151.293838 
L 347.553132 -152.074424 
L 349.228828 -152.857968 
L 350.904525 -153.644467 
L 352.580222 -154.433924 
L 354.255918 -155.226338 
L 355.931615 -156.021708 
L 357.607312 -156.820035 
L 359.283008 -157.621318 
L 360.958705 -158.425559 
L 362.634402 -159.232756 
L 364.310098 -160.04291 
L 365.985795 -160.856021 
L 367.661492 -161.672088 
L 369.337188 -162.491113 
L 371.012885 -163.313094 
L 372.688582 -164.138032 
L 374.364278 -164.965926 
L 376.039975 -165.796778 
L 377.715672 -166.630586 
L 379.391368 -167.467351 
L 381.067065 -168.307072 
L 382.742762 -169.149751 
L 384.418458 -169.995386 
L 386.094155 -170.843978 
L 387.769852 -171.695527 
L 389.445548 -172.550032 
L 391.121245 -173.407495 
L 392.796942 -174.267914 
L 394.472638 -175.131289 
L 396.148335 -175.997622 
L 397.824032 -176.866911 
L 399.499728 -177.739157 
L 401.175425 -178.61436 
L 402.851122 -179.49252 
L 404.526818 -180.373636 
L 404.526818 -48.646364 
L 404.526818 -48.646364 
L 402.851122 -48.646364 
L 401.175425 -48.646364 
L 399.499728 -48.646364 
L 397.824032 -48.646364 
L 396.148335 -48.646364 
L 394.472638 -48.646364 
L 392.796942 -48.646364 
L 391.121245 -48.646364 
L 389.445548 -48.646364 
L 387.769852 -48.646364 
L 386.094155 -48.646364 
L 384.418458 -48.646364 
L 382.742762 -48.646364 
L 381.067065 -48.646364 
L 379.391368 -48.646364 
L 377.715672 -48.646364 
L 376.039975 -48.646364 
L 374.364278 -48.646364 
L 372.688582 -48.646364 
L 371.012885 -48.646364 
L 369.337188 -48.646364 
L 367.661492 -48.646364 
L 365.985795 -48.646364 
L 364.310098 -48.646364 
L 362.634402 -48.646364 
L 360.958705 -48.646364 
L 359.283008 -48.646364 
L 357.607312 -48.646364 
L 355.931615 -48.646364 
L 354.255918 -48.646364 
L 352.580222 -48.646364 
L 350.904525 -48.646364 
L 349.228828 -48.646364 
L 347.553132 -48.646364 
L 345.877435 -48.646364 
L 344.201738 -48.646364 
L 342.526042 -48.646364 
L 340.850345 -48.646364 
L 339.174648 -48.646364 
L 337.498952 -48.646364 
L 335.823255 -48.646364 
L 334.147558 -48.646364 
L 332.471862 -48.646364 
L 330.796165 -48.646364 
L 329.120468 -48.646364 
L 327.444772 -48.646364 
L 325.769075 -48.646364 
L 324.093378 -48.646364 
L 322.417682 -48.646364 
L 320.741985 -48.646364 
L 319.066288 -48.646364 
L 317.390592 -48.646364 
L 315.714895 -48.646364 
L 314.039198 -48.646364 
L 312.363502 -48.646364 
L 310.687805 -48.646364 
L 309.012108 -48.646364 
L 307.336412 -48.646364 
L 305.660715 -48.646364 
L 303.985018 -48.646364 
L 302.309322 -48.646364 
L 300.633625 -48.646364 
L 298.957928 -48.646364 
L 297.282232 -48.646364 
L 295.606535 -48.646364 
L 293.930838 -48.646364 
L 292.255142 -48.646364 
L 290.579445 -48.646364 
L 288.903748 -48.646364 
L 287.228052 -48.646364 
L 285.552355 -48.646364 
L 283.876658 -48.646364 
L 282.200962 -48.646364 
L 280.525265 -48.646364 
L 278.849568 -48.646364 
L 277.173872 -48.646364 
L 275.498175 -48.646364 
L 273.822478 -48.646364 
L 272.146782 -48.646364 
L 270.471085 -48.646364 
L 268.795388 -48.646364 
L 267.119692 -48.646364 
L 265.443995 -48.646364 
L 263.768298 -48.646364 
L 262.092602 -48.646364 
L 260.416905 -48.646364 
L 258.741208 -48.646364 
L 257.065512 -48.646364 
L 255.389815 -48.646364 
L 253.714118 -48.646364 
L 252.038422 -48.646364 
L 250.362725 -48.646364 
L 248.687028 -48.646364 
L 247.011332 -48.646364 
L 245.335635 -48.646364 
L 243.659938 -48.646364 
L 241.984242 -48.646364 
L 240.308545 -48.646364 
L 238.632848 -48.646364 
L 236.957152 -48.646364 
L 235.281455 -48.646364 
L 233.605758 -48.646364 
L 231.930062 -48.646364 
L 230.254365 -48.646364 
L 228.578668 -48.646364 
L 226.902972 -48.646364 
L 225.227275 -48.646364 
L 223.551578 -48.646364 
L 221.875882 -48.646364 
L 220.200185 -48.646364 
L 218.524488 -48.646364 
L 216.848792 -48.646364 
L 215.173095 -48.646364 
L 213.497398 -48.646364 
L 211.821702 -48.646364 
L 210.146005 -48.646364 
L 208.470308 -48.646364 
L 206.794612 -48.646364 
L 205.118915 -48.646364 
L 203.443218 -48.646364 
L 201.767522 -48.646364 
L 200.091825 -48.646364 
L 198.416128 -48.646364 
L 196.740432 -48.646364 
L 195.064735 -48.646364 
L 193.389038 -48.646364 
L 191.713342 -48.646364 
L 190.037645 -48.646364 
L 188.361948 -48.646364 
L 186.686252 -48.646364 
L 185.010555 -48.646364 
L 183.334858 -48.646364 
L 181.659162 -48.646364 
L 179.983465 -48.646364 
L 178.307768 -48.646364 
L 176.632072 -48.646364 
L 174.956375 -48.646364 
L 173.280678 -48.646364 
L 171.604982 -48.646364 
L 169.929285 -48.646364 
L 168.253588 -48.646364 
L 166.577892 -48.646364 
L 164.902195 -48.646364 
L 163.226498 -48.646364 
L 161.550802 -48.646364 
L 159.875105 -48.646364 
L 158.199408 -48.646364 
L 156.523712 -48.646364 
L 154.848015 -48.646364 
L 153.172318 -48.646364 
L 151.496622 -48.646364 
L 149.820925 -48.646364 
L 148.145228 -48.646364 
L 146.469532 -48.646364 
L 144.793835 -48.646364 
L 143.118138 -48.646364 
L 141.442442 -48.646364 
L 139.766745 -48.646364 
L 138.091048 -48.646364 
L 136.415352 -48.646364 
L 134.739655 -48.646364 
L 133.063958 -48.646364 
L 131.388262 -48.646364 
L 129.712565 -48.646364 
L 128.036868 -48.646364 
L 126.361172 -48.646364 
L 124.685475 -48.646364 
L 123.009778 -48.646364 
L 121.334082 -48.646364 
L 119.658385 -48.646364 
L 117.982688 -48.646364 
L 116.306992 -48.646364 
L 114.631295 -48.646364 
L 112.955598 -48.646364 
L 111.279902 -48.646364 
L 109.604205 -48.646364 
L 107.928508 -48.646364 
L 106.252812 -48.646364 
L 104.577115 -48.646364 
L 102.901418 -48.646364 
L 101.225722 -48.646364 
L 99.550025 -48.646364 
L 97.874328 -48.646364 
L 96.198632 -48.646364 
L 94.522935 -48.646364 
L 92.847238 -48.646364 
L 91.171542 -48.646364 
L 89.495845 -48.646364 
L 87.820148 -48.646364 
L 86.144452 -48.646364 
L 84.468755 -48.646364 
L 82.793058 -48.646364 
L 81.117362 -48.646364 
L 79.441665 -48.646364 
L 77.765968 -48.646364 
L 76.090272 -48.646364 
L 74.414575 -48.646364 
L 72.738878 -48.646364 
L 71.063182 -48.646364 
z
" style="stroke: #0072b2; stroke-opacity: 0.3"/>
    </defs>
    <g clip-path="url(#p18f7d14bd5)">
     <use xlink:href="#m1a58912ceb" x="0" y="216" style="fill: #0072b2; fill-opacity: 0.3; stroke: #0072b2; stroke-opacity: 0.3"/>
    </g>
   </g>
   <g id="matplotlib.axis_1">
    <g id="xtick_1">
     <g id="line2d_1">
      <path d="M 71.063182 173.94 
L 71.063182 29.04 
" clip-path="url(#p18f7d14bd5)" style="fill: none; stroke-dasharray: 2.22,0.96; stroke-dashoffset: 0; stroke: #b0b0b0; stroke-opacity: 0.5; stroke-width: 0.6"/>
     </g>
     <g id="line2d_2">
      <defs>
       <path id="me1f0fc2cd9" d="M 0 0 
L 0 -3.5 
" style="stroke: #1a1a1a; stroke-width: 0.8"/>
      </defs>
      <g>
       <use xlink:href="#me1f0fc2cd9" x="71.063182" y="173.94" style="fill: #1a1a1a; stroke: #1a1a1a; stroke-width: 0.8"/>
      </g>
     </g>
     <g id="text_1">
      <!-- 1.00 -->
      <g style="fill: #1a1a1a" transform="translate(57.703807 186.558125) scale(0.12 -0.12)">
       <defs>
        <path id="DejaVuSans-31" d="M 794 531 
L 1825 531 
L 1825 4091 
L 703 3866 
L 703 4441 
L 1819 4666 
L 2450 4666 
L 2450 531 
L 3481 531 
L 3481 0 
L 794 0 
L 794 531 
z
" transform="scale(0.015625)"/>
        <path id="DejaVuSans-2e" d="M 684 794 
L 1344 794 
L 1344 0 
L 684 0 
L 684 794 
z
" transform="scale(0.015625)"/>
        <path id="DejaVuSans-30" d="M 2034 4250 
Q 1547 4250 1301 3770 
Q 1056 3291 1056 2328 
Q 1056 1369 1301 889 
Q 1547 409 2034 409 
Q 2525 409 2770 889 
Q 3016 1369 3016 2328 
Q 3016 3291 2770 3770 
Q 2525 4250 2034 4250 
z
M 2034 4750 
Q 2819 4750 3233 4129 
Q 3647 3509 3647 2328 
Q 3647 1150 3233 529 
Q 2819 -91 2034 -91 
Q 1250 -91 836 529 
Q 422 1150 422 2328 
Q 422 3509 836 4129 
Q 1250 4750 2034 4750 
z
" transform="scale(0.015625)"/>
       </defs>
       <use xlink:href="#DejaVuSans-31"/>
       <use xlink:href="#DejaVuSans-2e" x="63.623047"/>
       <use xlink:href="#DejaVuSans-30" x="95.410156"/>
       <use xlink:href="#DejaVuSans-30" x="159.033203"/>
      </g>
     </g>
    </g>
    <g id="xtick_2">
     <g id="line2d_3">
      <path d="M 112.746136 173.94 
L 112.746136 29.04 
" clip-path="url(#p18f7d14bd5)" style="fill: none; stroke-dasharray: 2.22,0.96; stroke-dashoffset: 0; stroke: #b0b0b0; stroke-opacity: 0.5; stroke-width: 0.6"/>
     </g>
     <g id="line2d_4">
      <g>
       <use xlink:href="#me1f0fc2cd9" x="112.746136" y="173.94" style="fill: #1a1a1a; stroke: #1a1a1a; stroke-width: 0.8"/>
      </g>
     </g>
     <g id="text_2">
      <!-- 1.25 -->
      <g style="fill: #1a1a1a" transform="translate(99.386761 186.558125) scale(0.12 -0.12)">
       <defs>
        <path id="DejaVuSans-32" d="M 1228 531 
L 3431 531 
L 3431 0 
L 469 0 
L 469 531 
Q 828 903 1448 1529 
Q 2069 2156 2228 2338 
Q 2531 2678 2651 2914 
Q 2772 3150 2772 3378 
Q 2772 3750 2511 3984 
Q 2250 4219 1831 4219 
Q 1534 4219 1204 4116 
Q 875 4013 500 3803 
L 500 4441 
Q 881 4594 1212 4672 
Q 1544 4750 1819 4750 
Q 2544 4750 2975 4387 
Q 3406 4025 3406 3419 
Q 3406 3131 3298 2873 
Q 3191 2616 2906 2266 
Q 2828 2175 2409 1742 
Q 1991 1309 1228 531 
z
" transform="scale(0.015625)"/>
        <path id="DejaVuSans-35" d="M 691 4666 
L 3169 4666 
L 3169 4134 
L 1269 4134 
L 1269 2991 
Q 1406 3038 1543 3061 
Q 1681 3084 1819 3084 
Q 2600 3084 3056 2656 
Q 3513 2228 3513 1497 
Q 3513 744 3044 326 
Q 2575 -91 1722 -91 
Q 1428 -91 1123 -41 
Q 819 9 494 109 
L 494 744 
Q 775 591 1075 516 
Q 1375 441 1709 441 
Q 2250 441 2565 725 
Q 2881 1009 2881 1497 
Q 2881 1984 2565 2268 
Q 2250 2553 1709 2553 
Q 1456 2553 1204 2497 
Q 953 2441 691 2322 
L 691 4666 
z
" transform="scale(0.015625)"/>
       </defs>
       <use xlink:href="#DejaVuSans-31"/>
       <use xlink:href="#DejaVuSans-2e" x="63.623047"/>
       <use xlink:href="#DejaVuSans-32" x="95.410156"/>
       <use xlink:href="#DejaVuSans-35" x="159.033203"/>
      </g>
     </g>
    </g>
    <g id="xtick_3">
     <g id="line2d_5">
      <path d="M 154.429091 173.94 
L 154.429091 29.04 
" clip-path="url(#p18f7d14bd5)" style="fill: none; stroke-dasharray: 2.22,0.96; stroke-dashoffset: 0; stroke: #b0b0b0; stroke-opacity: 0.5; stroke-width: 0.6"/>
     </g>
     <g id="line2d_6">
      <g>
       <use xlink:href="#me1f0fc2cd9" x="154.429091" y="173.94" style="fill: #1a1a1a; stroke: #1a1a1a; stroke-width: 0.8"/>
      </g>
     </g>
     <g id="text_3">
      <!-- 1.50 -->
      <g style="fill: #1a1a1a" transform="translate(141.069716 186.558125) scale(0.12 -0.12)">
       <use xlink:href="#DejaVuSans-31"/>
       <use xlink:href="#DejaVuSans-2e" x="63.623047"/>
       <use xlink:href="#DejaVuSans-35" x="95.410156"/>
       <use xlink:href="#DejaVuSans-30" x="159.033203"/>
      </g>
     </g>
    </g>
    <g id="xtick_4">
     <g id="line2d_7">
      <path d="M 196.112045 173.94 
L 196.112045 29.04 
" clip-path="url(#p18f7d14bd5)" style="fill: none; stroke-dasharray: 2.22,0.96; stroke-dashoffset: 0; stroke: #b0b0b0; stroke-opacity: 0.5; stroke-width: 0.6"/>
     </g>
     <g id="line2d_8">
      <g>
       <use xlink:href="#me1f0fc2cd9" x="196.112045" y="173.94" style="fill: #1a1a1a; stroke: #1a1a1a; stroke-width: 0.8"/>
      </g>
     </g>
     <g id="text_4">
      <!-- 1.75 -->
      <g style="fill: #1a1a1a" transform="translate(182.75267 186.558125) scale(0.12 -0.12)">
       <defs>
        <path id="DejaVuSans-37" d="M 525 4666 
L 3525 4666 
L 3525 4397 
L 1831 0 
L 1172 0 
L 2766 4134 
L 525 4134 
L 525 4666 
z
" transform="scale(0.015625)"/>
       </defs>
       <use xlink:href="#DejaVuSans-31"/>
       <use xlink:href="#DejaVuSans-2e" x="63.623047"/>
       <use xlink:href="#DejaVuSans-37" x="95.410156"/>
       <use xlink:href="#DejaVuSans-35" x="159.033203"/>
      </g>
     </g>
    </g>
    <g id="xtick_5">
     <g id="line2d_9">
      <path d="M 237.795 173.94 
L 237.795 29.04 
" clip-path="url(#p18f7d14bd5)" style="fill: none; stroke-dasharray: 2.22,0.96; stroke-dashoffset: 0; stroke: #b0b0b0; stroke-opacity: 0.5; stroke-width: 0.6"/>
     </g>
     <g id="line2d_10">
      <g>
       <use xlink:href="#me1f0fc2cd9" x="237.795" y="173.94" style="fill: #1a1a1a; stroke: #1a1a1a; stroke-width: 0.8"/>
      </g>
     </g>
     <g id="text_5">
      <!-- 2.00 -->
      <g style="fill: #1a1a1a" transform="translate(224.435625 186.558125) scale(0.12 -0.12)">
       <use xlink:href="#DejaVuSans-32"/>
       <use xlink:href="#DejaVuSans-2e" x="63.623047"/>
       <use xlink:href="#DejaVuSans-30" x="95.410156"/>
       <use xlink:href="#DejaVuSans-30" x="159.033203"/>
      </g>
     </g>
    </g>
    <g id="xtick_6">
     <g id="line2d_11">
      <path d="M 279.477955 173.94 
L 279.477955 29.04 
" clip-path="url(#p18f7d14bd5)" style="fill: none; stroke-dasharray: 2.22,0.96; stroke-dashoffset: 0; stroke: #b0b0b0; stroke-opacity: 0.5; stroke-width: 0.6"/>
     </g>
     <g id="line2d_12">
      <g>
       <use xlink:href="#me1f0fc2cd9" x="279.477955" y="173.94" style="fill: #1a1a1a; stroke: #1a1a1a; stroke-width: 0.8"/>
      </g>
     </g>
     <g id="text_6">
      <!-- 2.25 -->
      <g style="fill: #1a1a1a" transform="translate(266.11858 186.558125) scale(0.12 -0.12)">
       <use xlink:href="#DejaVuSans-32"/>
       <use xlink:href="#DejaVuSans-2e" x="63.623047"/>
       <use xlink:href="#DejaVuSans-32" x="95.410156"/>
       <use xlink:href="#DejaVuSans-35" x="159.033203"/>
      </g>
     </g>
    </g>
    <g id="xtick_7">
     <g id="line2d_13">
      <path d="M 321.160909 173.94 
L 321.160909 29.04 
" clip-path="url(#p18f7d14bd5)" style="fill: none; stroke-dasharray: 2.22,0.96; stroke-dashoffset: 0; stroke: #b0b0b0; stroke-opacity: 0.5; stroke-width: 0.6"/>
     </g>
     <g id="line2d_14">
      <g>
       <use xlink:href="#me1f0fc2cd9" x="321.160909" y="173.94" style="fill: #1a1a1a; stroke: #1a1a1a; stroke-width: 0.8"/>
      </g>
     </g>
     <g id="text_7">
      <!-- 2.50 -->
      <g style="fill: #1a1a1a" transform="translate(307.801534 186.558125) scale(0.12 -0.12)">
       <use xlink:href="#DejaVuSans-32"/>
       <use xlink:href="#DejaVuSans-2e" x="63.623047"/>
       <use xlink:href="#DejaVuSans-35" x="95.410156"/>
       <use xlink:href="#DejaVuSans-30" x="159.033203"/>
      </g>
     </g>
    </g>
    <g id="xtick_8">
     <g id="line2d_15">
      <path d="M 362.843864 173.94 
L 362.843864 29.04 
" clip-path="url(#p18f7d14bd5)" style="fill: none; stroke-dasharray: 2.22,0.96; stroke-dashoffset: 0; stroke: #b0b0b0; stroke-opacity: 0.5; stroke-width: 0.6"/>
     </g>
     <g id="line2d_16">
      <g>
       <use xlink:href="#me1f0fc2cd9" x="362.843864" y="173.94" style="fill: #1a1a1a; stroke: #1a1a1a; stroke-width: 0.8"/>
      </g>
     </g>
     <g id="text_8">
      <!-- 2.75 -->
      <g style="fill: #1a1a1a" transform="translate(349.484489 186.558125) scale(0.12 -0.12)">
       <use xlink:href="#DejaVuSans-32"/>
       <use xlink:href="#DejaVuSans-2e" x="63.623047"/>
       <use xlink:href="#DejaVuSans-37" x="95.410156"/>
       <use xlink:href="#DejaVuSans-35" x="159.033203"/>
      </g>
     </g>
    </g>
    <g id="xtick_9">
     <g id="line2d_17">
      <path d="M 404.526818 173.94 
L 404.526818 29.04 
" clip-path="url(#p18f7d14bd5)" style="fill: none; stroke-dasharray: 2.22,0.96; stroke-dashoffset: 0; stroke: #b0b0b0; stroke-opacity: 0.5; stroke-width: 0.6"/>
     </g>
     <g id="line2d_18">
      <g>
       <use xlink:href="#me1f0fc2cd9" x="404.526818" y="173.94" style="fill: #1a1a1a; stroke: #1a1a1a; stroke-width: 0.8"/>
      </g>
     </g>
     <g id="text_9">
      <!-- 3.00 -->
      <g style="fill: #1a1a1a" transform="translate(391.167443 186.558125) scale(0.12 -0.12)">
       <defs>
        <path id="DejaVuSans-33" d="M 2597 2516 
Q 3050 2419 3304 2112 
Q 3559 1806 3559 1356 
Q 3559 666 3084 287 
Q 2609 -91 1734 -91 
Q 1441 -91 1130 -33 
Q 819 25 488 141 
L 488 750 
Q 750 597 1062 519 
Q 1375 441 1716 441 
Q 2309 441 2620 675 
Q 2931 909 2931 1356 
Q 2931 1769 2642 2001 
Q 2353 2234 1838 2234 
L 1294 2234 
L 1294 2753 
L 1863 2753 
Q 2328 2753 2575 2939 
Q 2822 3125 2822 3475 
Q 2822 3834 2567 4026 
Q 2313 4219 1838 4219 
Q 1578 4219 1281 4162 
Q 984 4106 628 3988 
L 628 4550 
Q 988 4650 1302 4700 
Q 1616 4750 1894 4750 
Q 2613 4750 3031 4423 
Q 3450 4097 3450 3541 
Q 3450 3153 3228 2886 
Q 3006 2619 2597 2516 
z
" transform="scale(0.015625)"/>
       </defs>
       <use xlink:href="#DejaVuSans-33"/>
       <use xlink:href="#DejaVuSans-2e" x="63.623047"/>
       <use xlink:href="#DejaVuSans-30" x="95.410156"/>
       <use xlink:href="#DejaVuSans-30" x="159.033203"/>
      </g>
     </g>
    </g>
    <g id="text_10">
     <!-- i -->
     <g style="fill: #1a1a1a" transform="translate(236.128125 202.171875) scale(0.12 -0.12)">
      <defs>
       <path id="DejaVuSans-69" d="M 603 3500 
L 1178 3500 
L 1178 0 
L 603 0 
L 603 3500 
z
M 603 4863 
L 1178 4863 
L 1178 4134 
L 603 4134 
L 603 4863 
z
" transform="scale(0.015625)"/>
      </defs>
      <use xlink:href="#DejaVuSans-69"/>
     </g>
    </g>
   </g>
   <g id="matplotlib.axis_2">
    <g id="ytick_1">
     <g id="line2d_19">
      <path d="M 54.39 152.717273 
L 421.2 152.717273 
" clip-path="url(#p18f7d14bd5)" style="fill: none; stroke-dasharray: 2.22,0.96; stroke-dashoffset: 0; stroke: #b0b0b0; stroke-opacity: 0.5; stroke-width: 0.6"/>
     </g>
     <g id="line2d_20">
      <defs>
       <path id="md522478ae1" d="M 0 0 
L 3.5 0 
" style="stroke: #1a1a1a; stroke-width: 0.8"/>
      </defs>
      <g>
       <use xlink:href="#md522478ae1" x="54.39" y="152.717273" style="fill: #1a1a1a; stroke: #1a1a1a; stroke-width: 0.8"/>
      </g>
     </g>
     <g id="text_11">
      <!-- 1 -->
      <g style="fill: #1a1a1a" transform="translate(43.255 157.276335) scale(0.12 -0.12)">
       <use xlink:href="#DejaVuSans-31"/>
      </g>
     </g>
    </g>
    <g id="ytick_2">
     <g id="line2d_21">
      <path d="M 54.39 103.929394 
L 421.2 103.929394 
" clip-path="url(#p18f7d14bd5)" style="fill: none; stroke-dasharray: 2.22,0.96; stroke-dashoffset: 0; stroke: #b0b0b0; stroke-opacity: 0.5; stroke-width: 0.6"/>
     </g>
     <g id="line2d_22">
      <g>
       <use xlink:href="#md522478ae1" x="54.39" y="103.929394" style="fill: #1a1a1a; stroke: #1a1a1a; stroke-width: 0.8"/>
      </g>
     </g>
     <g id="text_12">
      <!-- E[P] -->
      <g style="fill: #1a1a1a" transform="translate(26.708125 108.488456) scale(0.12 -0.12)">
       <defs>
        <path id="DejaVuSans-45" d="M 628 4666 
L 3578 4666 
L 3578 4134 
L 1259 4134 
L 1259 2753 
L 3481 2753 
L 3481 2222 
L 1259 2222 
L 1259 531 
L 3634 531 
L 3634 0 
L 628 0 
L 628 4666 
z
" transform="scale(0.015625)"/>
        <path id="DejaVuSans-5b" d="M 550 4863 
L 1875 4863 
L 1875 4416 
L 1125 4416 
L 1125 -397 
L 1875 -397 
L 1875 -844 
L 550 -844 
L 550 4863 
z
" transform="scale(0.015625)"/>
        <path id="DejaVuSans-50" d="M 1259 4147 
L 1259 2394 
L 2053 2394 
Q 2494 2394 2734 2622 
Q 2975 2850 2975 3272 
Q 2975 3691 2734 3919 
Q 2494 4147 2053 4147 
L 1259 4147 
z
M 628 4666 
L 2053 4666 
Q 2838 4666 3239 4311 
Q 3641 3956 3641 3272 
Q 3641 2581 3239 2228 
Q 2838 1875 2053 1875 
L 1259 1875 
L 1259 0 
L 628 0 
L 628 4666 
z
" transform="scale(0.015625)"/>
        <path id="DejaVuSans-5d" d="M 1947 4863 
L 1947 -844 
L 622 -844 
L 622 -397 
L 1369 -397 
L 1369 4416 
L 622 4416 
L 622 4863 
L 1947 4863 
z
" transform="scale(0.015625)"/>
       </defs>
       <use xlink:href="#DejaVuSans-45"/>
       <use xlink:href="#DejaVuSans-5b" x="63.183594"/>
       <use xlink:href="#DejaVuSans-50" x="102.197266"/>
       <use xlink:href="#DejaVuSans-5d" x="162.5"/>
      </g>
     </g>
    </g>
    <g id="ytick_3">
     <g id="line2d_23">
      <path d="M 54.39 35.626364 
L 421.2 35.626364 
" clip-path="url(#p18f7d14bd5)" style="fill: none; stroke-dasharray: 2.22,0.96; stroke-dashoffset: 0; stroke: #b0b0b0; stroke-opacity: 0.5; stroke-width: 0.6"/>
     </g>
     <g id="line2d_24">
      <g>
       <use xlink:href="#md522478ae1" x="54.39" y="35.626364" style="fill: #1a1a1a; stroke: #1a1a1a; stroke-width: 0.8"/>
      </g>
     </g>
     <g id="text_13">
      <!-- 9 -->
      <g style="fill: #1a1a1a" transform="translate(43.255 40.185426) scale(0.12 -0.12)">
       <defs>
        <path id="DejaVuSans-39" d="M 703 97 
L 703 672 
Q 941 559 1184 500 
Q 1428 441 1663 441 
Q 2288 441 2617 861 
Q 2947 1281 2994 2138 
Q 2813 1869 2534 1725 
Q 2256 1581 1919 1581 
Q 1219 1581 811 2004 
Q 403 2428 403 3163 
Q 403 3881 828 4315 
Q 1253 4750 1959 4750 
Q 2769 4750 3195 4129 
Q 3622 3509 3622 2328 
Q 3622 1225 3098 567 
Q 2575 -91 1691 -91 
Q 1453 -91 1209 -44 
Q 966 3 703 97 
z
M 1959 2075 
Q 2384 2075 2632 2365 
Q 2881 2656 2881 3163 
Q 2881 3666 2632 3958 
Q 2384 4250 1959 4250 
Q 1534 4250 1286 3958 
Q 1038 3666 1038 3163 
Q 1038 2656 1286 2365 
Q 1534 2075 1959 2075 
z
" transform="scale(0.015625)"/>
       </defs>
       <use xlink:href="#DejaVuSans-39"/>
      </g>
     </g>
    </g>
    <g id="text_14">
     <!-- g(i) -->
     <g style="fill: #1a1a1a" transform="translate(20.2125 111.647813) rotate(-90) scale(0.12 -0.12)">
      <defs>
       <path id="DejaVuSans-67" d="M 2906 1791 
Q 2906 2416 2648 2759 
Q 2391 3103 1925 3103 
Q 1463 3103 1205 2759 
Q 947 2416 947 1791 
Q 947 1169 1205 825 
Q 1463 481 1925 481 
Q 2391 481 2648 825 
Q 2906 1169 2906 1791 
z
M 3481 434 
Q 3481 -459 3084 -895 
Q 2688 -1331 1869 -1331 
Q 1566 -1331 1297 -1286 
Q 1028 -1241 775 -1147 
L 775 -588 
Q 1028 -725 1275 -790 
Q 1522 -856 1778 -856 
Q 2344 -856 2625 -561 
Q 2906 -266 2906 331 
L 2906 616 
Q 2728 306 2450 153 
Q 2172 0 1784 0 
Q 1141 0 747 490 
Q 353 981 353 1791 
Q 353 2603 747 3093 
Q 1141 3584 1784 3584 
Q 2172 3584 2450 3431 
Q 2728 3278 2906 2969 
L 2906 3500 
L 3481 3500 
L 3481 434 
z
" transform="scale(0.015625)"/>
       <path id="DejaVuSans-28" d="M 1984 4856 
Q 1566 4138 1362 3434 
Q 1159 2731 1159 2009 
Q 1159 1288 1364 580 
Q 1569 -128 1984 -844 
L 1484 -844 
Q 1016 -109 783 600 
Q 550 1309 550 2009 
Q 550 2706 781 3412 
Q 1013 4119 1484 4856 
L 1984 4856 
z
" transform="scale(0.015625)"/>
       <path id="DejaVuSans-29" d="M 513 4856 
L 1013 4856 
Q 1481 4119 1714 3412 
Q 1947 2706 1947 2009 
Q 1947 1309 1714 600 
Q 1481 -109 1013 -844 
L 513 -844 
Q 928 -128 1133 580 
Q 1338 1288 1338 2009 
Q 1338 2731 1133 3434 
Q 928 4138 513 4856 
z
" transform="scale(0.015625)"/>
      </defs>
      <use xlink:href="#DejaVuSans-67"/>
      <use xlink:href="#DejaVuSans-28" x="63.476562"/>
      <use xlink:href="#DejaVuSans-69" x="102.490234"/>
      <use xlink:href="#DejaVuSans-29" x="130.273438"/>
     </g>
    </g>
   </g>
   <g id="line2d_25">
    <path d="M 71.063182 152.717273 
L 86.144452 149.949739 
L 101.225722 146.942708 
L 116.306992 143.696178 
L 131.388262 140.210151 
L 146.469532 136.484625 
L 161.550802 132.519601 
L 176.632072 128.315079 
L 191.713342 123.871059 
L 206.794612 119.187541 
L 221.875882 114.264525 
L 236.957152 109.10201 
L 252.038422 103.699998 
L 267.119692 98.058488 
L 282.200962 92.177479 
L 297.282232 86.056973 
L 312.363502 79.696968 
L 327.444772 73.097465 
L 342.526042 66.258464 
L 357.607312 59.179965 
L 372.688582 51.861968 
L 387.769852 44.304473 
L 402.851122 36.50748 
L 404.526818 35.626364 
L 404.526818 35.626364 
" clip-path="url(#p18f7d14bd5)" style="fill: none; stroke: #0072b2; stroke-width: 2; stroke-linecap: square"/>
   </g>
   <g id="line2d_26">
    <path d="M 54.39 103.929394 
L 421.2 103.929394 
" clip-path="url(#p18f7d14bd5)" style="fill: none; stroke-dasharray: 5.55,2.4; stroke-dashoffset: 0; stroke: #000000; stroke-width: 1.5"/>
   </g>
   <g id="patch_3">
    <path d="M 54.39 173.94 
L 54.39 29.04 
" style="fill: none; stroke: #1a1a1a; stroke-linejoin: miter; stroke-linecap: square"/>
   </g>
   <g id="patch_4">
    <path d="M 54.39 173.94 
L 421.2 173.94 
" style="fill: none; stroke: #1a1a1a; stroke-linejoin: miter; stroke-linecap: square"/>
   </g>
   <g id="text_15">
    <!-- Potencia disipada P = I²R con I uniforme -->
    <g style="fill: #333333" transform="translate(76.9475 23.04) scale(0.16 -0.16)">
     <defs>
      <path id="DejaVuSans-6f" d="M 1959 3097 
Q 1497 3097 1228 2736 
Q 959 2375 959 1747 
Q 959 1119 1226 758 
Q 1494 397 1959 397 
Q 2419 397 2687 759 
Q 2956 1122 2956 1747 
Q 2956 2369 2687 2733 
Q 2419 3097 1959 3097 
z
M 1959 3584 
Q 2709 3584 3137 3096 
Q 3566 2609 3566 1747 
Q 3566 888 3137 398 
Q 2709 -91 1959 -91 
Q 1206 -91 779 398 
Q 353 888 353 1747 
Q 353 2609 779 3096 
Q 1206 3584 1959 3584 
z
" transform="scale(0.015625)"/>
      <path id="DejaVuSans-74" d="M 1172 4494 
L 1172 3500 
L 2356 3500 
L 2356 3053 
L 1172 3053 
L 1172 1153 
Q 1172 725 1289 603 
Q 1406 481 1766 481 
L 2356 481 
L 2356 0 
L 1766 0 
Q 1100 0 847 248 
Q 594 497 594 1153 
L 594 3053 
L 172 3053 
L 172 3500 
L 594 3500 
L 594 4494 
L 1172 4494 
z
" transform="scale(0.015625)"/>
      <path id="DejaVuSans-65" d="M 3597 1894 
L 3597 1613 
L 953 1613 
Q 991 1019 1311 708 
Q 1631 397 2203 397 
Q 2534 397 2845 478 
Q 3156 559 3463 722 
L 3463 178 
Q 3153 47 2828 -22 
Q 2503 -91 2169 -91 
Q 1331 -91 842 396 
Q 353 884 353 1716 
Q 353 2575 817 3079 
Q 1281 3584 2069 3584 
Q 2775 3584 3186 3129 
Q 3597 2675 3597 1894 
z
M 3022 2063 
Q 3016 2534 2758 2815 
Q 2500 3097 2075 3097 
Q 1594 3097 1305 2825 
Q 1016 2553 972 2059 
L 3022 2063 
z
" transform="scale(0.015625)"/>
      <path id="DejaVuSans-6e" d="M 3513 2113 
L 3513 0 
L 2938 0 
L 2938 2094 
Q 2938 2591 2744 2837 
Q 2550 3084 2163 3084 
Q 1697 3084 1428 2787 
Q 1159 2491 1159 1978 
L 1159 0 
L 581 0 
L 581 3500 
L 1159 3500 
L 1159 2956 
Q 1366 3272 1645 3428 
Q 1925 3584 2291 3584 
Q 2894 3584 3203 3211 
Q 3513 2838 3513 2113 
z
" transform="scale(0.015625)"/>
      <path id="DejaVuSans-63" d="M 3122 3366 
L 3122 2828 
Q 2878 2963 2633 3030 
Q 2388 3097 2138 3097 
Q 1578 3097 1268 2742 
Q 959 2388 959 1747 
Q 959 1106 1268 751 
Q 1578 397 2138 397 
Q 2388 397 2633 464 
Q 2878 531 3122 666 
L 3122 134 
Q 2881 22 2623 -34 
Q 2366 -91 2075 -91 
Q 1284 -91 818 406 
Q 353 903 353 1747 
Q 353 2603 823 3093 
Q 1294 3584 2113 3584 
Q 2378 3584 2631 3529 
Q 2884 3475 3122 3366 
z
" transform="scale(0.015625)"/>
      <path id="DejaVuSans-61" d="M 2194 1759 
Q 1497 1759 1228 1600 
Q 959 1441 959 1056 
Q 959 750 1161 570 
Q 1363 391 1709 391 
Q 2188 391 2477 730 
Q 2766 1069 2766 1631 
L 2766 1759 
L 2194 1759 
z
M 3341 1997 
L 3341 0 
L 2766 0 
L 2766 531 
Q 2569 213 2275 61 
Q 1981 -91 1556 -91 
Q 1019 -91 701 211 
Q 384 513 384 1019 
Q 384 1609 779 1909 
Q 1175 2209 1959 2209 
L 2766 2209 
L 2766 2266 
Q 2766 2663 2505 2880 
Q 2244 3097 1772 3097 
Q 1472 3097 1187 3025 
Q 903 2953 641 2809 
L 641 3341 
Q 956 3463 1253 3523 
Q 1550 3584 1831 3584 
Q 2591 3584 2966 3190 
Q 3341 2797 3341 1997 
z
" transform="scale(0.015625)"/>
      <path id="DejaVuSans-20" transform="scale(0.015625)"/>
      <path id="DejaVuSans-64" d="M 2906 2969 
L 2906 4863 
L 3481 4863 
L 3481 0 
L 2906 0 
L 2906 525 
Q 2725 213 2448 61 
Q 2172 -91 1784 -91 
Q 1150 -91 751 415 
Q 353 922 353 1747 
Q 353 2572 751 3078 
Q 1150 3584 1784 3584 
Q 2172 3584 2448 3432 
Q 2725 3281 2906 2969 
z
M 947 1747 
Q 947 1113 1208 752 
Q 1469 391 1925 391 
Q 2381 391 2643 752 
Q 2906 1113 2906 1747 
Q 2906 2381 2643 2742 
Q 2381 3103 1925 3103 
Q 1469 3103 1208 2742 
Q 947 2381 947 1747 
z
" transform="scale(0.015625)"/>
      <path id="DejaVuSans-73" d="M 2834 3397 
L 2834 2853 
Q 2591 2978 2328 3040 
Q 2066 3103 1784 3103 
Q 1356 3103 1142 2972 
Q 928 2841 928 2578 
Q 928 2378 1081 2264 
Q 1234 2150 1697 2047 
L 1894 2003 
Q 2506 1872 2764 1633 
Q 3022 1394 3022 966 
Q 3022 478 2636 193 
Q 2250 -91 1575 -91 
Q 1294 -91 989 -36 
Q 684 19 347 128 
L 347 722 
Q 666 556 975 473 
Q 1284 391 1588 391 
Q 1994 391 2212 530 
Q 2431 669 2431 922 
Q 2431 1156 2273 1281 
Q 2116 1406 1581 1522 
L 1381 1569 
Q 847 1681 609 1914 
Q 372 2147 372 2553 
Q 372 3047 722 3315 
Q 1072 3584 1716 3584 
Q 2034 3584 2315 3537 
Q 2597 3491 2834 3397 
z
" transform="scale(0.015625)"/>
      <path id="DejaVuSans-70" d="M 1159 525 
L 1159 -1331 
L 581 -1331 
L 581 3500 
L 1159 3500 
L 1159 2969 
Q 1341 3281 1617 3432 
Q 1894 3584 2278 3584 
Q 2916 3584 3314 3078 
Q 3713 2572 3713 1747 
Q 3713 922 3314 415 
Q 2916 -91 2278 -91 
Q 1894 -91 1617 61 
Q 1341 213 1159 525 
z
M 3116 1747 
Q 3116 2381 2855 2742 
Q 2594 3103 2138 3103 
Q 1681 3103 1420 2742 
Q 1159 2381 1159 1747 
Q 1159 1113 1420 752 
Q 1681 391 2138 391 
Q 2594 391 2855 752 
Q 3116 1113 3116 1747 
z
" transform="scale(0.015625)"/>
      <path id="DejaVuSans-3d" d="M 678 2906 
L 4684 2906 
L 4684 2381 
L 678 2381 
L 678 2906 
z
M 678 1631 
L 4684 1631 
L 4684 1100 
L 678 1100 
L 678 1631 
z
" transform="scale(0.015625)"/>
      <path id="DejaVuSans-49" d="M 628 4666 
L 1259 4666 
L 1259 0 
L 628 0 
L 628 4666 
z
" transform="scale(0.015625)"/>
      <path id="DejaVuSans-b2" d="M 838 2444 
L 2163 2444 
L 2163 2088 
L 294 2088 
L 294 2431 
Q 400 2528 597 2703 
Q 1672 3656 1672 3950 
Q 1672 4156 1509 4282 
Q 1347 4409 1081 4409 
Q 919 4409 728 4354 
Q 538 4300 313 4191 
L 313 4575 
Q 553 4663 761 4706 
Q 969 4750 1147 4750 
Q 1600 4750 1872 4544 
Q 2144 4338 2144 4000 
Q 2144 3566 1109 2678 
Q 934 2528 838 2444 
z
" transform="scale(0.015625)"/>
      <path id="DejaVuSans-52" d="M 2841 2188 
Q 3044 2119 3236 1894 
Q 3428 1669 3622 1275 
L 4263 0 
L 3584 0 
L 2988 1197 
Q 2756 1666 2539 1819 
Q 2322 1972 1947 1972 
L 1259 1972 
L 1259 0 
L 628 0 
L 628 4666 
L 2053 4666 
Q 2853 4666 3247 4331 
Q 3641 3997 3641 3322 
Q 3641 2881 3436 2590 
Q 3231 2300 2841 2188 
z
M 1259 4147 
L 1259 2491 
L 2053 2491 
Q 2509 2491 2742 2702 
Q 2975 2913 2975 3322 
Q 2975 3731 2742 3939 
Q 2509 4147 2053 4147 
L 1259 4147 
z
" transform="scale(0.015625)"/>
      <path id="DejaVuSans-75" d="M 544 1381 
L 544 3500 
L 1119 3500 
L 1119 1403 
Q 1119 906 1312 657 
Q 1506 409 1894 409 
Q 2359 409 2629 706 
Q 2900 1003 2900 1516 
L 2900 3500 
L 3475 3500 
L 3475 0 
L 2900 0 
L 2900 538 
Q 2691 219 2414 64 
Q 2138 -91 1772 -91 
Q 1169 -91 856 284 
Q 544 659 544 1381 
z
M 1991 3584 
L 1991 3584 
z
" transform="scale(0.015625)"/>
      <path id="DejaVuSans-66" d="M 2375 4863 
L 2375 4384 
L 1825 4384 
Q 1516 4384 1395 4259 
Q 1275 4134 1275 3809 
L 1275 3500 
L 2222 3500 
L 2222 3053 
L 1275 3053 
L 1275 0 
L 697 0 
L 697 3053 
L 147 3053 
L 147 3500 
L 697 3500 
L 697 3744 
Q 697 4328 969 4595 
Q 1241 4863 1831 4863 
L 2375 4863 
z
" transform="scale(0.015625)"/>
      <path id="DejaVuSans-72" d="M 2631 2963 
Q 2534 3019 2420 3045 
Q 2306 3072 2169 3072 
Q 1681 3072 1420 2755 
Q 1159 2438 1159 1844 
L 1159 0 
L 581 0 
L 581 3500 
L 1159 3500 
L 1159 2956 
Q 1341 3275 1631 3429 
Q 1922 3584 2338 3584 
Q 2397 3584 2469 3576 
Q 2541 3569 2628 3553 
L 2631 2963 
z
" transform="scale(0.015625)"/>
      <path id="DejaVuSans-6d" d="M 3328 2828 
Q 3544 3216 3844 3400 
Q 4144 3584 4550 3584 
Q 5097 3584 5394 3201 
Q 5691 2819 5691 2113 
L 5691 0 
L 5113 0 
L 5113 2094 
Q 5113 2597 4934 2840 
Q 4756 3084 4391 3084 
Q 3944 3084 3684 2787 
Q 3425 2491 3425 1978 
L 3425 0 
L 2847 0 
L 2847 2094 
Q 2847 2600 2669 2842 
Q 2491 3084 2119 3084 
Q 1678 3084 1418 2786 
Q 1159 2488 1159 1978 
L 1159 0 
L 581 0 
L 581 3500 
L 1159 3500 
L 1159 2956 
Q 1356 3278 1631 3431 
Q 1906 3584 2284 3584 
Q 2666 3584 2933 3390 
Q 3200 3197 3328 2828 
z
" transform="scale(0.015625)"/>
     </defs>
     <use xlink:href="#DejaVuSans-50"/>
     <use xlink:href="#DejaVuSans-6f" x="56.677734"/>
     <use xlink:href="#DejaVuSans-74" x="117.859375"/>
     <use xlink:href="#DejaVuSans-65" x="157.068359"/>
     <use xlink:href="#DejaVuSans-6e" x="218.591797"/>
     <use xlink:href="#DejaVuSans-63" x="281.970703"/>
     <use xlink:href="#DejaVuSans-69" x="336.951172"/>
     <use xlink:href="#DejaVuSans-61" x="364.734375"/>
     <use xlink:href="#DejaVuSans-20" x="426.013672"/>
     <use xlink:href="#DejaVuSans-64" x="457.800781"/>
     <use xlink:href="#DejaVuSans-69" x="521.277344"/>
     <use xlink:href="#DejaVuSans-73" x="549.060547"/>
     <use xlink:href="#DejaVuSans-69" x="601.160156"/>
     <use xlink:href="#DejaVuSans-70" x="628.943359"/>
     <use xlink:href="#DejaVuSans-61" x="692.419922"/>
     <use xlink:href="#DejaVuSans-64" x="753.699219"/>
     <use xlink:href="#DejaVuSans-61" x="817.175781"/>
     <use xlink:href="#DejaVuSans-20" x="878.455078"/>
     <use xlink:href="#DejaVuSans-50" x="910.242188"/>
     <use xlink:href="#DejaVuSans-20" x="970.544922"/>
     <use xlink:href="#DejaVuSans-3d" x="1002.332031"/>
     <use xlink:href="#DejaVuSans-20" x="1086.121094"/>
     <use xlink:href="#DejaVuSans-49" x="1117.908203"/>
     <use xlink:href="#DejaVuSans-b2" x="1147.400391"/>
     <use xlink:href="#DejaVuSans-52" x="1187.488281"/>
     <use xlink:href="#DejaVuSans-20" x="1256.970703"/>
     <use xlink:href="#DejaVuSans-63" x="1288.757812"/>
     <use xlink:href="#DejaVuSans-6f" x="1343.738281"/>
     <use xlink:href="#DejaVuSans-6e" x="1404.919922"/>
     <use xlink:href="#DejaVuSans-20" x="1468.298828"/>
     <use xlink:href="#DejaVuSans-49" x="1500.085938"/>
     <use xlink:href="#DejaVuSans-20" x="1529.578125"/>
     <use xlink:href="#DejaVuSans-75" x="1561.365234"/>
     <use xlink:href="#DejaVuSans-6e" x="1624.744141"/>
     <use xlink:href="#DejaVuSans-69" x="1688.123047"/>
     <use xlink:href="#DejaVuSans-66" x="1715.90625"/>
     <use xlink:href="#DejaVuSans-6f" x="1751.111328"/>
     <use xlink:href="#DejaVuSans-72" x="1812.292969"/>
     <use xlink:href="#DejaVuSans-6d" x="1851.65625"/>
     <use xlink:href="#DejaVuSans-65" x="1949.068359"/>
    </g>
   </g>
  </g>
 </g>
 <defs>
  <clipPath id="p18f7d14bd5">
   <rect x="54.39" y="29.04" width="366.81" height="144.9"/>
  </clipPath>
 </defs>
</svg>
