<?xml version="1.0" encoding="UTF-8" standalone="no"?>
<svg
   width="99.613342pt"
   height="127.961pt"
   viewBox="0 0 99.613342 127.961"
   version="1.1"
   id="svg53"
   xmlns="http://www.w3.org/2000/svg"
   xmlns:svg="http://www.w3.org/2000/svg">
  <defs
     id="defs53" />
  <g
     id="surface1"
     transform="translate(-247.832,-301.12106)">
    <path
       style="fill:#000000;fill-opacity:1;fill-rule:nonzero;stroke:none"
       d="m 264.19922,414.71094 c 0,-1.10157 -0.89453,-1.9961 -1.9961,-1.9961 -1.09765,0 -1.99218,0.89453 -1.99218,1.9961 0,1.09765 0.89453,1.99218 1.99218,1.99218 1.10157,0 1.9961,-0.89453 1.9961,-1.99218 z m 0,0"
       id="path1" />
    <path
       style="fill:#000000;fill-opacity:1;fill-rule:nonzero;stroke:none"
       d="m 264.19922,400.53516 c 0,-1.10157 -0.89453,-1.99219 -1.9961,-1.99219 -1.09765,0 -1.99218,0.89062 -1.99218,1.99219 0,1.10156 0.89453,1.99218 1.99218,1.99218 1.10157,0 1.9961,-0.89062 1.9961,-1.99218 z m 0,0"
       id="path2" />
    <path
       style="fill:#000000;fill-opacity:1;fill-rule:nonzero;stroke:none"
       d="m 264.19922,386.36328 c 0,-1.10156 -0.89453,-1.99219 -1.9961,-1.99219 -1.09765,0 -1.99218,0.89063 -1.99218,1.99219 0,1.09766 0.89453,1.99219 1.99218,1.99219 1.10157,0 1.9961,-0.89453 1.9961,-1.99219 z m 0,0"
       id="path3" />
    <path
       style="fill:#000000;fill-opacity:1;fill-rule:nonzero;stroke:none"
       d="m 264.19922,372.1875 c 0,-1.09766 -0.89453,-1.99219 -1.9961,-1.99219 -1.09765,0 -1.99218,0.89453 -1.99218,1.99219 0,1.10156 0.89453,1.99219 1.99218,1.99219 1.10157,0 1.9961,-0.89063 1.9961,-1.99219 z m 0,0"
       id="path4" />
    <path
       style="fill:#000000;fill-opacity:1;fill-rule:nonzero;stroke:none"
       d="m 264.19922,358.01562 c 0,-1.10156 -0.89453,-1.99218 -1.9961,-1.99218 -1.09765,0 -1.99218,0.89062 -1.99218,1.99218 0,1.10157 0.89453,1.99219 1.99218,1.99219 1.10157,0 1.9961,-0.89062 1.9961,-1.99219 z m 0,0"
       id="path5" />
    <path
       style="fill:#000000;fill-opacity:1;fill-rule:nonzero;stroke:none"
       d="m 264.19922,343.84375 c 0,-1.10156 -0.89453,-1.99609 -1.9961,-1.99609 -1.09765,0 -1.99218,0.89453 -1.99218,1.99609 0,1.09766 0.89453,1.99219 1.99218,1.99219 1.10157,0 1.9961,-0.89453 1.9961,-1.99219 z m 0,0"
       id="path6" />
    <path
       style="fill:#000000;fill-opacity:1;fill-rule:nonzero;stroke:none"
       d="m 264.19922,329.66797 c 0,-1.10156 -0.89453,-1.99219 -1.9961,-1.99219 -1.09765,0 -1.99218,0.89063 -1.99218,1.99219 0,1.10156 0.89453,1.99219 1.99218,1.99219 1.10157,0 1.9961,-0.89063 1.9961,-1.99219 z m 0,0"
       id="path7" />
    <path
       style="fill:#000000;fill-opacity:1;fill-rule:nonzero;stroke:none"
       d="m 264.19922,315.49609 c 0,-1.10156 -0.89453,-1.99218 -1.9961,-1.99218 -1.09765,0 -1.99218,0.89062 -1.99218,1.99218 0,1.09766 0.89453,1.99219 1.99218,1.99219 1.10157,0 1.9961,-0.89453 1.9961,-1.99219 z m 0,0"
       id="path8" />
    <path
       style="fill:#000000;fill-opacity:1;fill-rule:nonzero;stroke:none"
       d="m 278.37109,414.71094 c 0,-1.10157 -0.89062,-1.9961 -1.99218,-1.9961 -1.10157,0 -1.99219,0.89453 -1.99219,1.9961 0,1.09765 0.89062,1.99218 1.99219,1.99218 1.10156,0 1.99218,-0.89453 1.99218,-1.99218 z m 0,0"
       id="path9" />
    <path
       style="fill:#000000;fill-opacity:1;fill-rule:nonzero;stroke:none"
       d="m 278.37109,400.53516 c 0,-1.10157 -0.89062,-1.99219 -1.99218,-1.99219 -1.10157,0 -1.99219,0.89062 -1.99219,1.99219 0,1.10156 0.89062,1.99218 1.99219,1.99218 1.10156,0 1.99218,-0.89062 1.99218,-1.99218 z m 0,0"
       id="path10" />
    <path
       style="fill:#000000;fill-opacity:1;fill-rule:nonzero;stroke:none"
       d="m 278.37109,386.36328 c 0,-1.10156 -0.89062,-1.99219 -1.99218,-1.99219 -1.10157,0 -1.99219,0.89063 -1.99219,1.99219 0,1.09766 0.89062,1.99219 1.99219,1.99219 1.10156,0 1.99218,-0.89453 1.99218,-1.99219 z m 0,0"
       id="path11" />
    <path
       style="fill:#000000;fill-opacity:1;fill-rule:nonzero;stroke:none"
       d="m 278.37109,372.1875 c 0,-1.09766 -0.89062,-1.99219 -1.99218,-1.99219 -1.10157,0 -1.99219,0.89453 -1.99219,1.99219 0,1.10156 0.89062,1.99219 1.99219,1.99219 1.10156,0 1.99218,-0.89063 1.99218,-1.99219 z m 0,0"
       id="path12" />
    <path
       style="fill:#000000;fill-opacity:1;fill-rule:nonzero;stroke:none"
       d="m 278.37109,358.01562 c 0,-1.10156 -0.89062,-1.99218 -1.99218,-1.99218 -1.10157,0 -1.99219,0.89062 -1.99219,1.99218 0,1.10157 0.89062,1.99219 1.99219,1.99219 1.10156,0 1.99218,-0.89062 1.99218,-1.99219 z m 0,0"
       id="path13" />
    <path
       style="fill:#000000;fill-opacity:1;fill-rule:nonzero;stroke:none"
       d="m 278.37109,343.84375 c 0,-1.10156 -0.89062,-1.99609 -1.99218,-1.99609 -1.10157,0 -1.99219,0.89453 -1.99219,1.99609 0,1.09766 0.89062,1.99219 1.99219,1.99219 1.10156,0 1.99218,-0.89453 1.99218,-1.99219 z m 0,0"
       id="path14" />
    <path
       style="fill:#000000;fill-opacity:1;fill-rule:nonzero;stroke:none"
       d="m 278.37109,329.66797 c 0,-1.10156 -0.89062,-1.99219 -1.99218,-1.99219 -1.10157,0 -1.99219,0.89063 -1.99219,1.99219 0,1.10156 0.89062,1.99219 1.99219,1.99219 1.10156,0 1.99218,-0.89063 1.99218,-1.99219 z m 0,0"
       id="path15" />
    <path
       style="fill:#000000;fill-opacity:1;fill-rule:nonzero;stroke:none"
       d="m 278.37109,315.49609 c 0,-1.10156 -0.89062,-1.99218 -1.99218,-1.99218 -1.10157,0 -1.99219,0.89062 -1.99219,1.99218 0,1.09766 0.89062,1.99219 1.99219,1.99219 1.10156,0 1.99218,-0.89453 1.99218,-1.99219 z m 0,0"
       id="path16" />
    <path
       style="fill:#000000;fill-opacity:1;fill-rule:nonzero;stroke:none"
       d="m 292.54297,414.71094 c 0,-1.10157 -0.89063,-1.9961 -1.99219,-1.9961 -1.09766,0 -1.99219,0.89453 -1.99219,1.9961 0,1.09765 0.89453,1.99218 1.99219,1.99218 1.10156,0 1.99219,-0.89453 1.99219,-1.99218 z m 0,0"
       id="path17" />
    <path
       style="fill:#000000;fill-opacity:1;fill-rule:nonzero;stroke:none"
       d="m 292.54297,400.53516 c 0,-1.10157 -0.89063,-1.99219 -1.99219,-1.99219 -1.09766,0 -1.99219,0.89062 -1.99219,1.99219 0,1.10156 0.89453,1.99218 1.99219,1.99218 1.10156,0 1.99219,-0.89062 1.99219,-1.99218 z m 0,0"
       id="path18" />
    <path
       style="fill:#000000;fill-opacity:1;fill-rule:nonzero;stroke:none"
       d="m 292.54297,386.36328 c 0,-1.10156 -0.89063,-1.99219 -1.99219,-1.99219 -1.09766,0 -1.99219,0.89063 -1.99219,1.99219 0,1.09766 0.89453,1.99219 1.99219,1.99219 1.10156,0 1.99219,-0.89453 1.99219,-1.99219 z m 0,0"
       id="path19" />
    <path
       style="fill:#000000;fill-opacity:1;fill-rule:nonzero;stroke:none"
       d="m 292.54297,372.1875 c 0,-1.09766 -0.89063,-1.99219 -1.99219,-1.99219 -1.09766,0 -1.99219,0.89453 -1.99219,1.99219 0,1.10156 0.89453,1.99219 1.99219,1.99219 1.10156,0 1.99219,-0.89063 1.99219,-1.99219 z m 0,0"
       id="path20" />
    <path
       style="fill:#000000;fill-opacity:1;fill-rule:nonzero;stroke:none"
       d="m 292.54297,358.01562 c 0,-1.10156 -0.89063,-1.99218 -1.99219,-1.99218 -1.09766,0 -1.99219,0.89062 -1.99219,1.99218 0,1.10157 0.89453,1.99219 1.99219,1.99219 1.10156,0 1.99219,-0.89062 1.99219,-1.99219 z m 0,0"
       id="path21" />
    <path
       style="fill:#000000;fill-opacity:1;fill-rule:nonzero;stroke:none"
       d="m 292.54297,343.84375 c 0,-1.10156 -0.89063,-1.99609 -1.99219,-1.99609 -1.09766,0 -1.99219,0.89453 -1.99219,1.99609 0,1.09766 0.89453,1.99219 1.99219,1.99219 1.10156,0 1.99219,-0.89453 1.99219,-1.99219 z m 0,0"
       id="path22" />
    <path
       style="fill:#000000;fill-opacity:1;fill-rule:nonzero;stroke:none"
       d="m 292.54297,329.66797 c 0,-1.10156 -0.89063,-1.99219 -1.99219,-1.99219 -1.09766,0 -1.99219,0.89063 -1.99219,1.99219 0,1.10156 0.89453,1.99219 1.99219,1.99219 1.10156,0 1.99219,-0.89063 1.99219,-1.99219 z m 0,0"
       id="path23" />
    <path
       style="fill:#000000;fill-opacity:1;fill-rule:nonzero;stroke:none"
       d="m 292.54297,315.49609 c 0,-1.10156 -0.89063,-1.99218 -1.99219,-1.99218 -1.09766,0 -1.99219,0.89062 -1.99219,1.99218 0,1.09766 0.89453,1.99219 1.99219,1.99219 1.10156,0 1.99219,-0.89453 1.99219,-1.99219 z m 0,0"
       id="path24" />
    <path
       style="fill:#000000;fill-opacity:1;fill-rule:nonzero;stroke:none"
       d="m 306.71875,414.71094 c 0,-1.10157 -0.89453,-1.9961 -1.99219,-1.9961 -1.10156,0 -1.99219,0.89453 -1.99219,1.9961 0,1.09765 0.89063,1.99218 1.99219,1.99218 1.09766,0 1.99219,-0.89453 1.99219,-1.99218 z m 0,0"
       id="path25" />
    <path
       style="fill:#000000;fill-opacity:1;fill-rule:nonzero;stroke:none"
       d="m 306.71875,400.53516 c 0,-1.10157 -0.89453,-1.99219 -1.99219,-1.99219 -1.10156,0 -1.99219,0.89062 -1.99219,1.99219 0,1.10156 0.89063,1.99218 1.99219,1.99218 1.09766,0 1.99219,-0.89062 1.99219,-1.99218 z m 0,0"
       id="path26" />
    <path
       style="fill:#000000;fill-opacity:1;fill-rule:nonzero;stroke:none"
       d="m 306.71875,386.36328 c 0,-1.10156 -0.89453,-1.99219 -1.99219,-1.99219 -1.10156,0 -1.99219,0.89063 -1.99219,1.99219 0,1.09766 0.89063,1.99219 1.99219,1.99219 1.09766,0 1.99219,-0.89453 1.99219,-1.99219 z m 0,0"
       id="path27" />
    <path
       style="fill:#000000;fill-opacity:1;fill-rule:nonzero;stroke:none"
       d="m 306.71875,372.1875 c 0,-1.09766 -0.89453,-1.99219 -1.99219,-1.99219 -1.10156,0 -1.99219,0.89453 -1.99219,1.99219 0,1.10156 0.89063,1.99219 1.99219,1.99219 1.09766,0 1.99219,-0.89063 1.99219,-1.99219 z m 0,0"
       id="path28" />
    <path
       style="fill:#000000;fill-opacity:1;fill-rule:nonzero;stroke:none"
       d="m 306.71875,358.01562 c 0,-1.10156 -0.89453,-1.99218 -1.99219,-1.99218 -1.10156,0 -1.99219,0.89062 -1.99219,1.99218 0,1.10157 0.89063,1.99219 1.99219,1.99219 1.09766,0 1.99219,-0.89062 1.99219,-1.99219 z m 0,0"
       id="path29" />
    <path
       style="fill:#000000;fill-opacity:1;fill-rule:nonzero;stroke:none"
       d="m 306.71875,343.84375 c 0,-1.10156 -0.89453,-1.99609 -1.99219,-1.99609 -1.10156,0 -1.99219,0.89453 -1.99219,1.99609 0,1.09766 0.89063,1.99219 1.99219,1.99219 1.09766,0 1.99219,-0.89453 1.99219,-1.99219 z m 0,0"
       id="path30" />
    <path
       style="fill:#000000;fill-opacity:1;fill-rule:nonzero;stroke:none"
       d="m 306.71875,329.66797 c 0,-1.10156 -0.89453,-1.99219 -1.99219,-1.99219 -1.10156,0 -1.99219,0.89063 -1.99219,1.99219 0,1.10156 0.89063,1.99219 1.99219,1.99219 1.09766,0 1.99219,-0.89063 1.99219,-1.99219 z m 0,0"
       id="path31" />
    <path
       style="fill:#000000;fill-opacity:1;fill-rule:nonzero;stroke:none"
       d="m 306.71875,315.49609 c 0,-1.10156 -0.89453,-1.99218 -1.99219,-1.99218 -1.10156,0 -1.99219,0.89062 -1.99219,1.99218 0,1.09766 0.89063,1.99219 1.99219,1.99219 1.09766,0 1.99219,-0.89453 1.99219,-1.99219 z m 0,0"
       id="path32" />
    <path
       style="fill:#000000;fill-opacity:1;fill-rule:nonzero;stroke:none"
       d="m 320.89062,414.71094 c 0,-1.10157 -0.89062,-1.9961 -1.99218,-1.9961 -1.10157,0 -1.99219,0.89453 -1.99219,1.9961 0,1.09765 0.89062,1.99218 1.99219,1.99218 1.10156,0 1.99218,-0.89453 1.99218,-1.99218 z m 0,0"
       id="path33" />
    <path
       style="fill:#000000;fill-opacity:1;fill-rule:nonzero;stroke:none"
       d="m 320.89062,400.53516 c 0,-1.10157 -0.89062,-1.99219 -1.99218,-1.99219 -1.10157,0 -1.99219,0.89062 -1.99219,1.99219 0,1.10156 0.89062,1.99218 1.99219,1.99218 1.10156,0 1.99218,-0.89062 1.99218,-1.99218 z m 0,0"
       id="path34" />
    <path
       style="fill:#000000;fill-opacity:1;fill-rule:nonzero;stroke:none"
       d="m 320.89062,386.36328 c 0,-1.10156 -0.89062,-1.99219 -1.99218,-1.99219 -1.10157,0 -1.99219,0.89063 -1.99219,1.99219 0,1.09766 0.89062,1.99219 1.99219,1.99219 1.10156,0 1.99218,-0.89453 1.99218,-1.99219 z m 0,0"
       id="path35" />
    <path
       style="fill:#000000;fill-opacity:1;fill-rule:nonzero;stroke:none"
       d="m 320.89062,372.1875 c 0,-1.09766 -0.89062,-1.99219 -1.99218,-1.99219 -1.10157,0 -1.99219,0.89453 -1.99219,1.99219 0,1.10156 0.89062,1.99219 1.99219,1.99219 1.10156,0 1.99218,-0.89063 1.99218,-1.99219 z m 0,0"
       id="path36" />
    <path
       style="fill:#000000;fill-opacity:1;fill-rule:nonzero;stroke:none"
       d="m 320.89062,358.01562 c 0,-1.10156 -0.89062,-1.99218 -1.99218,-1.99218 -1.10157,0 -1.99219,0.89062 -1.99219,1.99218 0,1.10157 0.89062,1.99219 1.99219,1.99219 1.10156,0 1.99218,-0.89062 1.99218,-1.99219 z m 0,0"
       id="path37" />
    <path
       style="fill:#000000;fill-opacity:1;fill-rule:nonzero;stroke:none"
       d="m 320.89062,343.84375 c 0,-1.10156 -0.89062,-1.99609 -1.99218,-1.99609 -1.10157,0 -1.99219,0.89453 -1.99219,1.99609 0,1.09766 0.89062,1.99219 1.99219,1.99219 1.10156,0 1.99218,-0.89453 1.99218,-1.99219 z m 0,0"
       id="path38" />
    <path
       style="fill:#000000;fill-opacity:1;fill-rule:nonzero;stroke:none"
       d="m 320.89062,329.66797 c 0,-1.10156 -0.89062,-1.99219 -1.99218,-1.99219 -1.10157,0 -1.99219,0.89063 -1.99219,1.99219 0,1.10156 0.89062,1.99219 1.99219,1.99219 1.10156,0 1.99218,-0.89063 1.99218,-1.99219 z m 0,0"
       id="path39" />
    <path
       style="fill:#000000;fill-opacity:1;fill-rule:nonzero;stroke:none"
       d="m 320.89062,315.49609 c 0,-1.10156 -0.89062,-1.99218 -1.99218,-1.99218 -1.10157,0 -1.99219,0.89062 -1.99219,1.99218 0,1.09766 0.89062,1.99219 1.99219,1.99219 1.10156,0 1.99218,-0.89453 1.99218,-1.99219 z m 0,0"
       id="path40" />
    <path
       style="fill:#000000;fill-opacity:1;fill-rule:nonzero;stroke:none"
       d="m 335.06641,414.71094 c 0,-1.10157 -0.89454,-1.9961 -1.9961,-1.9961 -1.09765,0 -1.99219,0.89453 -1.99219,1.9961 0,1.09765 0.89454,1.99218 1.99219,1.99218 1.10156,0 1.9961,-0.89453 1.9961,-1.99218 z m 0,0"
       id="path41" />
    <path
       style="fill:#000000;fill-opacity:1;fill-rule:nonzero;stroke:none"
       d="m 335.06641,400.53516 c 0,-1.10157 -0.89454,-1.99219 -1.9961,-1.99219 -1.09765,0 -1.99219,0.89062 -1.99219,1.99219 0,1.10156 0.89454,1.99218 1.99219,1.99218 1.10156,0 1.9961,-0.89062 1.9961,-1.99218 z m 0,0"
       id="path42" />
    <path
       style="fill:#000000;fill-opacity:1;fill-rule:nonzero;stroke:none"
       d="m 335.06641,386.36328 c 0,-1.10156 -0.89454,-1.99219 -1.9961,-1.99219 -1.09765,0 -1.99219,0.89063 -1.99219,1.99219 0,1.09766 0.89454,1.99219 1.99219,1.99219 1.10156,0 1.9961,-0.89453 1.9961,-1.99219 z m 0,0"
       id="path43" />
    <path
       style="fill:#000000;fill-opacity:1;fill-rule:nonzero;stroke:none"
       d="m 335.06641,372.1875 c 0,-1.09766 -0.89454,-1.99219 -1.9961,-1.99219 -1.09765,0 -1.99219,0.89453 -1.99219,1.99219 0,1.10156 0.89454,1.99219 1.99219,1.99219 1.10156,0 1.9961,-0.89063 1.9961,-1.99219 z m 0,0"
       id="path44" />
    <path
       style="fill:#000000;fill-opacity:1;fill-rule:nonzero;stroke:none"
       d="m 335.06641,358.01562 c 0,-1.10156 -0.89454,-1.99218 -1.9961,-1.99218 -1.09765,0 -1.99219,0.89062 -1.99219,1.99218 0,1.10157 0.89454,1.99219 1.99219,1.99219 1.10156,0 1.9961,-0.89062 1.9961,-1.99219 z m 0,0"
       id="path45" />
    <path
       style="fill:#000000;fill-opacity:1;fill-rule:nonzero;stroke:none"
       d="m 335.06641,343.84375 c 0,-1.10156 -0.89454,-1.99609 -1.9961,-1.99609 -1.09765,0 -1.99219,0.89453 -1.99219,1.99609 0,1.09766 0.89454,1.99219 1.99219,1.99219 1.10156,0 1.9961,-0.89453 1.9961,-1.99219 z m 0,0"
       id="path46" />
    <path
       style="fill:#000000;fill-opacity:1;fill-rule:nonzero;stroke:none"
       d="m 335.06641,329.66797 c 0,-1.10156 -0.89454,-1.99219 -1.9961,-1.99219 -1.09765,0 -1.99219,0.89063 -1.99219,1.99219 0,1.10156 0.89454,1.99219 1.99219,1.99219 1.10156,0 1.9961,-0.89063 1.9961,-1.99219 z m 0,0"
       id="path47" />
    <path
       style="fill:#000000;fill-opacity:1;fill-rule:nonzero;stroke:none"
       d="m 335.06641,315.49609 c 0,-1.10156 -0.89454,-1.99218 -1.9961,-1.99218 -1.09765,0 -1.99219,0.89062 -1.99219,1.99218 0,1.09766 0.89454,1.99219 1.99219,1.99219 1.10156,0 1.9961,-0.89453 1.9961,-1.99219 z m 0,0"
       id="path48" />
    <path
       style="fill:none;stroke:#ffde68;stroke-width:1.59404;stroke-linecap:butt;stroke-linejoin:miter;stroke-miterlimit:10;stroke-opacity:1"
       d="M -7.087812,106.29884 V 77.955094 h 28.347656 v 28.343746 z m 0,0"
       transform="matrix(1,0,0,-1,262.205,414.709)"
       id="path49" />
    <path
       style="fill:none;stroke:#6bbf66;stroke-width:1.59404;stroke-linecap:butt;stroke-linejoin:miter;stroke-miterlimit:10;stroke-opacity:1"
       d="M -7.087812,-7.087875 V 21.259781 H 77.955156 V -7.087875 Z m 0,0"
       transform="matrix(1,0,0,-1,262.205,414.709)"
       id="path50" />
    <path
       style="fill:none;stroke:#005ca3;stroke-width:1.59404;stroke-linecap:butt;stroke-linejoin:miter;stroke-miterlimit:10;stroke-opacity:1"
       d="M 35.431719,-7.087875 V 49.607438 H 63.779375 V -7.087875 Z m 0,0"
       transform="matrix(1,0,0,-1,262.205,414.709)"
       id="path51" />
    <path
       style="fill:none;stroke:#00bff3;stroke-width:1.59404;stroke-linecap:butt;stroke-linejoin:miter;stroke-miterlimit:10;stroke-opacity:1"
       d="M -7.087812,92.126969 V 35.431656 h 85.042968 v 56.695313 z m 0,0"
       transform="matrix(1,0,0,-1,262.205,414.709)"
       id="path52" />
    <path
       style="fill:none;stroke:#000000;stroke-width:0.3985;stroke-linecap:butt;stroke-linejoin:miter;stroke-miterlimit:10;stroke-opacity:1"
       d="M -14.17375,-14.173812 V 113.38869 H 85.041094 V -14.173812 Z m 0,0"
       transform="matrix(1,0,0,-1,262.205,414.709)"
       id="path53" />
  </g>
</svg>
