<?xml version="1.0" encoding="UTF-8" standalone="no"?>
<svg
   width="85.441467pt"
   height="85.441467pt"
   viewBox="0 0 85.441467 85.441466"
   version="1.1"
   id="svg2"
   xmlns="http://www.w3.org/2000/svg"
   xmlns:svg="http://www.w3.org/2000/svg">
  <defs
     id="defs2" />
  <g
     id="surface1"
     transform="translate(-254.91794,-322.38278)">
    <path
       style="fill:none;stroke:#000000;stroke-width:0.3985;stroke-linecap:butt;stroke-linejoin:miter;stroke-miterlimit:10;stroke-opacity:1"
       d="m 42.522156,0.0014375 c 0,23.4804685 -19.039062,42.5195315 -42.52343725,42.5195315 -23.48046875,0 -42.51953075,-19.039063 -42.51953075,-42.5195315 0,-23.4843745 19.039062,-42.5234375 42.51953075,-42.5234375 23.48437525,0 42.52343725,19.039063 42.52343725,42.5234375 z m 0,0"
       transform="matrix(1,0,0,-1,297.638,365.103)"
       id="path1" />
    <path
       style="fill:#ff7f7f;fill-opacity:1;fill-rule:nonzero;stroke:none"
       d="m 306.14062,365.10156 c 0,-4.69531 -3.80468,-8.5039 -8.5039,-8.5039 -4.69531,0 -8.50391,3.80859 -8.50391,8.5039 0,4.69922 3.8086,8.50391 8.50391,8.50391 4.69922,0 8.5039,-3.80469 8.5039,-8.50391 z m 0,0"
       id="path2" />
  </g>
</svg>
