<?xml version="1.0" encoding="UTF-8" standalone="no"?>
<svg
   xmlns:dc="http://purl.org/dc/elements/1.1/"
   xmlns:cc="http://creativecommons.org/ns#"
   xmlns:rdf="http://www.w3.org/1999/02/22-rdf-syntax-ns#"
   xmlns:svg="http://www.w3.org/2000/svg"
   xmlns="http://www.w3.org/2000/svg"
   viewBox="0 0 316.54532 57.194668"
   height="57.194668"
   width="316.54532"
   xml:space="preserve"
   id="svg2"
   version="1.1"><metadata
     id="metadata8"><rdf:RDF><cc:Work
         rdf:about=""><dc:format>image/svg+xml</dc:format><dc:type
           rdf:resource="http://purl.org/dc/dcmitype/StillImage" /></cc:Work></rdf:RDF></metadata><defs
     id="defs6" /><g
     transform="matrix(1.3333333,0,0,-1.3333333,0,57.194667)"
     id="g10"><g
       transform="translate(0.199,20.424)"
       id="g12"><g
         id="g14"><g
           id="g16"><path
             id="path18"
             style="fill:none;stroke:#000000;stroke-width:0.3985;stroke-linecap:butt;stroke-linejoin:miter;stroke-miterlimit:10;stroke-dasharray:none;stroke-opacity:1"
             d="M 0.29886,0 H 223.18793" /><g
             transform="rotate(180,0.14943,0)"
             id="g20"><g
               id="g22"><path
                 id="path24"
                 style="fill:none;stroke:#000000;stroke-width:0.3985;stroke-linecap:square;stroke-linejoin:miter;stroke-miterlimit:10;stroke-dasharray:none;stroke-opacity:1"
                 d="M 0.09961,-2.5903 V 2.5903" /></g></g><g
             transform="translate(223.18793)"
             id="g26"><g
               id="g28"><path
                 id="path30"
                 style="fill:#000000;fill-opacity:1;fill-rule:nonzero;stroke:none"
                 d="M 3.58653,0 C 2.52383,0.19925 0.797,0.797 -0.3985,1.49438 V -1.49438 C 0.797,-0.797 2.52383,-0.19925 3.58653,0" /></g></g><g
             id="g32"><g
               transform="translate(230.292,-3.064)"
               id="g34"><g
                 id="g36"><g
                   transform="translate(-230.491,-17.36)"
                   id="g38"><text
                     id="text42"
                     style="font-variant:normal;font-weight:normal;font-size:9.96259975px;font-family:CMMI10;-inkscape-font-specification:CMMI10;writing-mode:lr-tb;fill:#000000;fill-opacity:1;fill-rule:nonzero;stroke:none"
                     transform="matrix(1,0,0,-1,230.491,17.36)"><tspan
                       id="tspan40"
                       y="0"
                       x="0">t</tspan></text>
<g
                     transform="translate(230.491,17.36)"
                     id="g44" /></g></g><g
                 transform="translate(-230.292,3.064)"
                 id="g46" /></g></g><path
             id="path48"
             style="fill:none;stroke:#000000;stroke-width:0.3985;stroke-linecap:butt;stroke-linejoin:miter;stroke-miterlimit:10;stroke-dasharray:none;stroke-opacity:1"
             d="M 113.38724,-5.66927 V 5.66927 M 198.42766,-5.66927 V 5.66927" /><g
             id="g50"><g
               transform="translate(100.22,-15.609)"
               id="g52"><g
                 id="g54"><g
                   transform="translate(-100.419,-4.815)"
                   id="g56"><text
                     id="text60"
                     style="font-variant:normal;font-weight:normal;font-size:9.96259975px;font-family:CMMI10;-inkscape-font-specification:CMMI10;writing-mode:lr-tb;fill:#000000;fill-opacity:1;fill-rule:nonzero;stroke:none"
                     transform="matrix(1,0,0,-1,100.419,4.815)"><tspan
                       id="tspan58"
                       y="0"
                       x="0">t</tspan></text>
<text
                     id="text64"
                     style="font-variant:normal;font-weight:normal;font-size:6.97380018px;font-family:CMR7;-inkscape-font-specification:CMR7;writing-mode:lr-tb;fill:#000000;fill-opacity:1;fill-rule:nonzero;stroke:none"
                     transform="matrix(1,0,0,-1,104.017,3.321)"><tspan
                       id="tspan62"
                       y="0"
                       x="0">1</tspan></text>
<text
                     id="text70"
                     style="font-variant:normal;font-weight:normal;font-size:9.96259975px;font-family:CMR10;-inkscape-font-specification:CMR10;writing-mode:lr-tb;fill:#0000ff;fill-opacity:1;fill-rule:nonzero;stroke:none"
                     transform="matrix(1,0,0,-1,111.253,4.815)"><tspan
                       id="tspan66"
                       y="0"
                       x="0">=</tspan><tspan
                       id="tspan68"
                       y="0"
                       x="10.518513">4</tspan></text>
<g
                     transform="translate(100.419,4.815)"
                     id="g72" /></g></g><g
                 transform="translate(-100.22,15.609)"
                 id="g74" /></g></g><g
             id="g76"><g
               transform="translate(80.358,11.68)"
               id="g78"><g
                 id="g80"><g
                   transform="translate(-80.557,-32.104)"
                   id="g82"><text
                     id="text86"
                     style="font-variant:normal;font-weight:normal;font-size:9.96259975px;font-family:CMMI10;-inkscape-font-specification:CMMI10;writing-mode:lr-tb;fill:#000000;fill-opacity:1;fill-rule:nonzero;stroke:none"
                     transform="matrix(1,0,0,-1,80.557,32.104)"><tspan
                       id="tspan84"
                       y="0"
                       x="0">X</tspan></text>
<text
                     id="text90"
                     style="font-variant:normal;font-weight:normal;font-size:9.96259975px;font-family:CMR10;-inkscape-font-specification:CMR10;writing-mode:lr-tb;fill:#000000;fill-opacity:1;fill-rule:nonzero;stroke:none"
                     transform="matrix(1,0,0,-1,89.593,32.104)"><tspan
                       id="tspan88"
                       y="0"
                       x="0">(</tspan></text>
<text
                     id="text94"
                     style="font-variant:normal;font-weight:normal;font-size:9.96259975px;font-family:CMMI10;-inkscape-font-specification:CMMI10;writing-mode:lr-tb;fill:#000000;fill-opacity:1;fill-rule:nonzero;stroke:none"
                     transform="matrix(1,0,0,-1,93.467,32.104)"><tspan
                       id="tspan92"
                       y="0"
                       x="0">t</tspan></text>
<text
                     id="text98"
                     style="font-variant:normal;font-weight:normal;font-size:6.97380018px;font-family:CMR7;-inkscape-font-specification:CMR7;writing-mode:lr-tb;fill:#000000;fill-opacity:1;fill-rule:nonzero;stroke:none"
                     transform="matrix(1,0,0,-1,97.065,30.61)"><tspan
                       id="tspan96"
                       y="0"
                       x="0">1</tspan></text>
<text
                     id="text102"
                     style="font-variant:normal;font-weight:normal;font-size:9.96259975px;font-family:CMR10;-inkscape-font-specification:CMR10;writing-mode:lr-tb;fill:#000000;fill-opacity:1;fill-rule:nonzero;stroke:none"
                     transform="matrix(1,0,0,-1,101.534,32.104)"><tspan
                       id="tspan100"
                       y="0"
                       x="0 6.6440578">)=</tspan></text>
<text
                     id="text106"
                     style="font-variant:normal;font-weight:normal;font-size:9.96259975px;font-family:CMMI10;-inkscape-font-specification:CMMI10;writing-mode:lr-tb;fill:#000000;fill-opacity:1;fill-rule:nonzero;stroke:none"
                     transform="matrix(1,0,0,-1,118.692,32.104)"><tspan
                       id="tspan104"
                       y="0"
                       x="0">k</tspan></text>
<text
                     id="text110"
                     style="font-variant:normal;font-weight:normal;font-size:6.97380018px;font-family:CMR7;-inkscape-font-specification:CMR7;writing-mode:lr-tb;fill:#000000;fill-opacity:1;fill-rule:nonzero;stroke:none"
                     transform="matrix(1,0,0,-1,123.879,30.61)"><tspan
                       id="tspan108"
                       y="0"
                       x="0">1</tspan></text>
<text
                     id="text116"
                     style="font-variant:normal;font-weight:normal;font-size:9.96259975px;font-family:CMR10;-inkscape-font-specification:CMR10;writing-mode:lr-tb;fill:#0000ff;fill-opacity:1;fill-rule:nonzero;stroke:none"
                     transform="matrix(1,0,0,-1,131.115,32.104)"><tspan
                       id="tspan112"
                       y="0"
                       x="0">=</tspan><tspan
                       id="tspan114"
                       y="0"
                       x="10.518513">5</tspan></text>
<g
                     transform="translate(80.557,32.104)"
                     id="g118" /></g></g><g
                 transform="translate(-80.358,-11.68)"
                 id="g120" /></g></g><g
             id="g122"><g
               transform="translate(185.259,-15.609)"
               id="g124"><g
                 id="g126"><g
                   transform="translate(-185.458,-4.815)"
                   id="g128"><text
                     id="text132"
                     style="font-variant:normal;font-weight:normal;font-size:9.96259975px;font-family:CMMI10;-inkscape-font-specification:CMMI10;writing-mode:lr-tb;fill:#000000;fill-opacity:1;fill-rule:nonzero;stroke:none"
                     transform="matrix(1,0,0,-1,185.458,4.815)"><tspan
                       id="tspan130"
                       y="0"
                       x="0">t</tspan></text>
<text
                     id="text136"
                     style="font-variant:normal;font-weight:normal;font-size:6.97380018px;font-family:CMR7;-inkscape-font-specification:CMR7;writing-mode:lr-tb;fill:#000000;fill-opacity:1;fill-rule:nonzero;stroke:none"
                     transform="matrix(1,0,0,-1,189.056,3.321)"><tspan
                       id="tspan134"
                       y="0"
                       x="0">2</tspan></text>
<text
                     id="text142"
                     style="font-variant:normal;font-weight:normal;font-size:9.96259975px;font-family:CMR10;-inkscape-font-specification:CMR10;writing-mode:lr-tb;fill:#0000ff;fill-opacity:1;fill-rule:nonzero;stroke:none"
                     transform="matrix(1,0,0,-1,196.293,4.815)"><tspan
                       id="tspan138"
                       y="0"
                       x="0">=</tspan><tspan
                       id="tspan140"
                       y="0"
                       x="10.518513">7</tspan></text>
<g
                     transform="translate(185.458,4.815)"
                     id="g144" /></g></g><g
                 transform="translate(-185.259,15.609)"
                 id="g146" /></g></g><g
             id="g148"><g
               transform="translate(165.398,11.68)"
               id="g150"><g
                 id="g152"><g
                   transform="translate(-165.597,-32.104)"
                   id="g154"><text
                     id="text158"
                     style="font-variant:normal;font-weight:normal;font-size:9.96259975px;font-family:CMMI10;-inkscape-font-specification:CMMI10;writing-mode:lr-tb;fill:#000000;fill-opacity:1;fill-rule:nonzero;stroke:none"
                     transform="matrix(1,0,0,-1,165.597,32.104)"><tspan
                       id="tspan156"
                       y="0"
                       x="0">X</tspan></text>
<text
                     id="text162"
                     style="font-variant:normal;font-weight:normal;font-size:9.96259975px;font-family:CMR10;-inkscape-font-specification:CMR10;writing-mode:lr-tb;fill:#000000;fill-opacity:1;fill-rule:nonzero;stroke:none"
                     transform="matrix(1,0,0,-1,174.632,32.104)"><tspan
                       id="tspan160"
                       y="0"
                       x="0">(</tspan></text>
<text
                     id="text166"
                     style="font-variant:normal;font-weight:normal;font-size:9.96259975px;font-family:CMMI10;-inkscape-font-specification:CMMI10;writing-mode:lr-tb;fill:#000000;fill-opacity:1;fill-rule:nonzero;stroke:none"
                     transform="matrix(1,0,0,-1,178.507,32.104)"><tspan
                       id="tspan164"
                       y="0"
                       x="0">t</tspan></text>
<text
                     id="text170"
                     style="font-variant:normal;font-weight:normal;font-size:6.97380018px;font-family:CMR7;-inkscape-font-specification:CMR7;writing-mode:lr-tb;fill:#000000;fill-opacity:1;fill-rule:nonzero;stroke:none"
                     transform="matrix(1,0,0,-1,182.104,30.61)"><tspan
                       id="tspan168"
                       y="0"
                       x="0">2</tspan></text>
<text
                     id="text174"
                     style="font-variant:normal;font-weight:normal;font-size:9.96259975px;font-family:CMR10;-inkscape-font-specification:CMR10;writing-mode:lr-tb;fill:#000000;fill-opacity:1;fill-rule:nonzero;stroke:none"
                     transform="matrix(1,0,0,-1,186.574,32.104)"><tspan
                       id="tspan172"
                       y="0"
                       x="0 6.6440578">)=</tspan></text>
<text
                     id="text178"
                     style="font-variant:normal;font-weight:normal;font-size:9.96259975px;font-family:CMMI10;-inkscape-font-specification:CMMI10;writing-mode:lr-tb;fill:#000000;fill-opacity:1;fill-rule:nonzero;stroke:none"
                     transform="matrix(1,0,0,-1,203.731,32.104)"><tspan
                       id="tspan176"
                       y="0"
                       x="0">k</tspan></text>
<text
                     id="text182"
                     style="font-variant:normal;font-weight:normal;font-size:6.97380018px;font-family:CMR7;-inkscape-font-specification:CMR7;writing-mode:lr-tb;fill:#000000;fill-opacity:1;fill-rule:nonzero;stroke:none"
                     transform="matrix(1,0,0,-1,208.918,30.61)"><tspan
                       id="tspan180"
                       y="0"
                       x="0">2</tspan></text>
<text
                     id="text188"
                     style="font-variant:normal;font-weight:normal;font-size:9.96259975px;font-family:CMR10;-inkscape-font-specification:CMR10;writing-mode:lr-tb;fill:#0000ff;fill-opacity:1;fill-rule:nonzero;stroke:none"
                     transform="matrix(1,0,0,-1,216.155,32.104)"><tspan
                       id="tspan184"
                       y="0"
                       x="0">=</tspan><tspan
                       id="tspan186"
                       y="0"
                       x="10.518513">8</tspan></text>
<g
                     transform="translate(165.597,32.104)"
                     id="g190" /></g></g><g
                 transform="translate(-165.398,-11.68)"
                 id="g192" /></g></g><g
             id="g194"><g
               id="g196"><path
                 id="path198"
                 style="fill:#000000;fill-opacity:1;fill-rule:nonzero;stroke:none"
                 d="m 26.92097,0 c 0,0.77818 -0.63084,1.40903 -1.40904,1.40903 -0.77818,0 -1.40904,-0.63085 -1.40904,-1.40903 0,-0.77818 0.63086,-1.40903 1.40904,-1.40903 0.7782,0 1.40904,0.63085 1.40904,1.40903 z" /></g><g
               transform="translate(25.512)"
               id="g200"><g
                 id="g202" /><g
                 transform="translate(-25.512)"
                 id="g204" /></g></g><g
             id="g206"><g
               id="g208"><path
                 id="path210"
                 style="fill:#000000;fill-opacity:1;fill-rule:nonzero;stroke:none"
                 d="m 35.42511,0 c 0,0.77818 -0.63084,1.40903 -1.40903,1.40903 -0.7782,0 -1.40904,-0.63085 -1.40904,-1.40903 0,-0.77818 0.63084,-1.40903 1.40904,-1.40903 0.77819,0 1.40903,0.63085 1.40903,1.40903 z" /></g><g
               transform="translate(34.016)"
               id="g212"><g
                 id="g214" /><g
                 transform="translate(-34.016)"
                 id="g216" /></g></g><g
             id="g218"><g
               id="g220"><path
                 id="path222"
                 style="fill:#000000;fill-opacity:1;fill-rule:nonzero;stroke:none"
                 d="m 72.27605,0 c 0,0.77818 -0.63085,1.40903 -1.40905,1.40903 -0.77818,0 -1.40904,-0.63085 -1.40904,-1.40903 0,-0.77818 0.63086,-1.40903 1.40904,-1.40903 0.7782,0 1.40905,0.63085 1.40905,1.40903 z" /></g><g
               transform="translate(70.866)"
               id="g224"><g
                 id="g226" /><g
                 transform="translate(-70.866)"
                 id="g228" /></g></g><g
             id="g230"><g
               id="g232"><path
                 id="path234"
                 style="fill:#000000;fill-opacity:1;fill-rule:nonzero;stroke:none"
                 d="m 92.11874,0 c 0,0.77818 -0.63086,1.40903 -1.40904,1.40903 -0.7782,0 -1.40904,-0.63085 -1.40904,-1.40903 0,-0.77818 0.63084,-1.40903 1.40904,-1.40903 0.77818,0 1.40904,0.63085 1.40904,1.40903 z" /></g><g
               transform="translate(90.709)"
               id="g236"><g
                 id="g238" /><g
                 transform="translate(-90.709)"
                 id="g240" /></g></g><g
             id="g242"><g
               id="g244"><path
                 id="path246"
                 style="fill:#000000;fill-opacity:1;fill-rule:nonzero;stroke:none"
                 d="m 103.4577,0 c 0,0.77818 -0.63084,1.40903 -1.40902,1.40903 -0.7782,0 -1.40905,-0.63085 -1.40905,-1.40903 0,-0.77818 0.63085,-1.40903 1.40905,-1.40903 0.77818,0 1.40902,0.63085 1.40902,1.40903 z" /></g><g
               transform="translate(102.048)"
               id="g248"><g
                 id="g250" /><g
                 transform="translate(-102.048)"
                 id="g252" /></g></g><g
             id="g254"><g
               id="g256"><path
                 id="path258"
                 style="fill:#000000;fill-opacity:1;fill-rule:nonzero;stroke:none"
                 d="m 128.96967,0 c 0,0.77818 -0.63085,1.40903 -1.40905,1.40903 -0.77818,0 -1.40904,-0.63085 -1.40904,-1.40903 0,-0.77818 0.63086,-1.40903 1.40904,-1.40903 0.7782,0 1.40905,0.63085 1.40905,1.40903 z" /></g><g
               transform="translate(127.559)"
               id="g260"><g
                 id="g262" /><g
                 transform="translate(-127.559)"
                 id="g264" /></g></g><g
             id="g266"><g
               id="g268"><path
                 id="path270"
                 style="fill:#000000;fill-opacity:1;fill-rule:nonzero;stroke:none"
                 d="m 140.30821,0 c 0,0.77818 -0.63084,1.40903 -1.40904,1.40903 -0.77818,0 -1.40903,-0.63085 -1.40903,-1.40903 0,-0.77818 0.63085,-1.40903 1.40903,-1.40903 0.7782,0 1.40904,0.63085 1.40904,1.40903 z" /></g><g
               transform="translate(138.898)"
               id="g272"><g
                 id="g274" /><g
                 transform="translate(-138.898)"
                 id="g276" /></g></g><g
             id="g278"><g
               id="g280"><path
                 id="path282"
                 style="fill:#000000;fill-opacity:1;fill-rule:nonzero;stroke:none"
                 d="m 177.15916,0 c 0,0.77818 -0.63084,1.40903 -1.40904,1.40903 -0.77818,0 -1.40904,-0.63085 -1.40904,-1.40903 0,-0.77818 0.63086,-1.40903 1.40904,-1.40903 0.7782,0 1.40904,0.63085 1.40904,1.40903 z" /></g><g
               transform="translate(175.748)"
               id="g284"><g
                 id="g286" /><g
                 transform="translate(-175.748)"
                 id="g288" /></g></g></g></g></g></g></svg>