<?xml version="1.0" encoding="UTF-8" standalone="no"?>
<svg
   xmlns:dc="http://purl.org/dc/elements/1.1/"
   xmlns:cc="http://creativecommons.org/ns#"
   xmlns:rdf="http://www.w3.org/1999/02/22-rdf-syntax-ns#"
   xmlns:svg="http://www.w3.org/2000/svg"
   xmlns="http://www.w3.org/2000/svg"
   viewBox="0 0 381.12268 138.944"
   height="138.944"
   width="381.12268"
   xml:space="preserve"
   id="svg2"
   version="1.1"><metadata
     id="metadata8"><rdf:RDF><cc:Work
         rdf:about=""><dc:format>image/svg+xml</dc:format><dc:type
           rdf:resource="http://purl.org/dc/dcmitype/StillImage" /></cc:Work></rdf:RDF></metadata><defs
     id="defs6"><clipPath
       id="clipPath48"
       clipPathUnits="userSpaceOnUse"><path
         id="path46"
         d="M 0,0 H 264.50658 V 85.67899 H 0 Z" /></clipPath></defs><g
     transform="matrix(1.3333333,0,0,-1.3333333,0,138.944)"
     id="g10"><g
       transform="translate(20.941,18.132)"
       id="g12"><g
         id="g14"><g
           id="g16"><g
             id="g18" /><g
             id="g20" /><g
             id="g22"><g
               id="g24" /></g><g
             id="g26" /><g
             id="g28" /><g
             id="g30" /><g
             id="g32" /><g
             transform="translate(-20.941,-18.132)"
             id="g34"><g
               transform="translate(20.941,18.132)"
               id="g36"><g
                 id="g38"><g
                   id="g40"><g
                     id="g42"><g
                       clip-path="url(#clipPath48)"
                       id="g44"><g
                         id="g50"><path
                           id="path52"
                           style="fill:none;stroke:#0000b3;stroke-width:1.19553006;stroke-linecap:butt;stroke-linejoin:miter;stroke-miterlimit:10;stroke-dasharray:none;stroke-opacity:1"
                           d="m 0,70.78104 1.32916,-1.10021 1.32918,-1.09425 1.32918,-1.0883 1.32918,-1.06595 1.32919,-1.0436 1.32916,-1.0354 1.32919,-1.02051 1.32916,-1.00637 1.3292,-0.98325 1.32918,-0.97581 1.32919,-0.95348 1.32916,-0.94601 1.32918,-0.93189 1.32918,-0.9162 1.32919,-0.90133 1.32918,-0.88643 1.32916,-0.87972 1.32918,-0.86407 1.32918,-0.84993 1.32919,-0.83429 1.32918,-0.8261 1.32919,-0.81341 1.32916,-0.7963 1.32918,-0.79034 1.32918,-0.77469 1.32919,-0.76724 1.32918,-0.75236 1.32918,-0.74563 1.32916,-0.73001 1.3292,-0.7151 1.32917,-0.71584 1.32918,-0.69202 1.32918,-0.6935 1.32918,-0.6786 1.32918,-0.66295 1.32917,-0.66223 1.3292,-0.64879 1.32916,-0.63316 1.32919,-0.63318 1.32918,-0.61825 1.32918,-0.61158 1.32918,-0.5959 1.32918,-0.59518 1.32917,-0.58249 1.32919,-0.57283 1.32917,-0.56686 1.32919,-0.55794 1.32916,-0.54528 1.32918,-0.54301 1.32919,-0.52962 1.32918,-0.52815 1.32918,-0.51396 1.32916,-0.50728 1.3292,-0.50653 1.32917,-0.49164 1.3292,-0.48418 1.32916,-0.48417 1.32918,-0.47005 1.32917,-0.46107 1.3292,-0.46259 1.32918,-0.44693 1.32919,-0.44694 1.32916,-0.43949 1.32916,-0.43207 1.3292,-0.42532 1.32917,-0.41713 1.3292,-0.41045 1.32916,-0.40895 1.32918,-0.39404 1.32918,-0.39555 1.32919,-0.38808 1.32918,-0.38736 1.32918,-0.37169 1.32917,-0.37321 1.32918,-0.36426 1.32918,-0.35828 1.32919,-0.35829 1.32916,-0.35009 1.32918,-0.34192 1.3292,-0.33521 1.32916,-0.3352 1.32919,-0.3285 1.32916,-0.32775 1.3292,-0.3203 1.32917,-0.31287 1.32918,-0.3054 1.32918,-0.30615 1.32918,-0.30541 1.32918,-0.28976 1.32919,-0.29126 1.32917,-0.29052 1.32918,-0.28305 1.32917,-0.27562 1.32919,-0.2756 1.32918,-0.26819 1.32918,-0.26889 1.32919,-0.25996 1.32915,-0.26146 1.32919,-0.25328 1.32918,-0.2525 1.32925,-0.24657 1.32906,-0.24583 1.32927,-0.23835 1.32905,-0.23093 1.32927,-0.23835 1.32924,-0.22274 1.32907,-0.2324 1.32926,-0.21602 1.32907,-0.22272 1.32925,-0.21602 1.32926,-0.20857 1.32905,-0.20932 1.32926,-0.20782 1.32907,-0.20113 1.32925,-0.20113 1.32927,-0.19441 1.32904,-0.20112 1.32929,-0.18547 1.32904,-0.18624 1.32928,-0.18696 1.32924,-0.18622 1.32907,-0.17804 1.32925,-0.18029 1.32908,-0.16981 1.32925,-0.17209 1.32924,-0.17131 1.32907,-0.16388 1.32925,-0.16388 1.32908,-0.16461 1.32925,-0.16388 1.32925,-0.15569 1.32906,-0.14971 1.32927,-0.15569 1.32905,-0.14899 1.32928,-0.14897 1.32923,-0.14229 1.32907,-0.14897 1.32926,-0.14152 1.32907,-0.1341 1.32925,-0.14152 1.32926,-0.13408 1.32906,-0.13408 1.32925,-0.1274 1.32907,-0.13406 1.32925,-0.12588 1.32926,-0.11919 1.32905,-0.12665 1.32927,-0.11917 1.32905,-0.11919 1.32928,-0.11918 1.32925,-0.11919 1.32906,-0.11172 1.32925,-0.11275 1.32907,-0.11102 1.32926,-0.10936 1.32927,-0.10772 1.32904,-0.10609 1.32927,-0.10452 1.32905,-0.10295 1.32927,-0.10143 1.32925,-0.09996 1.32906,-0.09839 1.32927,-0.09692 1.32905,-0.09548 1.32928,-0.09401 1.32923,-0.09268 1.32908,-0.09125 1.32925,-0.08992 1.32907,-0.08845 1.32925,-0.08731 1.32926,-0.08592 1.32905,-0.08463 1.32927,-0.08324 1.32906,-0.08213 1.32925,-0.08094 1.32926,-0.07965 1.32905,-0.07849 1.32927,-0.07731 1.32906,-0.07615 1.32927,-0.07501 1.32924,-0.07393 1.32907,-0.07278 1.32925,-0.07169 1.32908,-0.07063 1.32925,-0.06958 1.32925,-0.06854 1.32906,-0.06752 1.32927,-0.06647 1.32905,-0.06549 1.32926,-0.06453 1.32926,-0.06355 1.32905,-0.06261 1.32927,-0.06166 1.32905,-0.06076 1.32927,-0.05983 1.32926,-0.05895 1.32905,-0.05804 1.32927,-0.05719 L 264.50658,0" /></g></g></g><g
                     id="g54"><g
                       id="g56"><path
                         id="path58"
                         style="fill:none;stroke:#808080;stroke-width:0.19925;stroke-linecap:butt;stroke-linejoin:miter;stroke-miterlimit:10;stroke-dasharray:none;stroke-opacity:1"
                         d="M 88.16995,-2.12592 V 2.12592" /></g></g><g
                     id="g60"><g
                       id="g62"><path
                         id="path64"
                         style="fill:none;stroke:#808080;stroke-width:0.19925;stroke-linecap:butt;stroke-linejoin:miter;stroke-miterlimit:10;stroke-dasharray:none;stroke-opacity:1"
                         d="m -2.12585,70.78104 h 4.2517" /></g></g><path
                     id="path66"
                     style="fill:none;stroke:#000000;stroke-width:0.79701;stroke-linecap:butt;stroke-linejoin:miter;stroke-miterlimit:10;stroke-dasharray:none;stroke-opacity:1"
                     d="M 0,0 H 261.9163" /><g
                     transform="translate(261.9163)"
                     id="g68"><g
                       id="g70"><path
                         id="path72"
                         style="fill:#000000;fill-opacity:1;fill-rule:nonzero;stroke:none"
                         d="M 2.59026,0 -1.55415,2.0722 0,0 -1.55415,-2.0722" /></g></g><path
                     id="path74"
                     style="fill:none;stroke:#000000;stroke-width:0.79701;stroke-linecap:butt;stroke-linejoin:miter;stroke-miterlimit:10;stroke-dasharray:none;stroke-opacity:1"
                     d="M 0,0 V 83.08871" /><g
                     transform="rotate(90,-41.544355,41.544355)"
                     id="g76"><g
                       id="g78"><path
                         id="path80"
                         style="fill:#000000;fill-opacity:1;fill-rule:nonzero;stroke:none"
                         d="M 2.59026,0 -1.55415,2.0722 0,0 -1.55415,-2.0722" /></g></g><g
                     id="g82"><g
                       transform="translate(67.758,-12.57)"
                       id="g84"><g
                         id="g86"><g
                           transform="translate(-88.699,-5.562)"
                           id="g88"><text
                             id="text92"
                             style="font-variant:normal;font-weight:normal;font-size:8.96640015px;font-family:CMMI9;-inkscape-font-specification:CMMI9;writing-mode:lr-tb;fill:#000000;fill-opacity:1;fill-rule:nonzero;stroke:none"
                             transform="matrix(1,0,0,-1,88.699,5.562)"><tspan
                               id="tspan90"
                               y="0"
                               x="0">E</tspan></text>
<text
                             id="text96"
                             style="font-variant:normal;font-weight:normal;font-size:8.96640015px;font-family:CMR9;-inkscape-font-specification:CMR9;writing-mode:lr-tb;fill:#000000;fill-opacity:1;fill-rule:nonzero;stroke:none"
                             transform="matrix(1,0,0,-1,95.991,5.562)"><tspan
                               id="tspan94"
                               y="0"
                               x="0">[</tspan></text>
<text
                             id="text100"
                             style="font-variant:normal;font-weight:normal;font-size:8.96640015px;font-family:CMMI9;-inkscape-font-specification:CMMI9;writing-mode:lr-tb;fill:#000000;fill-opacity:1;fill-rule:nonzero;stroke:none"
                             transform="matrix(1,0,0,-1,98.55,5.562)"><tspan
                               id="tspan98"
                               y="0"
                               x="0">Z</tspan></text>
<text
                             id="text104"
                             style="font-variant:normal;font-weight:normal;font-size:8.96640015px;font-family:CMR9;-inkscape-font-specification:CMR9;writing-mode:lr-tb;fill:#000000;fill-opacity:1;fill-rule:nonzero;stroke:none"
                             transform="matrix(1,0,0,-1,105.458,5.562)"><tspan
                               id="tspan102"
                               y="0"
                               x="0 5.1153312 14.847462 19.455296">]=10</tspan></text>
<g
                             transform="translate(88.699,5.562)"
                             id="g106" /></g></g><g
                         transform="translate(-67.758,12.57)"
                         id="g108" /></g></g><g
                     id="g110"><g
                       transform="translate(-17.62,67.891)"
                       id="g112"><g
                         id="g114"><g
                           transform="translate(-3.321,-86.023)"
                           id="g116"><text
                             id="text120"
                             style="font-variant:normal;font-weight:normal;font-size:8.96640015px;font-family:CMR9;-inkscape-font-specification:CMR9;writing-mode:lr-tb;fill:#000000;fill-opacity:1;fill-rule:nonzero;stroke:none"
                             transform="matrix(1,0,0,-1,3.321,86.023)"><tspan
                               id="tspan118"
                               y="0"
                               x="0">0</tspan></text>
<text
                             id="text124"
                             style="font-variant:normal;font-weight:normal;font-size:8.96640015px;font-family:CMMI9;-inkscape-font-specification:CMMI9;writing-mode:lr-tb;fill:#000000;fill-opacity:1;fill-rule:nonzero;stroke:none"
                             transform="matrix(1,0,0,-1,7.928,86.023)"><tspan
                               id="tspan122"
                               y="0"
                               x="0">.</tspan></text>
<text
                             id="text128"
                             style="font-variant:normal;font-weight:normal;font-size:8.96640015px;font-family:CMR9;-inkscape-font-specification:CMR9;writing-mode:lr-tb;fill:#000000;fill-opacity:1;fill-rule:nonzero;stroke:none"
                             transform="matrix(1,0,0,-1,10.488,86.023)"><tspan
                               id="tspan126"
                               y="0"
                               x="0">1</tspan></text>
<g
                             transform="translate(3.321,86.023)"
                             id="g130" /></g></g><g
                         transform="translate(17.62,-67.891)"
                         id="g132" /></g></g><g
                     id="g134"><g
                       transform="translate(255.712,3.719)"
                       id="g136"><g
                         id="g138"><g
                           transform="translate(-276.653,-21.851)"
                           id="g140"><text
                             id="text144"
                             style="font-variant:normal;font-weight:normal;font-size:9.96259975px;font-family:CMMI10;-inkscape-font-specification:CMMI10;writing-mode:lr-tb;fill:#000000;fill-opacity:1;fill-rule:nonzero;stroke:none"
                             transform="matrix(1,0,0,-1,276.653,21.851)"><tspan
                               id="tspan142"
                               y="0"
                               x="0">z</tspan></text>
<g
                             transform="translate(276.653,21.851)"
                             id="g146" /></g></g><g
                         transform="translate(-255.712,-3.719)"
                         id="g148" /></g></g><g
                     id="g150"><g
                       transform="translate(3.719,74.487)"
                       id="g152"><g
                         id="g154"><g
                           transform="translate(-24.66,-92.619)"
                           id="g156"><text
                             id="text160"
                             style="font-variant:normal;font-weight:normal;font-size:9.96259975px;font-family:CMMI10;-inkscape-font-specification:CMMI10;writing-mode:lr-tb;fill:#000000;fill-opacity:1;fill-rule:nonzero;stroke:none"
                             transform="matrix(1,0,0,-1,24.66,92.619)"><tspan
                               id="tspan158"
                               y="0"
                               x="0">f</tspan></text>
<text
                             id="text164"
                             style="font-variant:normal;font-weight:normal;font-size:6.97380018px;font-family:CMMI7;-inkscape-font-specification:CMMI7;writing-mode:lr-tb;fill:#000000;fill-opacity:1;fill-rule:nonzero;stroke:none"
                             transform="matrix(1,0,0,-1,29.537,91.124)"><tspan
                               id="tspan162"
                               y="0"
                               x="0">Z</tspan></text>
<text
                             id="text168"
                             style="font-variant:normal;font-weight:normal;font-size:9.96259975px;font-family:CMR10;-inkscape-font-specification:CMR10;writing-mode:lr-tb;fill:#000000;fill-opacity:1;fill-rule:nonzero;stroke:none"
                             transform="matrix(1,0,0,-1,35.952,92.619)"><tspan
                               id="tspan166"
                               y="0"
                               x="0">(</tspan></text>
<text
                             id="text172"
                             style="font-variant:normal;font-weight:normal;font-size:9.96259975px;font-family:CMMI10;-inkscape-font-specification:CMMI10;writing-mode:lr-tb;fill:#000000;fill-opacity:1;fill-rule:nonzero;stroke:none"
                             transform="matrix(1,0,0,-1,39.826,92.619)"><tspan
                               id="tspan170"
                               y="0"
                               x="0">z</tspan></text>
<text
                             id="text176"
                             style="font-variant:normal;font-weight:normal;font-size:9.96259975px;font-family:CMR10;-inkscape-font-specification:CMR10;writing-mode:lr-tb;fill:#000000;fill-opacity:1;fill-rule:nonzero;stroke:none"
                             transform="matrix(1,0,0,-1,44.898,92.619)"><tspan
                               id="tspan174"
                               y="0"
                               x="0">)</tspan></text>
<g
                             transform="translate(24.66,92.619)"
                             id="g178" /></g></g><g
                         transform="translate(-3.719,-74.487)"
                         id="g180" /></g></g></g></g><g
                 transform="translate(-20.941,-18.132)"
                 id="g182" /></g><g
               transform="translate(20.941,18.132)"
               id="g184" /></g><g
             id="g186" /><g
             id="g188" /></g></g></g></g></svg>