<?xml version="1.0" encoding="UTF-8" standalone="no"?>
<svg
   xmlns:dc="http://purl.org/dc/elements/1.1/"
   xmlns:cc="http://creativecommons.org/ns#"
   xmlns:rdf="http://www.w3.org/1999/02/22-rdf-syntax-ns#"
   xmlns:svg="http://www.w3.org/2000/svg"
   xmlns="http://www.w3.org/2000/svg"
   viewBox="0 0 371.52802 116.376"
   height="116.376"
   width="371.52802"
   xml:space="preserve"
   id="svg2"
   version="1.1"><metadata
     id="metadata8"><rdf:RDF><cc:Work
         rdf:about=""><dc:format>image/svg+xml</dc:format><dc:type
           rdf:resource="http://purl.org/dc/dcmitype/StillImage" /></cc:Work></rdf:RDF></metadata><defs
     id="defs6" /><g
     transform="matrix(1.3333333,0,0,-1.3333333,0,116.376)"
     id="g10"><g
       transform="translate(13.947,1.409)"
       id="g12"><g
         id="g14"><g
           id="g16"><g
             id="g18" /><g
             id="g20" /><g
             id="g22"><g
               id="g24" /></g><g
             id="g26" /><g
             id="g28" /><g
             id="g30" /><g
             id="g32" /><g
             transform="translate(-13.947,-1.409)"
             id="g34"><g
               transform="translate(13.947,1.409)"
               id="g36"><g
                 id="g38"><g
                   id="g40"><g
                     id="g42"><g
                       id="g44"><path
                         id="path46"
                         style="fill:none;stroke:#0033a0;stroke-width:1.19553006;stroke-linecap:butt;stroke-linejoin:miter;stroke-miterlimit:10;stroke-dasharray:none;stroke-opacity:1"
                         d="M 0,0 H 0.30055 0.60112 0.9017 1.20227 1.50284 1.8034 2.10397 2.40456 2.70512 3.00568 3.30626 3.60683 3.90741 4.20798 4.50854 4.80911 5.10968 5.41025 5.71083 6.01138 6.31197 6.61253 6.9131 7.21368 7.51424 7.81482 8.11539 8.41595 8.71652 9.0171 h 0.30056 0.30058 0.30057 0.30058 0.30055 0.30057 0.30059 0.30056 0.30058 0.30056 0.30056 0.30059 0.30056 0.30059 0.30055 0.30057 0.30058 0.30057 0.30057 0.30056 0.30057 0.30058 0.30057 0.30055 0.3006 0.30055 0.30058 0.30057 0.30057 0.30057 0.30057 0.30057 0.30058 0.30057 0.30056 0.30057 0.30057 0.30058 0.30055 0.30059 0.30056 0.30057 0.30059 0.30056 0.30057 0.30057 0.30056 0.30059 0.30055 0.30057 0.30058 0.30057 0.30058 0.30056 0.30056 0.30058 0.30057 0.30059 0.30056 0.30056 0.30058 0.30057 0.30056 0.30057 0.30057 0.30058 0.30057 0.30057 0.30058" /></g><g
                       id="g48"><path
                         id="path50"
                         style="fill:none;stroke:#0033a0;stroke-width:1.19553006;stroke-linecap:butt;stroke-linejoin:miter;stroke-miterlimit:10;stroke-dasharray:none;stroke-opacity:1"
                         d="m 29.7565,9.51947 h 0.10017 0.10019 0.10019 0.10019 0.10019 0.10019 0.10018 0.10018 0.10019 0.10018 0.1002 0.10017 0.10019 0.10019 0.1002 0.10017 0.1002 0.10017 0.10021 0.10017 0.10019 0.10019 0.10018 0.1002 0.10017 0.10021 0.10017 0.10019 0.10019 0.10019 0.10017 0.10021 0.10017 0.10021 0.10017 0.10017 0.10021 0.10017 0.10019 0.10019 0.10019 0.10017 0.10021 0.10017 0.10021 0.10017 0.10021 0.10017 0.10017 0.10021 0.10017 0.10019 0.10019 0.10019 0.10019 0.10019 0.10017 0.10021 0.10017 0.10019 0.10019 0.10017 0.10019 0.10019 0.10019 0.10019 0.10019 0.10019 0.10019 0.10017 0.10021 0.10017 0.1002 0.10018 0.10019 0.10019 0.10017 0.10019 0.10019 0.10019 0.10017 0.10021 0.10017 0.10021 0.10017 0.10019 0.10019 0.10019 0.10019 0.10017 0.10019 0.10019 0.10019 0.10019 0.10019 0.10017 0.1002 0.10018 0.10019" /></g><g
                       id="g52"><path
                         id="path54"
                         style="fill:none;stroke:#0033a0;stroke-width:1.19553006;stroke-linecap:butt;stroke-linejoin:miter;stroke-miterlimit:10;stroke-dasharray:none;stroke-opacity:1"
                         d="m 39.67534,19.03896 h 0.4341 0.43411 0.43411 0.4341 0.43411 0.43413 0.4341 0.43411 0.43411 0.43411 0.43412 0.43411 0.4341 0.43411 0.43413 0.4341 0.4341 0.43412 0.4341 0.43412 0.43412 0.43411 0.4341 0.43413 0.4341 0.4341 0.43412 0.43411 0.4341 0.43412 0.43412 0.43409 0.43413 0.43411 0.4341 0.43411 0.43412 0.43409 0.43413 0.43411 0.4341 0.43411 0.43413 0.43411 0.4341 0.43411 0.43412 0.43411 0.43411 0.43411 0.4341 0.43413 0.43411 0.4341 0.43411 0.43411 0.43412 0.43411 0.43411 0.4341 0.43413 0.43411 0.43409 0.43412 0.43411 0.43411 0.43412 0.43411 0.43411 0.43412 0.43411 0.43411 0.4341 0.43411 0.43411 0.43412 0.43411 0.43411 0.43412 0.4341 0.43412 0.4341 0.43411 0.43411 0.43411 0.43412 0.43411 0.43411 0.43411 0.43412 0.43411 0.4341 0.43411 0.43413 0.43409 0.43412 0.43411 0.43411 0.43411" /></g><g
                       id="g56"><path
                         id="path58"
                         style="fill:none;stroke:#0033a0;stroke-width:1.19553006;stroke-linecap:butt;stroke-linejoin:miter;stroke-miterlimit:10;stroke-dasharray:none;stroke-opacity:1"
                         d="m 82.65695,28.55843 h 0.23377 0.23376 0.23377 0.23378 0.23377 0.23376 0.23377 0.23377 0.23378 0.23376 0.23377 0.23378 0.23376 0.23377 0.23378 0.23376 0.23378 0.23376 0.23377 0.23378 0.23377 0.23376 0.23378 0.23377 0.23377 0.23377 0.23376 0.23378 0.23377 0.23376 0.23378 0.23378 0.23375 0.23378 0.23378 0.23377 0.23376 0.23376 0.23379 0.23378 0.23375 0.23378 0.23376 0.23378 0.23376 0.23377 0.23378 0.23378 0.23375 0.23378 0.23376 0.23378 0.23377 0.23376 0.23378 0.23379 0.23374 0.23378 0.23378 0.23377 0.23376 0.23378 0.23377 0.23378 0.23376 0.23376 0.23378 0.23377 0.23377 0.23377 0.23377 0.23378 0.23375 0.23378 0.23378 0.23377 0.23376 0.23376 0.23378 0.23378 0.23375 0.23378 0.23378 0.23377 0.23376 0.23376 0.23378 0.23378 0.23376 0.23377 0.23378 0.23377 0.23376 0.23378 0.23377 0.23377 0.23377 0.23377 0.23378" /></g><g
                       id="g60"><path
                         id="path62"
                         style="fill:none;stroke:#0033a0;stroke-width:1.19553006;stroke-linecap:butt;stroke-linejoin:miter;stroke-miterlimit:10;stroke-dasharray:none;stroke-opacity:1"
                         d="m 105.8009,38.07791 h 0.13358 0.13357 0.13359 0.1336 0.13359 0.13357 0.13361 0.13357 0.13359 0.13358 0.13359 0.13359 0.13359 0.13359 0.13358 0.13359 0.13357 0.13361 0.13358 0.13359 0.13359 0.13358 0.13358 0.13359 0.13359 0.13359 0.13358 0.13359 0.13359 0.13358 0.13359 0.13359 0.13359 0.13357 0.13361 0.13358 0.13358 0.13358 0.13361 0.13357 0.13359 0.13358 0.13359 0.13359 0.13358 0.1336 0.13358 0.13359 0.13357 0.13361 0.13358 0.13358 0.1336 0.13359 0.13357 0.13359 0.13359 0.13358 0.13359 0.13359 0.13359 0.13358 0.13359 0.13359 0.13359 0.13357 0.13361 0.13358 0.13359 0.13357 0.13361 0.13357 0.13358 0.13361 0.13357 0.13359 0.13358 0.1336 0.13358 0.13359 0.13359 0.13359 0.13358 0.13359 0.13359 0.13357 0.13359 0.13361 0.13357 0.13358 0.13359 0.13359 0.13359 0.13358 0.13359 0.13359 0.13359 0.13358 0.1336" /></g><g
                       id="g64"><path
                         id="path66"
                         style="fill:none;stroke:#0033a0;stroke-width:1.19553006;stroke-linecap:butt;stroke-linejoin:miter;stroke-miterlimit:10;stroke-dasharray:none;stroke-opacity:1"
                         d="m 119.02602,47.59738 h 0.30055 0.30057 0.30058 0.30057 0.30056 0.30057 0.30057 0.30058 0.30057 0.30056 0.30058 0.30056 0.30059 0.30055 0.30057 0.30058 0.30057 0.30058 0.30057 0.30055 0.30058 0.30057 0.30058 0.30056 0.30056 0.30059 0.30056 0.30057 0.30057 0.30056 0.30059 0.30057 0.30056 0.30058 0.30056 0.30058 0.30057 0.30057 0.30057 0.30056 0.30057 0.30058 0.30057 0.30058 0.30056 0.30056 0.30059 0.30056 0.30057 0.30057 0.30057 0.30058 0.30057 0.30056 0.30057 0.30057 0.30058 0.30057 0.30057 0.30057 0.30057 0.30058 0.30056 0.30056 0.30058 0.30057 0.30058 0.30057 0.30055 0.30058 0.30057 0.30057 0.30057 0.30056 0.30059 0.30056 0.30057 0.30058 0.30056 0.30058 0.30057 0.30057 0.30058 0.30055 0.30057 0.30058 0.30057 0.30058 0.30055 0.30057 0.30058 0.30057 0.30058 0.30056 0.30056 0.30059 0.30057 0.30056 0.30057" /></g><g
                       id="g68"><path
                         id="path70"
                         style="fill:none;stroke:#0033a0;stroke-width:1.19553006;stroke-linecap:butt;stroke-linejoin:miter;stroke-miterlimit:10;stroke-dasharray:none;stroke-opacity:1"
                         d="m 148.78252,57.11687 h 0.13357 0.13358 0.1336 0.13358 0.13359 0.13359 0.13359 0.13358 0.13359 0.13359 0.13357 0.13359 0.13361 0.13358 0.13357 0.13359 0.13359 0.13359 0.13358 0.1336 0.13358 0.13359 0.13358 0.1336 0.13358 0.13359 0.13359 0.13357 0.13359 0.13358 0.1336 0.13358 0.13359 0.13359 0.13359 0.13358 0.13359 0.13359 0.13359 0.13358 0.1336 0.13358 0.13357 0.13359 0.13359 0.13359 0.13358 0.13359 0.13359 0.13359 0.13358 0.1336 0.13358 0.13359 0.13358 0.1336 0.13358 0.13357 0.13361 0.13357 0.13359 0.13358 0.13361 0.13357 0.13359 0.13359 0.13359 0.13358 0.13359 0.13359 0.13359 0.13358 0.13359 0.13359 0.13357 0.13359 0.1336 0.13359 0.13357 0.13361 0.13357 0.13359 0.13358 0.1336 0.13358 0.13358 0.1336 0.13359 0.13358 0.13357 0.13361 0.13358 0.13359 0.13359 0.13359 0.13357 0.13359 0.13359 0.13359" /></g><g
                       id="g72"><path
                         id="path74"
                         style="fill:none;stroke:#0033a0;stroke-width:1.19553006;stroke-linecap:butt;stroke-linejoin:miter;stroke-miterlimit:10;stroke-dasharray:none;stroke-opacity:1"
                         d="m 162.00763,66.63634 h 0.43411 0.4341 0.43411 0.43411 0.4341 0.43413 0.43411 0.4341 0.43411 0.43413 0.4341 0.43411 0.43411 0.4341 0.43413 0.43411 0.4341 0.43411 0.43411 0.43413 0.4341 0.43411 0.43411 0.43411 0.43412 0.43411 0.43409 0.43412 0.43411 0.43411 0.43412 0.43411 0.43411 0.43412 0.4341 0.4341 0.43412 0.43411 0.43411 0.43412 0.43411 0.43411 0.43412 0.4341 0.43412 0.4341 0.43411 0.43413 0.43409 0.43412 0.43411 0.43411 0.43411 0.43412 0.43409 0.43412 0.43412 0.4341 0.43411 0.43412 0.43411 0.43411 0.43411 0.43412 0.43409 0.43413 0.43411 0.4341 0.43411 0.43413 0.4341 0.43411 0.43411 0.4341 0.43411 0.43413 0.4341 0.43411 0.43413 0.4341 0.43411 0.43411 0.4341 0.43411 0.43413 0.4341 0.43411 0.43413 0.43411 0.43409 0.43412 0.43411 0.4341 0.43413 0.43411 0.4341 0.43411 0.43412 0.4341" /></g><g
                       id="g76"><path
                         id="path78"
                         style="fill:none;stroke:#0033a0;stroke-width:1.19553006;stroke-linecap:butt;stroke-linejoin:miter;stroke-miterlimit:10;stroke-dasharray:none;stroke-opacity:1"
                         d="m 204.98924,76.15582 h 0.26717 0.26715 0.26718 0.26715 0.26718 0.26717 0.26716 0.26717 0.26717 0.26716 0.26717 0.26717 0.26718 0.26715 0.26718 0.26715 0.26718 0.26715 0.26718 0.26717 0.26717 0.26716 0.26717 0.26717 0.26716 0.26717 0.26718 0.26715 0.26718 0.26715 0.26718 0.26715 0.26719 0.26716 0.26717 0.26716 0.26717 0.26717 0.26716 0.26717 0.26716 0.26717 0.26718 0.26715 0.26718 0.26716 0.26718 0.26715 0.26718 0.26717 0.26716 0.26717 0.26717 0.26716 0.26717 0.26716 0.26718 0.26715 0.26718 0.26716 0.26718 0.26715 0.26718 0.26717 0.26716 0.26717 0.26716 0.26717 0.26717 0.26716 0.26718 0.26716 0.26718 0.26715 0.26718 0.26715 0.26718 0.26715 0.26718 0.26717 0.26717 0.26716 0.26717 0.26716 0.26717 0.26716 0.26717 0.26717 0.26716 0.26717 0.26717 0.26716 0.26717 0.26718 0.26715 0.26718 0.26715 0.26719 0.26716" /></g><g
                       id="g80"><path
                         id="path82"
                         style="fill:none;stroke:#808080;stroke-width:0.3985;stroke-linecap:butt;stroke-linejoin:miter;stroke-miterlimit:10;stroke-dasharray:2.98883, 2.98883;stroke-dashoffset:0;stroke-opacity:1"
                         d="M 29.7565,0 V 9.51947 M 39.67534,0 V 19.03896 M 82.65695,0 V 28.55843 M 105.8009,0 V 38.07791 M 119.02602,0 V 47.59738 M 148.78252,0 V 57.11687 M 162.00763,0 V 66.63634 M 204.98924,0 v 76.15582" /><g
                         id="g84"><g
                           id="g86"><path
                             id="path88"
                             style="fill:#000000;fill-opacity:1;fill-rule:nonzero;stroke:none"
                             d="m 31.16554,0 c 0,0.77818 -0.63086,1.40903 -1.40904,1.40903 -0.7782,0 -1.40904,-0.63085 -1.40904,-1.40903 0,-0.77818 0.63084,-1.40903 1.40904,-1.40903 0.77818,0 1.40904,0.63085 1.40904,1.40903 z" /></g><g
                           transform="translate(29.757)"
                           id="g90"><g
                             id="g92" /><g
                             transform="translate(-29.757)"
                             id="g94" /></g></g><g
                         id="g96"><g
                           id="g98"><path
                             id="path100"
                             style="fill:#000000;fill-opacity:1;fill-rule:nonzero;stroke:none"
                             d="m 41.08437,0 c 0,0.77818 -0.63085,1.40903 -1.40903,1.40903 -0.7782,0 -1.40904,-0.63085 -1.40904,-1.40903 0,-0.77818 0.63084,-1.40903 1.40904,-1.40903 0.77818,0 1.40903,0.63085 1.40903,1.40903 z" /></g><g
                           transform="translate(39.675)"
                           id="g102"><g
                             id="g104" /><g
                             transform="translate(-39.675)"
                             id="g106" /></g></g><g
                         id="g108"><g
                           id="g110"><path
                             id="path112"
                             style="fill:#000000;fill-opacity:1;fill-rule:nonzero;stroke:none"
                             d="m 84.066,0 c 0,0.77818 -0.63087,1.40903 -1.40905,1.40903 -0.7782,0 -1.40904,-0.63085 -1.40904,-1.40903 0,-0.77818 0.63084,-1.40903 1.40904,-1.40903 0.77818,0 1.40905,0.63085 1.40905,1.40903 z" /></g><g
                           transform="translate(82.656)"
                           id="g114"><g
                             id="g116" /><g
                             transform="translate(-82.656)"
                             id="g118" /></g></g><g
                         id="g120"><g
                           id="g122"><path
                             id="path124"
                             style="fill:#000000;fill-opacity:1;fill-rule:nonzero;stroke:none"
                             d="m 107.20995,0 c 0,0.77818 -0.63086,1.40903 -1.40905,1.40903 -0.7782,0 -1.40904,-0.63085 -1.40904,-1.40903 0,-0.77818 0.63084,-1.40903 1.40904,-1.40903 0.77819,0 1.40905,0.63085 1.40905,1.40903 z" /></g><g
                           transform="translate(105.8)"
                           id="g126"><g
                             id="g128" /><g
                             transform="translate(-105.8)"
                             id="g130" /></g></g><g
                         id="g132"><g
                           id="g134"><path
                             id="path136"
                             style="fill:#000000;fill-opacity:1;fill-rule:nonzero;stroke:none"
                             d="m 120.43506,0 c 0,0.77818 -0.63086,1.40903 -1.40904,1.40903 -0.7782,0 -1.40905,-0.63085 -1.40905,-1.40903 0,-0.77818 0.63085,-1.40903 1.40905,-1.40903 0.77818,0 1.40904,0.63085 1.40904,1.40903 z" /></g><g
                           transform="translate(119.025)"
                           id="g138"><g
                             id="g140" /><g
                             transform="translate(-119.025)"
                             id="g142" /></g></g><g
                         id="g144"><g
                           id="g146"><path
                             id="path148"
                             style="fill:#000000;fill-opacity:1;fill-rule:nonzero;stroke:none"
                             d="m 150.19156,0 c 0,0.77818 -0.63086,1.40903 -1.40904,1.40903 -0.7782,0 -1.40905,-0.63085 -1.40905,-1.40903 0,-0.77818 0.63085,-1.40903 1.40905,-1.40903 0.77818,0 1.40904,0.63085 1.40904,1.40903 z" /></g><g
                           transform="translate(148.781)"
                           id="g150"><g
                             id="g152" /><g
                             transform="translate(-148.781)"
                             id="g154" /></g></g><g
                         id="g156"><g
                           id="g158"><path
                             id="path160"
                             style="fill:#000000;fill-opacity:1;fill-rule:nonzero;stroke:none"
                             d="m 163.41667,0 c 0,0.77818 -0.63086,1.40903 -1.40904,1.40903 -0.7782,0 -1.40904,-0.63085 -1.40904,-1.40903 0,-0.77818 0.63084,-1.40903 1.40904,-1.40903 0.77818,0 1.40904,0.63085 1.40904,1.40903 z" /></g><g
                           transform="translate(162.006)"
                           id="g162"><g
                             id="g164" /><g
                             transform="translate(-162.006)"
                             id="g166" /></g></g><g
                         id="g168"><g
                           id="g170"><path
                             id="path172"
                             style="fill:#000000;fill-opacity:1;fill-rule:nonzero;stroke:none"
                             d="m 206.39828,0 c 0,0.77818 -0.63084,1.40903 -1.40904,1.40903 -0.77818,0 -1.40904,-0.63085 -1.40904,-1.40903 0,-0.77818 0.63086,-1.40903 1.40904,-1.40903 0.7782,0 1.40904,0.63085 1.40904,1.40903 z" /></g><g
                           transform="translate(204.987)"
                           id="g174"><g
                             id="g176" /><g
                             transform="translate(-204.987)"
                             id="g178" /></g></g></g><g
                       id="g180"><g
                         transform="translate(9.243,5.014)"
                         id="g182"><g
                           id="g184"><g
                             transform="translate(-23.19,-6.423)"
                             id="g186"><text
                               id="text190"
                               style="font-variant:normal;font-weight:normal;font-size:9.96259975px;font-family:CMMI10;-inkscape-font-specification:CMMI10;writing-mode:lr-tb;fill:#000000;fill-opacity:1;fill-rule:nonzero;stroke:none"
                               transform="matrix(1,0,0,-1,23.19,6.423)"><tspan
                                 id="tspan188"
                                 y="0"
                                 x="0">Z</tspan></text>
<text
                               id="text194"
                               style="font-variant:normal;font-weight:normal;font-size:6.97380018px;font-family:CMR7;-inkscape-font-specification:CMR7;writing-mode:lr-tb;fill:#000000;fill-opacity:1;fill-rule:nonzero;stroke:none"
                               transform="matrix(1,0,0,-1,29.991,4.929)"><tspan
                                 id="tspan192"
                                 y="0"
                                 x="0">1</tspan></text>
<g
                               transform="translate(23.19,6.423)"
                               id="g196" /></g></g><g
                           transform="translate(-9.243,-5.014)"
                           id="g198" /></g></g><g
                       id="g200"><g
                         transform="translate(55.531,24.053)"
                         id="g202"><g
                           id="g204"><g
                             transform="translate(-69.478,-25.462)"
                             id="g206"><text
                               id="text210"
                               style="font-variant:normal;font-weight:normal;font-size:9.96259975px;font-family:CMMI10;-inkscape-font-specification:CMMI10;writing-mode:lr-tb;fill:#000000;fill-opacity:1;fill-rule:nonzero;stroke:none"
                               transform="matrix(1,0,0,-1,69.478,25.462)"><tspan
                                 id="tspan208"
                                 y="0"
                                 x="0">Z</tspan></text>
<text
                               id="text214"
                               style="font-variant:normal;font-weight:normal;font-size:6.97380018px;font-family:CMR7;-inkscape-font-specification:CMR7;writing-mode:lr-tb;fill:#000000;fill-opacity:1;fill-rule:nonzero;stroke:none"
                               transform="matrix(1,0,0,-1,76.279,23.967)"><tspan
                                 id="tspan212"
                                 y="0"
                                 x="0">3</tspan></text>
<g
                               transform="translate(69.478,25.462)"
                               id="g216" /></g></g><g
                           transform="translate(-55.531,-24.053)"
                           id="g218" /></g></g><g
                       id="g220"><g
                         transform="translate(88.593,33.572)"
                         id="g222"><g
                           id="g224"><g
                             transform="translate(-102.54,-34.981)"
                             id="g226"><text
                               id="text230"
                               style="font-variant:normal;font-weight:normal;font-size:9.96259975px;font-family:CMMI10;-inkscape-font-specification:CMMI10;writing-mode:lr-tb;fill:#000000;fill-opacity:1;fill-rule:nonzero;stroke:none"
                               transform="matrix(1,0,0,-1,102.54,34.981)"><tspan
                                 id="tspan228"
                                 y="0"
                                 x="0">Z</tspan></text>
<text
                               id="text234"
                               style="font-variant:normal;font-weight:normal;font-size:6.97380018px;font-family:CMR7;-inkscape-font-specification:CMR7;writing-mode:lr-tb;fill:#000000;fill-opacity:1;fill-rule:nonzero;stroke:none"
                               transform="matrix(1,0,0,-1,109.341,33.487)"><tspan
                                 id="tspan232"
                                 y="0"
                                 x="0">4</tspan></text>
<g
                               transform="translate(102.54,34.981)"
                               id="g236" /></g></g><g
                           transform="translate(-88.593,-33.572)"
                           id="g238" /></g></g><g
                       id="g240"><g
                         transform="translate(177.861,71.65)"
                         id="g242"><g
                           id="g244"><g
                             transform="translate(-191.808,-73.059)"
                             id="g246"><text
                               id="text250"
                               style="font-variant:normal;font-weight:normal;font-size:9.96259975px;font-family:CMMI10;-inkscape-font-specification:CMMI10;writing-mode:lr-tb;fill:#000000;fill-opacity:1;fill-rule:nonzero;stroke:none"
                               transform="matrix(1,0,0,-1,191.808,73.059)"><tspan
                                 id="tspan248"
                                 y="0"
                                 x="0">Z</tspan></text>
<text
                               id="text254"
                               style="font-variant:normal;font-weight:normal;font-size:6.97380018px;font-family:CMR7;-inkscape-font-specification:CMR7;writing-mode:lr-tb;fill:#000000;fill-opacity:1;fill-rule:nonzero;stroke:none"
                               transform="matrix(1,0,0,-1,198.609,71.564)"><tspan
                                 id="tspan252"
                                 y="0"
                                 x="0">8</tspan></text>
<g
                               transform="translate(191.808,73.059)"
                               id="g256" /></g></g><g
                           transform="translate(-177.861,-71.65)"
                           id="g258" /></g></g></g><g
                     id="g260"><g
                       id="g262" /></g><g
                     id="g264"><g
                       id="g266"><path
                         id="path268"
                         style="fill:none;stroke:#808080;stroke-width:0.19925;stroke-linecap:butt;stroke-linejoin:miter;stroke-miterlimit:10;stroke-dasharray:none;stroke-opacity:1"
                         d="M -2.1259,19.03896 H 2.1259 M -2.1259,38.07791 H 2.1259 M -2.1259,57.11687 H 2.1259 M -2.1259,76.15582 H 2.1259" /></g></g><path
                     id="path270"
                     style="fill:none;stroke:#000000;stroke-width:0.3985;stroke-linecap:butt;stroke-linejoin:miter;stroke-miterlimit:10;stroke-dasharray:none;stroke-opacity:1"
                     d="M 0,0 H 262.50974" /><g
                     transform="translate(262.50974)"
                     id="g272"><g
                       id="g274"><path
                         id="path276"
                         style="fill:#000000;fill-opacity:1;fill-rule:nonzero;stroke:none"
                         d="M 1.99252,0 -1.19551,1.59401 0,0 -1.19551,-1.59401" /></g></g><path
                     id="path278"
                     style="fill:none;stroke:#000000;stroke-width:0.3985;stroke-linecap:butt;stroke-linejoin:miter;stroke-miterlimit:10;stroke-dasharray:none;stroke-opacity:1"
                     d="M 0,0 V 83.68279" /><g
                     transform="rotate(90,-41.841395,41.841395)"
                     id="g280"><g
                       id="g282"><path
                         id="path284"
                         style="fill:#000000;fill-opacity:1;fill-rule:nonzero;stroke:none"
                         d="M 1.99252,0 -1.19551,1.59401 0,0 -1.19551,-1.59401" /></g></g><g
                     id="g286"><g
                       transform="translate(-10.627,15.829)"
                       id="g288"><g
                         id="g290"><g
                           transform="translate(-3.32,-17.238)"
                           id="g292"><text
                             id="text296"
                             style="font-variant:normal;font-weight:normal;font-size:9.96259975px;font-family:CMR10;-inkscape-font-specification:CMR10;writing-mode:lr-tb;fill:#000000;fill-opacity:1;fill-rule:nonzero;stroke:none"
                             transform="matrix(1,0,0,-1,3.32,17.238)"><tspan
                               id="tspan294"
                               y="0"
                               x="0">2</tspan></text>
<g
                             transform="translate(3.32,17.238)"
                             id="g298" /></g></g><g
                         transform="translate(10.627,-15.829)"
                         id="g300" /></g></g><g
                     id="g302"><g
                       transform="translate(-10.627,34.867)"
                       id="g304"><g
                         id="g306"><g
                           transform="translate(-3.32,-36.276)"
                           id="g308"><text
                             id="text312"
                             style="font-variant:normal;font-weight:normal;font-size:9.96259975px;font-family:CMR10;-inkscape-font-specification:CMR10;writing-mode:lr-tb;fill:#000000;fill-opacity:1;fill-rule:nonzero;stroke:none"
                             transform="matrix(1,0,0,-1,3.32,36.276)"><tspan
                               id="tspan310"
                               y="0"
                               x="0">4</tspan></text>
<g
                             transform="translate(3.32,36.276)"
                             id="g314" /></g></g><g
                         transform="translate(10.627,-34.867)"
                         id="g316" /></g></g><g
                     id="g318"><g
                       transform="translate(-10.627,53.906)"
                       id="g320"><g
                         id="g322"><g
                           transform="translate(-3.32,-55.315)"
                           id="g324"><text
                             id="text328"
                             style="font-variant:normal;font-weight:normal;font-size:9.96259975px;font-family:CMR10;-inkscape-font-specification:CMR10;writing-mode:lr-tb;fill:#000000;fill-opacity:1;fill-rule:nonzero;stroke:none"
                             transform="matrix(1,0,0,-1,3.32,55.315)"><tspan
                               id="tspan326"
                               y="0"
                               x="0">6</tspan></text>
<g
                             transform="translate(3.32,55.315)"
                             id="g330" /></g></g><g
                         transform="translate(10.627,-53.906)"
                         id="g332" /></g></g><g
                     id="g334"><g
                       transform="translate(-10.627,72.945)"
                       id="g336"><g
                         id="g338"><g
                           transform="translate(-3.32,-74.354)"
                           id="g340"><text
                             id="text344"
                             style="font-variant:normal;font-weight:normal;font-size:9.96259975px;font-family:CMR10;-inkscape-font-specification:CMR10;writing-mode:lr-tb;fill:#000000;fill-opacity:1;fill-rule:nonzero;stroke:none"
                             transform="matrix(1,0,0,-1,3.32,74.354)"><tspan
                               id="tspan342"
                               y="0"
                               x="0">8</tspan></text>
<g
                             transform="translate(3.32,74.354)"
                             id="g346" /></g></g><g
                         transform="translate(10.627,-72.945)"
                         id="g348" /></g></g><g
                     id="g350"><g
                       transform="translate(257.382,3.52)"
                       id="g352"><g
                         id="g354"><g
                           transform="translate(-271.329,-4.929)"
                           id="g356"><text
                             id="text360"
                             style="font-variant:normal;font-weight:normal;font-size:9.96259975px;font-family:CMMI10;-inkscape-font-specification:CMMI10;writing-mode:lr-tb;fill:#000000;fill-opacity:1;fill-rule:nonzero;stroke:none"
                             transform="matrix(1,0,0,-1,271.329,4.929)"><tspan
                               id="tspan358"
                               y="0"
                               x="0">t</tspan></text>
<g
                             transform="translate(271.329,4.929)"
                             id="g362" /></g></g><g
                         transform="translate(-257.382,-3.52)"
                         id="g364" /></g></g><g
                     id="g366"><g
                       transform="translate(3.52,74.682)"
                       id="g368"><g
                         id="g370"><g
                           transform="translate(-17.467,-76.091)"
                           id="g372"><text
                             id="text376"
                             style="font-variant:normal;font-weight:normal;font-size:9.96259975px;font-family:CMMI10;-inkscape-font-specification:CMMI10;writing-mode:lr-tb;fill:#000000;fill-opacity:1;fill-rule:nonzero;stroke:none"
                             transform="matrix(1,0,0,-1,17.467,76.091)"><tspan
                               id="tspan374"
                               y="0"
                               x="0">x</tspan></text>
<text
                             id="text380"
                             style="font-variant:normal;font-weight:normal;font-size:9.96259975px;font-family:CMR10;-inkscape-font-specification:CMR10;writing-mode:lr-tb;fill:#000000;fill-opacity:1;fill-rule:nonzero;stroke:none"
                             transform="matrix(1,0,0,-1,23.161,76.091)"><tspan
                               id="tspan378"
                               y="0"
                               x="0">(</tspan></text>
<text
                             id="text384"
                             style="font-variant:normal;font-weight:normal;font-size:9.96259975px;font-family:CMMI10;-inkscape-font-specification:CMMI10;writing-mode:lr-tb;fill:#000000;fill-opacity:1;fill-rule:nonzero;stroke:none"
                             transform="matrix(1,0,0,-1,27.035,76.091)"><tspan
                               id="tspan382"
                               y="0"
                               x="0">t</tspan></text>
<text
                             id="text388"
                             style="font-variant:normal;font-weight:normal;font-size:9.96259975px;font-family:CMR10;-inkscape-font-specification:CMR10;writing-mode:lr-tb;fill:#000000;fill-opacity:1;fill-rule:nonzero;stroke:none"
                             transform="matrix(1,0,0,-1,30.633,76.091)"><tspan
                               id="tspan386"
                               y="0"
                               x="0">)</tspan></text>
<g
                             transform="translate(17.467,76.091)"
                             id="g390" /></g></g><g
                         transform="translate(-3.52,-74.682)"
                         id="g392" /></g></g></g></g><g
                 transform="translate(-13.947,-1.409)"
                 id="g394" /></g><g
               transform="translate(13.947,1.409)"
               id="g396" /></g><g
             id="g398" /><g
             id="g400" /></g></g></g></g></svg>