<?xml version="1.0" encoding="UTF-8" standalone="no"?>
<!-- Created with Inkscape (http://www.inkscape.org/) -->

<svg
   version="1.1"
   id="svg1"
   width="116.86933"
   height="63.956001"
   viewBox="0 0 116.86933 63.956001"
   xmlns="http://www.w3.org/2000/svg"
   xmlns:svg="http://www.w3.org/2000/svg">
  <defs
     id="defs1" />
  <g
     id="g1">
    <path
       id="path1"
       d="M 0,0 V 29.764 H 29.764 V 0 Z"
       style="fill:none;stroke:#00a0e2;stroke-width:1.19553;stroke-linecap:butt;stroke-linejoin:miter;stroke-miterlimit:10;stroke-dasharray:none;stroke-opacity:1"
       transform="matrix(1.3333333,0,0,-1.3333333,38.592,51.82)" />
    <g
       id="g2"
       aria-label="T(X)"
       transform="matrix(1.3333333,0,0,1.3333333,42.441333,35.298667)">
      <path
         id="path2"
         d="m 4.2539609,-6.0482187 c 0.070312,-0.28125 0.1054688,-0.3398438 0.234375,-0.3632813 0.082031,-0.023437 0.4101563,-0.023437 0.6210938,-0.023437 1.0078125,0 1.453125,0.035156 1.453125,0.8203125 0,0.140625 -0.035156,0.5273438 -0.082031,0.796875 0,0.035156 -0.023437,0.1523438 -0.023437,0.1875 0,0.058594 0.023437,0.1289063 0.1171875,0.1289063 0.1054688,0 0.1289063,-0.082031 0.1523438,-0.234375 l 0.2695312,-1.734375 c 0.011719,-0.035156 0.011719,-0.140625 0.011719,-0.1640625 0,-0.1054688 -0.09375,-0.1054688 -0.2695313,-0.1054688 H 1.2188047 c -0.24609376,0 -0.25781251,0 -0.31640626,0.1992188 L 0.30474219,-4.794312 c -0.0117188,0.023437 -0.0703125,0.1640625 -0.0703125,0.1757813 0,0.070312 0.0585938,0.1171875 0.12890625,0.1171875 0.09375,0 0.10546875,-0.046875 0.1640625,-0.2109375 C 1.0664609,-6.2591557 1.3242734,-6.434937 2.8008359,-6.434937 h 0.3867188 c 0.28125,0 0.28125,0.035156 0.28125,0.1171875 0,0.058594 -0.035156,0.1757813 -0.046875,0.2109375 L 2.0977109,-0.7865 c -0.09375,0.36328125 -0.1289062,0.48046875 -1.19531246,0.48046875 -0.3515625,0 -0.41015625,0 -0.41015625,0.1875 0,0.1171875 0.10546875,0.1171875 0.1640625,0.1171875 0.26953125,0 0.55078121,-0.0234375 0.82031251,-0.0234375 0.28125,0 0.5625,-0.01171875 0.84375,-0.01171875 0.28125,0 0.5625,0.01171875 0.8320312,0.01171875 0.28125,0 0.5859375,0.0234375 0.8671875,0.0234375 0.09375,0 0.2109375,0 0.2109375,-0.19921875 0,-0.10546875 -0.082031,-0.10546875 -0.3398437,-0.10546875 -0.2460938,0 -0.375,0 -0.6328125,-0.0234375 C 2.9648984,-0.364625 2.8945859,-0.3880625 2.8945859,-0.552125 c 0,-0.0117188 0,-0.0585938 0.035156,-0.2109375 z m 0,0"
         style="fill:#000000;fill-opacity:1;fill-rule:nonzero;stroke:none" />
      <path
         id="path3"
         d="m 10.500055,2.3892813 c 0,-0.035156 0,-0.046875 -0.164063,-0.2226563 -1.2421873,-1.25390625 -1.5703123,-3.12890625 -1.5703123,-4.6640625 0,-1.7226562 0.3867187,-3.4570312 1.6054683,-4.7109375 0.128907,-0.1171875 0.128907,-0.1289062 0.128907,-0.1640625 0,-0.070312 -0.03516,-0.1054687 -0.09375,-0.1054687 -0.105469,0 -0.9960941,0.6796875 -1.5820316,1.9453125 -0.515625,1.1015625 -0.6328125,2.203125 -0.6328125,3.0351562 0,0.7851563 0.1171875,1.9921875 0.65625,3.1171875 0.5976563,1.21875 1.4531251,1.875 1.5585941,1.875 0.05859,0 0.09375,-0.035156 0.09375,-0.1054687 z m 0,0"
         style="fill:#000000;fill-opacity:1;fill-rule:nonzero;stroke:none" />
      <path
         id="path4"
         d="M 15.908258,-4.0911875 15.076227,-6.083375 c -0.03516,-0.070312 -0.04687,-0.1171875 -0.04687,-0.1289062 0,-0.058594 0.164062,-0.2460938 0.585937,-0.28125 0.09375,-0.011719 0.199219,-0.023437 0.199219,-0.1875 0,-0.1289063 -0.117188,-0.1289063 -0.152344,-0.1289063 -0.410156,0 -0.832031,0.035156 -1.253906,0.035156 -0.246094,0 -0.867188,-0.035156 -1.113281,-0.035156 -0.05859,0 -0.1875,0 -0.1875,0.1992188 0,0.1171875 0.105468,0.1171875 0.234375,0.1171875 0.597656,0 0.65625,0.09375 0.75,0.3164062 l 1.171875,2.7773438 -2.097657,2.2617187 -0.128906,0.1054688 c -0.492187,0.5273437 -0.960937,0.6914062 -1.464844,0.72656245 -0.128906,0 -0.222656,0 -0.222656,0.19921875 0,0 0,0.10546875 0.128906,0.10546875 0.304688,0 0.632813,-0.03515625 0.9375,-0.03515625 0.363282,0 0.761719,0.03515625 1.113282,0.03515625 0.05859,0 0.175781,0 0.175781,-0.19921875 0,-0.10546875 -0.09375,-0.10546875 -0.117188,-0.10546875 -0.08203,-0.0117188 -0.398437,-0.0351563 -0.398437,-0.31640625 0,-0.15234375 0.152344,-0.31640625 0.269531,-0.4453125 l 1.019531,-1.078125 0.890625,-0.9726562 1.007813,2.3789062 c 0.04687,0.10546875 0.04687,0.1171875 0.04687,0.140625 0,0.0820313 -0.1875,0.24609375 -0.574219,0.29296875 -0.105469,0 -0.199219,0.0117188 -0.199219,0.1875 0,0.1171875 0.117188,0.1171875 0.152344,0.1171875 0.28125,0 0.972656,-0.03515625 1.253906,-0.03515625 0.246094,0 0.855469,0.03515625 1.101563,0.03515625 0.07031,0 0.199219,0 0.199219,-0.1875 0,-0.1171875 -0.105469,-0.1171875 -0.1875,-0.1171875 -0.667969,-0.0117188 -0.679688,-0.046875 -0.855469,-0.4453125 C 16.927789,-1.677125 16.25982,-3.224 16.025445,-3.8216562 c 0.679688,-0.703125 1.734375,-1.8867188 2.050782,-2.1679688 0.28125,-0.234375 0.667968,-0.4804687 1.265625,-0.5039062 0.128906,-0.011719 0.210937,-0.011719 0.210937,-0.1992188 0,-0.011719 0,-0.1171875 -0.128906,-0.1171875 -0.292969,0 -0.621094,0.035156 -0.9375,0.035156 -0.363281,0 -0.738281,-0.035156 -1.101563,-0.035156 -0.05859,0 -0.1875,0 -0.1875,0.1992188 0,0.070312 0.04687,0.1054687 0.117188,0.1171875 0.09375,0.011719 0.398437,0.023437 0.398437,0.3046875 0,0.140625 -0.105468,0.2695312 -0.1875,0.3632812 z m 0,0"
         style="fill:#000000;fill-opacity:1;fill-rule:nonzero;stroke:none" />
      <path
         id="path5"
         d="m 22.998102,-2.4974375 c 0,-0.7734375 -0.117188,-1.9804687 -0.65625,-3.1054687 -0.597657,-1.21875 -1.464844,-1.875 -1.558594,-1.875 -0.05859,0 -0.105469,0.046875 -0.105469,0.1054687 0,0.035156 0,0.046875 0.199219,0.234375 0.972656,0.984375 1.535156,2.5664063 1.535156,4.640625 0,1.7109375 -0.363281,3.45703125 -1.59375,4.7226563 -0.140625,0.1171875 -0.140625,0.1289062 -0.140625,0.1640625 0,0.058594 0.04687,0.1054687 0.105469,0.1054687 0.09375,0 0.996094,-0.6796875 1.582031,-1.9453125 0.503906,-1.1015625 0.632813,-2.203125 0.632813,-3.046875 z m 0,0"
         style="fill:#000000;fill-opacity:1;fill-rule:nonzero;stroke:none" />
    </g>
    <path
       id="path6"
       d="M -19.84267,14.882 H -0.9564"
       style="fill:none;stroke:#00a0e2;stroke-width:1.19553;stroke-linecap:butt;stroke-linejoin:miter;stroke-miterlimit:10;stroke-dasharray:none;stroke-opacity:1"
       transform="matrix(1.3333333,0,0,-1.3333333,38.592,51.82)" />
    <path
       id="path7"
       d="M -1.91284,2.55046 C -1.75343,1.59402 0,0.15938 0.4782,0 0,-0.15938 -1.75343,-1.59402 -1.91284,-2.55046"
       style="fill:none;stroke:#00a0e2;stroke-width:0.9564;stroke-linecap:round;stroke-linejoin:round;stroke-miterlimit:10;stroke-dasharray:none;stroke-opacity:1"
       transform="matrix(1.3333333,0,0,-1.3333333,37.3168,31.977333)" />
    <path
       id="path8"
       d="M 29.764,14.882 H 48.65025"
       style="fill:none;stroke:#00a0e2;stroke-width:1.19553;stroke-linecap:butt;stroke-linejoin:miter;stroke-miterlimit:10;stroke-dasharray:none;stroke-opacity:1"
       transform="matrix(1.3333333,0,0,-1.3333333,38.592,51.82)" />
    <path
       id="path9"
       d="M -1.91284,2.55046 C -1.75343,1.59402 0,0.15938 0.4782,0 0,-0.15938 -1.75343,-1.59402 -1.91284,-2.55046"
       style="fill:none;stroke:#00a0e2;stroke-width:0.9564;stroke-linecap:round;stroke-linejoin:round;stroke-miterlimit:10;stroke-dasharray:none;stroke-opacity:1"
       transform="matrix(1.3333333,0,0,-1.3333333,103.459,31.977333)" />
  </g>
</svg>
