<?xml version="1.0" encoding="UTF-8" standalone="no"?>
<!-- Created with Inkscape (http://www.inkscape.org/) -->

<svg
   version="1.1"
   id="svg1"
   width="328.19199"
   height="193.97467"
   viewBox="0 0 328.19199 193.97467"
   xmlns="http://www.w3.org/2000/svg"
   xmlns:svg="http://www.w3.org/2000/svg">
  <defs
     id="defs1" />
  <g
     id="g1">
    <path
       id="path1"
       d="m 0,40.37492 h 3.09421 3.09422 3.09422 3.09421 3.09422 3.09424 3.09421 3.09422 3.09423 3.0942 3.09424 3.09423 3.0942 3.09423 3.09422 3.09422 3.09423 3.09422 3.09421 3.09422 3.09422 3.09423 3.09422 3.09422 3.09421 3.09422 3.09424 3.09421 3.09422 3.09422 3.09421 3.09424 3.09422 3.09421 3.09422 3.09423 3.09421 3.09423 3.09422 3.09421 3.09423 3.09422 3.09422 3.09422 3.09423 3.09421 3.09422 3.09424 3.0942 V -8.07547 H 0 Z"
       style="fill:#99d7c9;fill-opacity:1;fill-rule:nonzero;stroke:none"
       transform="matrix(1.3333333,0,0,-1.3333333,77.725333,152.20267)" />
    <path
       id="path2"
       d="m 0,40.37492 h 3.09421 3.09422 3.09422 3.09421 3.09422 3.09424 3.09421 3.09422 3.09423 3.0942 3.09424 3.09423 3.0942 3.09423 3.09422 3.09422 3.09423 3.09422 3.09421 3.09422 3.09422 3.09423 3.09422 3.09422 3.09421 3.09422 3.09424 3.09421 3.09422 3.09422 3.09421 3.09424 3.09422 3.09421 3.09422 3.09423 3.09421 3.09423 3.09422 3.09421 3.09423 3.09422 3.09422 3.09422 3.09423 3.09421 3.09422 3.09424 3.0942"
       style="fill:none;stroke:#009b77;stroke-width:1.59404;stroke-linecap:butt;stroke-linejoin:miter;stroke-miterlimit:10;stroke-dasharray:none;stroke-opacity:1"
       transform="matrix(1.3333333,0,0,-1.3333333,77.725333,152.20267)" />
    <path
       id="path3"
       d="m 0,-10.20142 v 4.25191 m 151.61844,-4.25191 v 4.25191"
       style="fill:none;stroke:#808080;stroke-width:0.19925;stroke-linecap:butt;stroke-linejoin:miter;stroke-miterlimit:10;stroke-dasharray:none;stroke-opacity:1"
       transform="matrix(1.3333333,0,0,-1.3333333,77.725333,152.20267)" />
    <path
       id="path4"
       d="m -17.28845,40.37492 h 4.25174"
       style="fill:none;stroke:#808080;stroke-width:0.19925;stroke-linecap:butt;stroke-linejoin:miter;stroke-miterlimit:10;stroke-dasharray:none;stroke-opacity:1"
       transform="matrix(1.3333333,0,0,-1.3333333,77.725333,152.20267)" />
    <path
       id="path5"
       d="M -15.16258,-8.07547 H 164.78688"
       style="fill:none;stroke:#000000;stroke-width:0.3985;stroke-linecap:butt;stroke-linejoin:miter;stroke-miterlimit:10;stroke-dasharray:none;stroke-opacity:1"
       transform="matrix(1.3333333,0,0,-1.3333333,77.725333,152.20267)" />
    <path
       id="path6"
       d="M 1.99252,0 -1.19551,1.59401 0,0 -1.19551,-1.59401"
       style="fill:#000000;fill-opacity:1;fill-rule:nonzero;stroke:none"
       transform="matrix(1.3333333,0,0,-1.3333333,297.44117,162.96996)" />
    <path
       id="path7"
       d="M -15.16258,-8.07547 V 86.83281"
       style="fill:none;stroke:#000000;stroke-width:0.3985;stroke-linecap:butt;stroke-linejoin:miter;stroke-miterlimit:10;stroke-dasharray:none;stroke-opacity:1"
       transform="matrix(1.3333333,0,0,-1.3333333,77.725333,152.20267)" />
    <path
       id="path8"
       d="M 1.99252,0 -1.19551,1.59401 0,0 -1.19551,-1.59401"
       style="fill:#000000;fill-opacity:1;fill-rule:nonzero;stroke:none"
       transform="matrix(0,-1.3333333,-1.3333333,0,57.50856,36.425587)" />
    <g
       id="g8"
       aria-label="x&#10;a"
       transform="matrix(1.3333333,0,0,1.3333333,70.717333,176.216)">
      <path
         id="path9"
         d="m 3.3291875,-3.0125859 c 0.058594,-0.2578125 0.2929687,-1.171875 0.984375,-1.171875 0.046875,0 0.2929687,0 0.5039062,0.1289062 C 4.5362187,-4.0086797 4.337,-3.7508672 4.337,-3.5164922 c 0,0.1640625 0.1054687,0.3515625 0.375,0.3515625 0.2226562,0 0.5390625,-0.1875 0.5390625,-0.5859375 0,-0.515625 -0.5859375,-0.65625 -0.9257813,-0.65625 -0.5742187,0 -0.9257812,0.5273438 -1.0429687,0.7617188 -0.2578125,-0.65625 -0.7851563,-0.7617188 -1.078125,-0.7617188 -1.0429688,0 -1.60546875,1.2890625 -1.60546875,1.5351563 0,0.1054687 0.10546875,0.1054687 0.1171875,0.1054687 0.0820313,0 0.1171875,-0.023437 0.12890625,-0.1171875 0.3398437,-1.0546875 0.9960937,-1.3007812 1.3359375,-1.3007812 0.1875,0 0.5390625,0.09375 0.5390625,0.6679687 0,0.3046875 -0.1640625,0.9726563 -0.5390625,2.3671875 -0.1523438,0.62109376 -0.5039063,1.04296876 -0.9492188,1.04296876 -0.058594,0 -0.28124995,0 -0.49218745,-0.12890625 0.24609375,-0.0585938 0.46874995,-0.26953125 0.46874995,-0.5390625 0,-0.26953121 -0.2226562,-0.35156251 -0.37499995,-0.35156251 -0.29296875,0 -0.5390625,0.25781251 -0.5390625,0.57421876 0,0.45703125 0.4921875,0.65625 0.93749995,0.65625 0.65625,0 1.0078125,-0.69140625 1.0429688,-0.75 0.1171875,0.36328125 0.4804687,0.75 1.078125,0.75 1.0195312,0 1.59375,-1.27734376 1.59375,-1.53515626 0,-0.09375 -0.09375,-0.09375 -0.1289063,-0.09375 -0.082031,0 -0.1054687,0.035156 -0.1289062,0.1054688 -0.328125,1.06640621 -0.9960938,1.31249996 -1.3242188,1.31249996 -0.3867187,0 -0.5390625,-0.328125 -0.5390625,-0.65625 0,-0.22265625 0.058594,-0.44531246 0.1640625,-0.87890626 z m 0,0"
         style="fill:#000000;fill-opacity:1;fill-rule:nonzero;stroke:none" />
      <path
         id="path10"
         d="m 8.6348516,-1.1639531 c -0.140625,-0.234375 -0.3867188,-0.4101563 -0.7148438,-0.4101563 -0.890625,0 -1.8046875,0.97265627 -1.8046875,1.98046877 0,0.67968753 0.4570313,1.16015623 1.0546875,1.16015623 0.375,0 0.7148438,-0.2109375 0.9960938,-0.4921875 0.1289062,0.421875 0.5273437,0.4921875 0.7148437,0.4921875 0.2460938,0 0.421875,-0.1523437 0.5507813,-0.375 0.1523437,-0.26953123 0.2460937,-0.66796873 0.2460937,-0.69140623 0,-0.09375 -0.09375,-0.09375 -0.1171875,-0.09375 -0.09375,0 -0.1054687,0.0351563 -0.1523437,0.22265625 -0.082031,0.328125 -0.2109375,0.73828128 -0.5039063,0.73828128 -0.1875,0 -0.234375,-0.1523438 -0.234375,-0.3398438 0,-0.11718748 0.058594,-0.36328123 0.1054688,-0.55078123 0.046875,-0.1875 0.1171875,-0.46875 0.1523437,-0.62109375 l 0.140625,-0.5390625 c 0.046875,-0.17578125 0.1289063,-0.50390622 0.1289063,-0.53906252 0,-0.1523437 -0.1289063,-0.2226562 -0.2460938,-0.2226562 -0.1171875,0 -0.2695312,0.082031 -0.3164062,0.28125 z M 8.1895391,0.62901562 c -0.046875,0.1875 -0.1992188,0.328125 -0.3515625,0.45703128 -0.070312,0.058594 -0.3398438,0.28125 -0.6445313,0.28125 -0.2578125,0 -0.515625,-0.1757813 -0.515625,-0.66796878 0,-0.375 0.2109375,-1.13671875 0.3632813,-1.41796875 0.328125,-0.56249997 0.6796875,-0.66796877 0.8789062,-0.66796877 0.4804688,0 0.6210938,0.52734377 0.6210938,0.60937502 0,0.0234375 -0.011719,0.0820313 -0.023437,0.09375 z m 0,0"
         style="fill:#000000;fill-opacity:1;fill-rule:nonzero;stroke:none" />
    </g>
    <g
       id="g10"
       aria-label="x&#10;b"
       transform="matrix(1.3333333,0,0,1.3333333,273.416,176.216)">
      <path
         id="path11"
         d="m 3.3266719,-3.0125859 c 0.058594,-0.2578125 0.2929687,-1.171875 0.984375,-1.171875 0.046875,0 0.2929687,0 0.5039062,0.1289062 -0.28125,0.046875 -0.4804687,0.3046875 -0.4804687,0.5390625 0,0.1640625 0.1054687,0.3515625 0.375,0.3515625 0.2226562,0 0.5390625,-0.1875 0.5390625,-0.5859375 0,-0.515625 -0.5859375,-0.65625 -0.9257813,-0.65625 -0.5742187,0 -0.9257812,0.5273438 -1.0429687,0.7617188 -0.2578125,-0.65625 -0.7851563,-0.7617188 -1.078125,-0.7617188 -1.0429688,0 -1.60546878,1.2890625 -1.60546878,1.5351563 0,0.1054687 0.10546875,0.1054687 0.1171875,0.1054687 0.0820313,0 0.1171875,-0.023437 0.12890625,-0.1171875 0.33984373,-1.0546875 0.99609373,-1.3007812 1.33593753,-1.3007812 0.1875,0 0.5390625,0.09375 0.5390625,0.6679687 0,0.3046875 -0.1640625,0.9726563 -0.5390625,2.3671875 -0.1523438,0.62109376 -0.5039063,1.04296876 -0.9492188,1.04296876 -0.058594,0 -0.28124998,0 -0.49218748,-0.12890625 0.24609375,-0.0585938 0.46874998,-0.26953125 0.46874998,-0.5390625 0,-0.26953121 -0.22265623,-0.35156251 -0.37499998,-0.35156251 -0.29296875,0 -0.5390625,0.25781251 -0.5390625,0.57421876 0,0.45703125 0.4921875,0.65625 0.93749998,0.65625 0.65625,0 1.0078125,-0.69140625 1.0429688,-0.75 0.1171875,0.36328125 0.4804687,0.75 1.078125,0.75 1.0195312,0 1.59375,-1.27734376 1.59375,-1.53515626 0,-0.09375 -0.09375,-0.09375 -0.1289063,-0.09375 -0.082031,0 -0.1054687,0.035156 -0.1289062,0.1054688 -0.328125,1.06640621 -0.9960938,1.31249996 -1.3242188,1.31249996 -0.3867187,0 -0.5390625,-0.328125 -0.5390625,-0.65625 0,-0.22265625 0.058594,-0.44531246 0.1640625,-0.87890626 z m 0,0"
         style="fill:#000000;fill-opacity:1;fill-rule:nonzero;stroke:none" />
      <path
         id="path12"
         d="m 7.5337031,-3.1327031 c 0.011719,-0.011719 0.023437,-0.1054688 0.023437,-0.1171875 0,-0.035156 -0.023437,-0.09375 -0.1054687,-0.09375 -0.140625,0 -0.7148438,0.058594 -0.890625,0.070312 -0.058594,0.011719 -0.1523438,0.011719 -0.1523438,0.1640625 0,0.09375 0.09375,0.09375 0.1757813,0.09375 0.3398437,0 0.3398437,0.046875 0.3398437,0.1054687 0,0.046875 -0.070312,0.328125 -0.1171875,0.4921875 l -0.1523437,0.6328125 c -0.070312,0.2460938 -0.4570313,1.76953127 -0.46875,1.86328127 -0.035156,0.1640625 -0.035156,0.2578125 -0.035156,0.33984375 0,0.70312498 0.4453125,1.14843748 1.03125,1.14843748 0.8671875,0 1.7929688,-0.94921873 1.7929688,-1.98046873 0,-0.82031247 -0.5625,-1.16015627 -1.0429688,-1.16015627 -0.3632812,0 -0.6679687,0.1992188 -0.8789062,0.375 z m -0.3515625,4.5 c -0.3398437,0 -0.5273437,-0.2929688 -0.5273437,-0.70312503 0,-0.2578125 0.058594,-0.50390625 0.2578125,-1.2890625 0.035156,-0.12890625 0.035156,-0.140625 0.1640625,-0.29296875 0.2695312,-0.31640622 0.5859375,-0.46875002 0.8320312,-0.46875002 0.2695313,0 0.515625,0.2109375 0.515625,0.67968752 0,0.28125 -0.1523437,0.99609375 -0.3632812,1.40625 C 7.8852656,1.0391719 7.5454219,1.3672969 7.1821406,1.3672969 Z m 0,0"
         style="fill:#000000;fill-opacity:1;fill-rule:nonzero;stroke:none" />
    </g>
    <path
       id="path13"
       d="m 2.3319531,-4.4283281 c 0,-0.1875 -0.011719,-0.1992188 -0.2109375,-0.1992188 -0.4453125,0.4335938 -1.078125,0.4453125 -1.35937498,0.4453125 v 0.2460938 c 0.1640625,0 0.62109378,0 1.00781248,-0.1875 v 3.55078122 c 0,0.234375 0,0.328125 -0.6914062,0.328125 H 0.80851562 v 0.24609375 c 0.12890625,-0.01171875 0.98437498,-0.0234375 1.24218748,-0.0234375 0.2109375,0 1.0898438,0.01171875 1.2421875,0.0234375 V -0.24473438 H 3.0350781 c -0.703125,0 -0.703125,-0.09375 -0.703125,-0.328125 z m 0,0"
       style="fill:#000000;fill-opacity:1;fill-rule:nonzero;stroke:none"
       aria-label="1"
       transform="matrix(1.3333333,0,0,1.3333333,30.226667,95.756)" />
    <path
       id="path14"
       d="M 0,0 H 23.271"
       style="fill:none;stroke:#000000;stroke-width:0.398;stroke-linecap:butt;stroke-linejoin:miter;stroke-miterlimit:10;stroke-dasharray:none;stroke-opacity:1"
       transform="matrix(1.3333333,0,0,-1.3333333,17.36,97.665333)" />
    <g
       id="g14"
       aria-label="x&#10;b&#10;−x&#10;a"
       transform="matrix(1.3333333,0,0,1.3333333,17.36,105.56667)">
      <path
         id="path15"
         d="m 1.7339062,-0.73847656 c -0.070312,0.234375 -0.2929687,0.609375 -0.65625,0.609375 -0.023437,0 -0.2226562,0 -0.37499995,-0.09375 0.28125,-0.09375 0.30468745,-0.33984375 0.30468745,-0.38671875 0,-0.15234375 -0.11718745,-0.2578125 -0.28124995,-0.2578125 -0.1875,0 -0.38671875,0.1640625 -0.38671875,0.43359375 0,0.33984375 0.38671875,0.50390625 0.7265625,0.50390625 0.3164062,0 0.609375,-0.19921875 0.7851562,-0.4921875 0.1640625,0.36328125 0.5507813,0.4921875 0.8203125,0.4921875 0.8085938,0 1.2304688,-0.8671875 1.2304688,-1.06640625 0,-0.09375 -0.09375,-0.09375 -0.1054688,-0.09375 -0.1054687,0 -0.1054687,0.035156 -0.140625,0.11718758 -0.140625,0.48046875 -0.5625,0.84375 -0.9492187,0.84375 -0.28125,0 -0.421875,-0.1875 -0.421875,-0.4453125 0,-0.1875 0.1640625,-0.82031258 0.3632812,-1.59375008 0.1289063,-0.5390625 0.4453125,-0.7148437 0.6796875,-0.7148437 0.011719,0 0.2226563,0 0.375,0.1054687 -0.2226562,0.058594 -0.3046875,0.2578125 -0.3046875,0.375 0,0.1523438 0.1171875,0.2578125 0.28125,0.2578125 0.1523438,0 0.3867188,-0.1289062 0.3867188,-0.421875 0,-0.3867187 -0.4453125,-0.5039062 -0.7265625,-0.5039062 -0.3515625,0 -0.6328125,0.2226562 -0.7851563,0.4921875 -0.1171875,-0.2929688 -0.4453125,-0.4921875 -0.8320312,-0.4921875 -0.78515625,0 -1.23046875,0.8554687 -1.23046875,1.0664062 0,0.082031 0.10546875,0.082031 0.1171875,0.082031 0.09375,0 0.10546875,-0.023437 0.140625,-0.1171875 0.17578125,-0.5390625 0.60937495,-0.84375 0.94921875,-0.84375 0.234375,0 0.421875,0.1289062 0.421875,0.46875 0,0.1289062 -0.082031,0.4804687 -0.1523438,0.7148437 z m 0,0"
         style="fill:#000000;fill-opacity:1;fill-rule:nonzero;stroke:none" />
      <path
         id="path16"
         d="m 6.0874219,-2.2121094 c 0.023437,-0.070312 0.023437,-0.082031 0.023437,-0.1054687 0,-0.082031 -0.082031,-0.082031 -0.1640625,-0.082031 l -0.609375,0.046875 c -0.082031,0.011719 -0.09375,0.011719 -0.1171875,0.035156 -0.023437,0.023437 -0.035156,0.082031 -0.035156,0.1171875 0,0.082031 0.082031,0.082031 0.1523438,0.082031 0,0 0.09375,0 0.1640625,0.011719 0.09375,0.011719 0.1054687,0.023437 0.1054687,0.058594 0,0.035156 -0.058594,0.2226563 -0.082031,0.3398438 l -0.4101563,1.66406247 c -0.035156,0.10546875 -0.046875,0.1875 -0.046875,0.29296875 0,0.515625 0.375,0.86718748 0.84375,0.86718748 0.7265625,0 1.40625,-0.70312498 1.40625,-1.39453123 0,-0.4921875 -0.3515625,-0.86718747 -0.8671875,-0.86718747 -0.2109375,0 -0.4570312,0.082031 -0.703125,0.26953122 z M 5.9233594,0.94023437 c -0.2109375,0 -0.4570313,-0.12890625 -0.4570313,-0.52734375 0,-0.1640625 0.046875,-0.31640625 0.082031,-0.4921875 0.011719,-0.05859375 0.09375,-0.38671875 0.1054687,-0.41015625 0.011719,-0.046875 0.3632813,-0.48046875 0.7851563,-0.48046875 0.2109375,0 0.4335937,0.12890625 0.4335937,0.50390625 0,0.1875 -0.09375,0.65625 -0.2578125,0.9375 -0.1640625,0.29296875 -0.4453125,0.46875 -0.6914059,0.46875 z m 0,0"
         style="fill:#000000;fill-opacity:1;fill-rule:nonzero;stroke:none" />
      <path
         id="path17"
         d="m 13.361836,-1.5705078 c 0.105469,0 0.269531,0 0.269531,-0.1757813 0,-0.1757812 -0.152344,-0.1757812 -0.269531,-0.1757812 H 9.2016797 c -0.1054688,0 -0.28125,0 -0.28125,0.1757812 0,0.1757813 0.1640625,0.1757813 0.28125,0.1757813 z m 0,0"
         style="fill:#000000;fill-opacity:1;fill-rule:nonzero;stroke:none" />
      <path
         id="path18"
         d="m 16.130391,-0.73847656 c -0.07031,0.234375 -0.292969,0.609375 -0.65625,0.609375 -0.02344,0 -0.222657,0 -0.375,-0.09375 0.28125,-0.09375 0.304687,-0.33984375 0.304687,-0.38671875 0,-0.15234375 -0.117187,-0.2578125 -0.28125,-0.2578125 -0.1875,0 -0.386719,0.1640625 -0.386719,0.43359375 0,0.33984375 0.386719,0.50390625 0.726563,0.50390625 0.316406,0 0.609375,-0.19921875 0.785156,-0.4921875 0.164063,0.36328125 0.550781,0.4921875 0.820313,0.4921875 0.808593,0 1.230468,-0.8671875 1.230468,-1.06640625 0,-0.09375 -0.09375,-0.09375 -0.105468,-0.09375 -0.105469,0 -0.105469,0.035156 -0.140625,0.11718758 -0.140625,0.48046875 -0.5625,0.84375 -0.949219,0.84375 -0.28125,0 -0.421875,-0.1875 -0.421875,-0.4453125 0,-0.1875 0.164062,-0.82031258 0.363281,-1.59375008 0.128906,-0.5390625 0.445313,-0.7148437 0.679688,-0.7148437 0.01172,0 0.222656,0 0.375,0.1054687 -0.222657,0.058594 -0.304688,0.2578125 -0.304688,0.375 0,0.1523438 0.117188,0.2578125 0.28125,0.2578125 0.152344,0 0.386719,-0.1289062 0.386719,-0.421875 0,-0.3867187 -0.445313,-0.5039062 -0.726563,-0.5039062 -0.351562,0 -0.632812,0.2226562 -0.785156,0.4921875 -0.117187,-0.2929688 -0.445312,-0.4921875 -0.832031,-0.4921875 -0.785156,0 -1.230469,0.8554687 -1.230469,1.0664062 0,0.082031 0.105469,0.082031 0.117188,0.082031 0.09375,0 0.105468,-0.023437 0.140625,-0.1171875 0.175781,-0.5390625 0.609375,-0.84375 0.949218,-0.84375 0.234375,0 0.421875,0.1289062 0.421875,0.46875 0,0.1289062 -0.08203,0.4804687 -0.152343,0.7148437 z m 0,0"
         style="fill:#000000;fill-opacity:1;fill-rule:nonzero;stroke:none" />
      <path
         id="path19"
         d="m 21.796406,-0.62128906 c 0.02344,-0.10546875 0.07031,-0.28125 0.07031,-0.3046875 0,-0.09375 -0.05859,-0.17578124 -0.1875,-0.17578124 -0.08203,0 -0.210938,0.058594 -0.246094,0.19921874 -0.09375,-0.12890624 -0.28125,-0.30468754 -0.597656,-0.30468754 -0.703125,0 -1.394532,0.67968754 -1.394532,1.39453129 0,0.50390625 0.375,0.86718751 0.867188,0.86718751 0.410156,0 0.726562,-0.29296876 0.785156,-0.35156251 0.09375,0.24609375 0.363281,0.35156251 0.585938,0.35156251 0.199218,0 0.339843,-0.11718751 0.445312,-0.28125001 0.128906,-0.19921875 0.199219,-0.45703125 0.199219,-0.4921875 0,-0.0703125 -0.09375,-0.0703125 -0.105469,-0.0703125 -0.09375,0 -0.09375,0.0234375 -0.117187,0.10546875 -0.09375,0.375 -0.222657,0.5625 -0.398438,0.5625 -0.140625,0 -0.199219,-0.10546875 -0.199219,-0.2578125 0,-0.0820313 0.04687,-0.26953125 0.08203,-0.3984375 z m -0.667969,0.94921875 c -0.02344,0.0820313 -0.02344,0.09375 -0.117187,0.1875 -0.175781,0.2109375 -0.433594,0.36328125 -0.691406,0.36328125 -0.175782,0 -0.433594,-0.09375 -0.433594,-0.50390625 0,-0.234375 0.117187,-0.75 0.292969,-1.0078125 0.199218,-0.28125 0.445312,-0.39843749 0.65625,-0.39843749 0.222656,0 0.433593,0.12890624 0.515625,0.43359374 z m 0,0"
         style="fill:#000000;fill-opacity:1;fill-rule:nonzero;stroke:none" />
    </g>
    <path
       id="path20"
       d="m 3.3290781,-3.0106953 c 0.058594,-0.2578125 0.2929688,-1.171875 0.984375,-1.171875 0.046875,0 0.2929688,0 0.5039063,0.1289062 -0.28125,0.046875 -0.4804688,0.3046875 -0.4804688,0.5390625 0,0.1640625 0.1054688,0.3515625 0.375,0.3515625 0.2226563,0 0.5390625,-0.1875 0.5390625,-0.5859375 0,-0.515625 -0.5859375,-0.65625 -0.9257812,-0.65625 -0.5742188,0 -0.9257813,0.5273438 -1.0429688,0.7617188 -0.2578125,-0.65625 -0.7851562,-0.7617188 -1.078125,-0.7617188 -1.0429687,0 -1.60546873,1.2890625 -1.60546873,1.5351563 0,0.1054687 0.10546875,0.1054687 0.1171875,0.1054687 0.0820313,0 0.1171875,-0.023437 0.12890625,-0.1171875 0.33984378,-1.0546875 0.99609378,-1.3007812 1.33593748,-1.3007812 0.1875,0 0.5390625,0.09375 0.5390625,0.6679687 0,0.3046875 -0.1640625,0.9726563 -0.5390625,2.3671875 -0.1523437,0.62109379 -0.5039062,1.04296879 -0.9492187,1.04296879 -0.058594,0 -0.28125003,0 -0.49218753,-0.12890625 0.24609375,-0.0585938 0.46875003,-0.26953125 0.46875003,-0.5390625 0,-0.26953124 -0.22265628,-0.35156254 -0.37500003,-0.35156254 -0.29296875,0 -0.5390625,0.25781254 -0.5390625,0.57421879 0,0.45703125 0.4921875,0.65625 0.93750003,0.65625 0.65625,0 1.0078125,-0.69140625 1.0429687,-0.75 0.1171875,0.36328125 0.4804688,0.75 1.078125,0.75 1.0195313,0 1.59375,-1.27734379 1.59375,-1.53515629 0,-0.09375 -0.09375,-0.09375 -0.1289062,-0.09375 -0.082031,0 -0.1054688,0.035156 -0.1289063,0.1054688 -0.328125,1.06640624 -0.9960937,1.31249999 -1.3242187,1.31249999 -0.3867188,0 -0.5390625,-0.328125 -0.5390625,-0.65625 0,-0.22265625 0.058594,-0.44531249 0.1640625,-0.87890629 z m 0,0"
       style="fill:#000000;fill-opacity:1;fill-rule:nonzero;stroke:none"
       aria-label="x"
       transform="matrix(1.3333333,0,0,1.3333333,304.83467,165.83067)" />
    <g
       id="g20"
       aria-label="f&#10;X&#10;(x)"
       transform="matrix(1.3333333,0,0,1.3333333,40.242667,25.728)">
      <path
         id="path21"
         d="m 3.6558906,-3.9854531 h 0.8554688 c 0.1992187,0 0.3046875,0 0.3046875,-0.1992188 0,-0.1054687 -0.1054688,-0.1054687 -0.2695313,-0.1054687 H 3.7144844 l 0.2109375,-1.1367188 c 0.035156,-0.2109375 0.1757812,-0.9140625 0.234375,-1.0429687 0.09375,-0.1875 0.2578125,-0.3398438 0.46875,-0.3398438 0.046875,0 0.3046875,0 0.4921875,0.1875 -0.4335938,0.035156 -0.5390625,0.3867188 -0.5390625,0.5390625 0,0.2226563 0.1757812,0.3398438 0.3632812,0.3398438 0.2695313,0 0.5507813,-0.2109375 0.5507813,-0.5976563 0,-0.4570312 -0.4570313,-0.6796875 -0.8671875,-0.6796875 -0.3398438,0 -0.9609375,0.1757813 -1.265625,1.1601563 -0.058594,0.2109375 -0.082031,0.3164062 -0.328125,1.5703125 H 2.3551094 c -0.1992188,0 -0.3046875,0 -0.3046875,0.1875 0,0.1171875 0.09375,0.1171875 0.28125,0.1171875 h 0.65625 l -0.75,3.93749997 C 2.0621406,0.91298437 1.8980781,1.8270469 1.3707344,1.8270469 c -0.035156,0 -0.28125,0 -0.46875003,-0.1875 C 1.3590156,1.6161094 1.4410469,1.2528281 1.4410469,1.1004844 c 0,-0.22265628 -0.1757813,-0.33984378 -0.3632813,-0.33984378 -0.25781248,0 -0.55078123,0.2109375 -0.55078123,0.59765628 0,0.4453125 0.43359375,0.6796875 0.84375003,0.6796875 0.5507812,0 0.9492187,-0.5859375 1.125,-0.9609375 0.328125,-0.63281253 0.5507812,-1.83984378 0.5625,-1.91015628 z m 0,0"
         style="fill:#000000;fill-opacity:1;fill-rule:nonzero;stroke:none" />
      <path
         id="path22"
         d="m 8.7564766,-1.1641641 0.65625,-0.6679687 c 0.9023434,-0.8789063 1.1718754,-1.1484375 1.7929684,-1.1835938 0.09375,-0.011719 0.175782,-0.011719 0.175782,-0.140625 0,-0.09375 -0.07031,-0.1054687 -0.09375,-0.1054687 -0.199219,0 -0.445313,0.023437 -0.65625,0.023437 -0.1875,0 -0.6328129,-0.023437 -0.8085942,-0.023437 -0.058594,0 -0.140625,0.011719 -0.140625,0.1523437 0,0 0,0.082031 0.1054688,0.09375 0.058594,0.011719 0.2343754,0.023437 0.2343754,0.1757813 0,0.1054687 -0.1054692,0.2109375 -0.1757817,0.28125 -0.058594,0.046875 -0.9375,0.9140625 -1.1953125,1.1835937 l -0.703125,-1.3710937 c -0.011719,-0.023437 -0.035156,-0.070312 -0.035156,-0.09375 0,-0.046875 0.1289062,-0.1640625 0.3632812,-0.1757813 0.058594,0 0.1523438,-0.011719 0.1523438,-0.1523437 0,-0.011719 -0.011719,-0.09375 -0.1171875,-0.09375 -0.1523438,0 -0.328125,0.011719 -0.46875,0.011719 -0.1523438,0 -0.3046875,0.011719 -0.4570313,0.011719 -0.1171875,0 -0.28125,0 -0.4101562,-0.011719 -0.1171875,0 -0.2695313,-0.011719 -0.375,-0.011719 -0.035156,0 -0.1523438,0 -0.1523438,0.1523437 0,0.09375 0.09375,0.09375 0.2109375,0.09375 0.3984375,0 0.4335938,0.070312 0.5039063,0.2109375 L 8.135383,-0.88291406 7.7486643,-0.49619531 C 7.619758,-0.36728906 7.291633,-0.05088281 7.1627268,0.07802344 6.3189768,0.92177344 6.026008,1.2147422 5.4049143,1.2498984 c -0.1054688,0 -0.1757813,0 -0.1757813,0.1523438 0,0.023437 0.023437,0.09375 0.09375,0.09375 0.1992188,0 0.4453125,-0.023437 0.6445313,-0.023437 0.1289062,0 0.2929687,0 0.421875,0 0.1171875,0.011719 0.2695312,0.023437 0.3867187,0.023437 0.035156,0 0.1523438,0 0.1523438,-0.140625 0,-0.1054688 -0.082031,-0.1054688 -0.1289063,-0.1054688 C 6.7291335,1.2381794 6.588508,1.2147424 6.588508,1.0741172 c 0,-0.11718751 0.09375,-0.21093751 0.2460938,-0.36328126 l 1.40625,-1.3828125 0.84375,1.65234375 c 0.035156,0.0703125 0.046875,0.0820312 0.046875,0.09375 0,0.035156 -0.1289063,0.1523437 -0.375,0.1757812 -0.058594,0 -0.1523438,0 -0.1523438,0.1523438 0,0 0.011719,0.09375 0.1171875,0.09375 0.1523438,0 0.328125,-0.023437 0.46875,-0.023437 0.1523438,0 0.3046875,0 0.4570313,0 0.1171875,0 0.28125,0 0.4101562,0 0.117187,0.011719 0.269531,0.023437 0.375,0.023437 0.03516,0 0.152344,0 0.152344,-0.1523438 0,-0.09375 -0.09375,-0.09375 -0.210938,-0.09375 -0.3984372,0 -0.4335935,-0.082031 -0.4921872,-0.1992187 z m 0,0"
         style="fill:#000000;fill-opacity:1;fill-rule:nonzero;stroke:none" />
      <path
         id="path23"
         d="m 15.743781,2.3895469 c 0,-0.035156 0,-0.046875 -0.164062,-0.2226563 -1.242188,-1.25390623 -1.570313,-3.12890623 -1.570313,-4.6640625 0,-1.7226562 0.386719,-3.4570312 1.605469,-4.7109375 0.128906,-0.1171875 0.128906,-0.1289062 0.128906,-0.1640625 0,-0.070312 -0.03516,-0.1054687 -0.09375,-0.1054687 -0.105469,0 -0.996094,0.6796875 -1.582031,1.9453125 -0.515625,1.1015625 -0.632813,2.203125 -0.632813,3.0351562 0,0.7851563 0.117188,1.99218752 0.65625,3.11718752 0.597657,1.21874998 1.453125,1.87499998 1.558594,1.87499998 0.05859,0 0.09375,-0.035156 0.09375,-0.1054687 z m 0,0"
         style="fill:#000000;fill-opacity:1;fill-rule:nonzero;stroke:none" />
      <path
         id="path24"
         d="m 19.651984,-3.0127969 c 0.05859,-0.2578125 0.292969,-1.171875 0.984375,-1.171875 0.04687,0 0.292969,0 0.503907,0.1289063 -0.28125,0.046875 -0.480469,0.3046875 -0.480469,0.5390625 0,0.1640625 0.105469,0.3515625 0.375,0.3515625 0.222656,0 0.539062,-0.1875 0.539062,-0.5859375 0,-0.515625 -0.585937,-0.65625 -0.925781,-0.65625 -0.574219,0 -0.925781,0.5273437 -1.042969,0.7617187 -0.257812,-0.65625 -0.785156,-0.7617187 -1.078125,-0.7617187 -1.042968,0 -1.605468,1.2890625 -1.605468,1.5351562 0,0.1054688 0.105468,0.1054688 0.117187,0.1054688 0.08203,0 0.117188,-0.023437 0.128906,-0.1171875 0.339844,-1.0546875 0.996094,-1.3007813 1.335938,-1.3007813 0.1875,0 0.539062,0.09375 0.539062,0.6679688 0,0.3046875 -0.164062,0.9726562 -0.539062,2.3671875 -0.152344,0.62109372 -0.503906,1.04296872 -0.949219,1.04296872 -0.05859,0 -0.28125,0 -0.492187,-0.12890625 0.246093,-0.0585938 0.46875,-0.26953125 0.46875,-0.5390625 0,-0.26953127 -0.222657,-0.35156247 -0.375,-0.35156247 -0.292969,0 -0.539063,0.25781247 -0.539063,0.57421872 0,0.45703125 0.492188,0.65625 0.9375,0.65625 0.65625,0 1.007813,-0.69140625 1.042969,-0.75 0.117187,0.36328125 0.480469,0.75 1.078125,0.75 1.019531,0 1.59375,-1.27734372 1.59375,-1.53515622 0,-0.09375 -0.09375,-0.09375 -0.128906,-0.09375 -0.08203,0 -0.105469,0.035156 -0.128907,0.1054687 -0.328125,1.06640627 -0.996093,1.31250002 -1.324218,1.31250002 -0.386719,0 -0.539063,-0.328125 -0.539063,-0.65625 0,-0.22265625 0.05859,-0.44531252 0.164063,-0.87890622 z m 0,0"
         style="fill:#000000;fill-opacity:1;fill-rule:nonzero;stroke:none" />
      <path
         id="path25"
         d="m 24.901984,-2.4971719 c 0,-0.7734375 -0.117187,-1.9804687 -0.65625,-3.1054687 -0.597656,-1.21875 -1.464843,-1.875 -1.558593,-1.875 -0.05859,0 -0.105469,0.046875 -0.105469,0.1054687 0,0.035156 0,0.046875 0.199219,0.234375 0.972656,0.984375 1.535156,2.5664063 1.535156,4.640625 0,1.71093752 -0.363281,3.45703127 -1.59375,4.7226563 -0.140625,0.1171875 -0.140625,0.1289062 -0.140625,0.1640625 0,0.058594 0.04687,0.1054687 0.105469,0.1054687 0.09375,0 0.996093,-0.6796875 1.582031,-1.94531248 0.503906,-1.1015625 0.632812,-2.20312502 0.632812,-3.04687502 z m 0,0"
         style="fill:#000000;fill-opacity:1;fill-rule:nonzero;stroke:none" />
    </g>
  </g>
</svg>
