<?xml version="1.0" encoding="UTF-8" standalone="no"?>
<!-- Created with Inkscape (http://www.inkscape.org/) -->

<svg
   version="1.1"
   id="svg1"
   width="302.36533"
   height="194.55467"
   viewBox="0 0 302.36533 194.55467"
   xmlns="http://www.w3.org/2000/svg"
   xmlns:svg="http://www.w3.org/2000/svg">
  <defs
     id="defs1" />
  <g
     id="g1">
    <path
       id="path1"
       d="m 0,80.75005 3.09422,-8.81797 3.09423,-7.1367 3.09422,-5.93515 3.09422,-5.02913 3.09424,-4.33147 3.09424,-3.78395 3.09422,-3.34308 3.09422,-2.98452 3.09424,-2.68415 3.09423,-2.42735 3.09423,-2.20932 3.09423,-2.03491 3.09424,-1.86049 3.09422,-1.72484 3.09422,-1.6037 3.09422,-1.48257 3.09426,-1.40021 3.09422,-1.29848 3.09422,-1.23062 3.09423,-1.15797 3.09423,-1.09014 3.09424,-1.03198 3.09423,-0.97868 3.09422,-0.93027 3.09422,-0.88663 3.09424,-0.84303 3.09424,-0.80427 3.09422,-0.77036 3.09423,-0.7316 3.09423,-0.70738 3.09423,-0.67345 3.09422,-0.65408 3.09424,-0.62161 3.09424,-0.60031 3.09422,-0.57898 3.09422,-0.55863 3.09423,-0.53875 3.09425,-0.5194 3.09422,-0.5034 3.09423,-0.48644 3.09422,-0.47142 3.09424,-0.45591 3.09423,-0.44187 3.09423,-0.4283 3.09422,-0.41667 3.09422,-0.40359 3.09424,-0.39293 L 148.523,0.37112 151.61723,0 V -8.07549 H 0 Z"
       style="fill:#ffef99;fill-opacity:1;fill-rule:nonzero;stroke:none"
       transform="matrix(1.3333333,0,0,-1.3333333,52.497333,152.192)" />
    <path
       id="path2"
       d="m 0,80.75005 3.09422,-8.81797 3.09423,-7.1367 3.09422,-5.93515 3.09422,-5.02913 3.09424,-4.33147 3.09424,-3.78395 3.09422,-3.34308 3.09422,-2.98452 3.09424,-2.68415 3.09423,-2.42735 3.09423,-2.20932 3.09423,-2.03491 3.09424,-1.86049 3.09422,-1.72484 3.09422,-1.6037 3.09422,-1.48257 3.09426,-1.40021 3.09422,-1.29848 3.09422,-1.23062 3.09423,-1.15797 3.09423,-1.09014 3.09424,-1.03198 3.09423,-0.97868 3.09422,-0.93027 3.09422,-0.88663 3.09424,-0.84303 3.09424,-0.80427 3.09422,-0.77036 3.09423,-0.7316 3.09423,-0.70738 3.09423,-0.67345 3.09422,-0.65408 3.09424,-0.62161 3.09424,-0.60031 3.09422,-0.57898 3.09422,-0.55863 3.09423,-0.53875 3.09425,-0.5194 3.09422,-0.5034 3.09423,-0.48644 3.09422,-0.47142 3.09424,-0.45591 3.09423,-0.44187 3.09423,-0.4283 3.09422,-0.41667 3.09422,-0.40359 3.09424,-0.39293 L 148.523,0.37112 151.61723,0"
       style="fill:none;stroke:#ffd700;stroke-width:1.59404;stroke-linecap:butt;stroke-linejoin:miter;stroke-miterlimit:10;stroke-dasharray:none;stroke-opacity:1"
       transform="matrix(1.3333333,0,0,-1.3333333,52.497333,152.192)" />
    <path
       id="path3"
       d="m 0,-10.2014 v 4.25186 m 151.61844,-4.25186 v 4.25186"
       style="fill:none;stroke:#808080;stroke-width:0.19925;stroke-linecap:butt;stroke-linejoin:miter;stroke-miterlimit:10;stroke-dasharray:none;stroke-opacity:1"
       transform="matrix(1.3333333,0,0,-1.3333333,52.497333,152.192)" />
    <path
       id="path4"
       d="M -15.16263,-8.07549 H 164.78735"
       style="fill:none;stroke:#000000;stroke-width:0.3985;stroke-linecap:butt;stroke-linejoin:miter;stroke-miterlimit:10;stroke-dasharray:none;stroke-opacity:1"
       transform="matrix(1.3333333,0,0,-1.3333333,52.497333,152.192)" />
    <path
       id="path5"
       d="M 1.99252,0 -1.19551,1.59401 0,0 -1.19551,-1.59401"
       style="fill:#000000;fill-opacity:1;fill-rule:nonzero;stroke:none"
       transform="matrix(1.3333333,0,0,-1.3333333,272.2138,162.95932)" />
    <path
       id="path6"
       d="m -15.16263,-8.07549 v 94.9085"
       style="fill:none;stroke:#000000;stroke-width:0.3985;stroke-linecap:butt;stroke-linejoin:miter;stroke-miterlimit:10;stroke-dasharray:none;stroke-opacity:1"
       transform="matrix(1.3333333,0,0,-1.3333333,52.497333,152.192)" />
    <path
       id="path7"
       d="M 1.99252,0 -1.19551,1.59401 0,0 -1.19551,-1.59401"
       style="fill:#000000;fill-opacity:1;fill-rule:nonzero;stroke:none"
       transform="matrix(0,-1.3333333,-1.3333333,0,32.280493,36.414653)" />
    <g
       id="g7"
       aria-label="y&#10;a"
       transform="matrix(1.3333333,0,0,1.3333333,46.028,176.20533)">
      <path
         id="path8"
         d="m 4.8393516,-3.7956016 c 0.046875,-0.140625 0.046875,-0.1523437 0.046875,-0.2226562 0,-0.1875 -0.140625,-0.2695313 -0.2929688,-0.2695313 -0.1054687,0 -0.2578125,0.058594 -0.3515625,0.1992188 -0.023437,0.058594 -0.09375,0.3632812 -0.140625,0.5390625 -0.070312,0.2578125 -0.140625,0.5273437 -0.1992187,0.796875 l -0.4453125,1.79296874 c -0.035156,0.15234375 -0.46875,0.85546875 -1.125,0.85546875 -0.5039063,0 -0.6210938,-0.4453125 -0.6210938,-0.80859375 0,-0.45703124 0.1757813,-1.07812504 0.515625,-1.95703124 0.1523438,-0.4101563 0.1992188,-0.515625 0.1992188,-0.7148438 0,-0.4453125 -0.328125,-0.8203125 -0.8203125,-0.8203125 -0.94921879,0 -1.31250004,1.453125 -1.31250004,1.5351563 0,0.1054687 0.09375,0.1054687 0.1171875,0.1054687 0.09375,0 0.10546875,-0.023437 0.15234375,-0.1875 0.26953125,-0.9375 0.66796879,-1.2304687 1.00781249,-1.2304687 0.082031,0 0.2578125,0 0.2578125,0.3164062 0,0.2460938 -0.1054687,0.515625 -0.1757812,0.703125 -0.3984375,1.0546875 -0.5742188,1.6171875 -0.5742188,2.0859375 0,0.89062504 0.6210938,1.18359379 1.21875,1.18359379 0.3867188,0 0.7265625,-0.1640625 0.9960938,-0.4453125 -0.1289063,0.515625 -0.2460938,1.0078125 -0.6445313,1.53515621 -0.2578125,0.3398438 -0.6328125,0.6328125 -1.0898437,0.6328125 -0.140625,0 -0.59765629,-0.035156 -0.76171879,-0.421875 0.1640625,0 0.29296879,0 0.43359379,-0.1171875 0.09375,-0.09375 0.1992187,-0.2226562 0.1992187,-0.41015621 0,-0.31640625 -0.2695312,-0.3515625 -0.375,-0.3515625 -0.22265624,0 -0.55078124,0.1640625 -0.55078124,0.64453121 0,0.5039063 0.43359375,0.8671875 1.05468754,0.8671875 1.0195312,0 2.0507812,-0.9023437 2.3320312,-2.02734371 z m 0,0"
         style="fill:#000000;fill-opacity:1;fill-rule:nonzero;stroke:none" />
      <path
         id="path9"
         d="m 7.8247031,-1.1647422 c -0.140625,-0.234375 -0.3867187,-0.4101562 -0.7148437,-0.4101562 -0.890625,0 -1.8046875,0.97265621 -1.8046875,1.98046871 0,0.67968749 0.4570312,1.16015629 1.0546875,1.16015629 0.375,0 0.7148437,-0.2109375 0.9960937,-0.4921875 0.1289063,0.421875 0.5273438,0.4921875 0.7148438,0.4921875 0.2460937,0 0.421875,-0.1523438 0.5507812,-0.375 0.1523438,-0.26953129 0.2460938,-0.66796879 0.2460938,-0.69140629 0,-0.09375 -0.09375,-0.09375 -0.1171875,-0.09375 -0.09375,0 -0.1054688,0.0351563 -0.1523438,0.22265625 -0.082031,0.328125 -0.2109375,0.73828124 -0.5039062,0.73828124 -0.1875,0 -0.234375,-0.1523437 -0.234375,-0.3398437 0,-0.11718754 0.058594,-0.36328129 0.1054687,-0.55078129 0.046875,-0.1875 0.1171875,-0.46875 0.1523438,-0.62109375 l 0.140625,-0.5390625 c 0.046875,-0.17578125 0.1289062,-0.50390626 0.1289062,-0.53906246 0,-0.1523438 -0.1289062,-0.2226563 -0.2460937,-0.2226563 -0.1171875,0 -0.2695313,0.082031 -0.3164063,0.28125 z M 7.3793906,0.62822656 c -0.046875,0.1875 -0.1992187,0.328125 -0.3515625,0.45703124 -0.070312,0.058594 -0.3398437,0.28125 -0.6445312,0.28125 -0.2578125,0 -0.515625,-0.1757812 -0.515625,-0.66796874 0,-0.375 0.2109375,-1.13671875 0.3632812,-1.41796875 0.328125,-0.56250001 0.6796875,-0.66796871 0.8789063,-0.66796871 0.4804687,0 0.6210937,0.52734371 0.6210937,0.60937496 0,0.0234375 -0.011719,0.0820313 -0.023437,0.09375 z m 0,0"
         style="fill:#000000;fill-opacity:1;fill-rule:nonzero;stroke:none" />
    </g>
    <g
       id="g9"
       aria-label="y&#10;b"
       transform="matrix(1.3333333,0,0,1.3333333,248.728,176.20533)">
      <path
         id="path10"
         d="m 4.8387656,-3.7956016 c 0.046875,-0.140625 0.046875,-0.1523437 0.046875,-0.2226562 0,-0.1875 -0.140625,-0.2695313 -0.2929687,-0.2695313 -0.1054688,0 -0.2578125,0.058594 -0.3515625,0.1992188 -0.023437,0.058594 -0.09375,0.3632812 -0.140625,0.5390625 -0.070312,0.2578125 -0.140625,0.5273437 -0.1992188,0.796875 l -0.4453125,1.79296874 c -0.035156,0.15234375 -0.46875,0.85546875 -1.125,0.85546875 -0.5039062,0 -0.6210937,-0.4453125 -0.6210937,-0.80859375 0,-0.45703124 0.1757812,-1.07812504 0.515625,-1.95703124 0.1523437,-0.4101563 0.1992187,-0.515625 0.1992187,-0.7148438 0,-0.4453125 -0.328125,-0.8203125 -0.8203125,-0.8203125 -0.94921872,0 -1.31249997,1.453125 -1.31249997,1.5351563 0,0.1054687 0.09375,0.1054687 0.1171875,0.1054687 0.09375,0 0.10546875,-0.023437 0.15234375,-0.1875 0.26953125,-0.9375 0.66796872,-1.2304687 1.00781252,-1.2304687 0.082031,0 0.2578125,0 0.2578125,0.3164062 0,0.2460938 -0.1054688,0.515625 -0.1757813,0.703125 -0.3984375,1.0546875 -0.5742187,1.6171875 -0.5742187,2.0859375 0,0.89062504 0.6210937,1.18359379 1.21875,1.18359379 0.3867187,0 0.7265625,-0.1640625 0.9960937,-0.4453125 -0.1289062,0.515625 -0.2460937,1.0078125 -0.6445312,1.53515621 -0.2578125,0.3398438 -0.6328125,0.6328125 -1.0898438,0.6328125 -0.140625,0 -0.59765622,-0.035156 -0.76171872,-0.421875 0.1640625,0 0.29296872,0 0.43359372,-0.1171875 0.09375,-0.09375 0.1992188,-0.2226562 0.1992188,-0.41015621 0,-0.31640625 -0.2695313,-0.3515625 -0.375,-0.3515625 -0.22265627,0 -0.55078127,0.1640625 -0.55078127,0.64453121 0,0.5039063 0.43359375,0.8671875 1.05468747,0.8671875 1.0195313,0 2.0507813,-0.9023437 2.3320313,-2.02734371 z m 0,0"
         style="fill:#000000;fill-opacity:1;fill-rule:nonzero;stroke:none" />
      <path
         id="path11"
         d="m 6.7254844,-3.1334922 c 0.011719,-0.011719 0.023437,-0.1054687 0.023437,-0.1171875 0,-0.035156 -0.023437,-0.09375 -0.1054688,-0.09375 -0.140625,0 -0.7148437,0.058594 -0.890625,0.070312 -0.058594,0.011719 -0.1523437,0.011719 -0.1523437,0.1640625 0,0.09375 0.09375,0.09375 0.1757812,0.09375 0.3398438,0 0.3398438,0.046875 0.3398438,0.1054688 0,0.046875 -0.070312,0.328125 -0.1171875,0.4921875 l -0.1523438,0.6328125 c -0.070312,0.2460937 -0.4570312,1.76953121 -0.46875,1.86328121 -0.035156,0.1640625 -0.035156,0.2578125 -0.035156,0.33984375 0,0.70312504 0.4453125,1.14843754 1.03125,1.14843754 0.8671875,0 1.7929687,-0.94921879 1.7929687,-1.98046879 0,-0.82031251 -0.5625,-1.16015621 -1.0429687,-1.16015621 -0.3632813,0 -0.6679688,0.1992187 -0.8789063,0.375 z m -0.3515625,4.5 c -0.3398438,0 -0.5273438,-0.2929687 -0.5273438,-0.70312499 0,-0.2578125 0.058594,-0.50390625 0.2578125,-1.2890625 0.035156,-0.12890625 0.035156,-0.140625 0.1640625,-0.29296875 0.2695313,-0.31640626 0.5859375,-0.46874996 0.8320313,-0.46874996 0.2695312,0 0.515625,0.2109375 0.515625,0.67968746 0,0.28125 -0.1523438,0.99609375 -0.3632813,1.40625 C 7.0770469,1.0383828 6.7372031,1.3665078 6.3739219,1.3665078 Z m 0,0"
         style="fill:#000000;fill-opacity:1;fill-rule:nonzero;stroke:none" />
    </g>
    <path
       id="path12"
       d="m 4.839875,-3.7954375 c 0.046875,-0.140625 0.046875,-0.1523438 0.046875,-0.2226563 0,-0.1875 -0.140625,-0.2695312 -0.2929687,-0.2695312 -0.1054688,0 -0.2578125,0.058594 -0.3515625,0.1992187 -0.023437,0.058594 -0.09375,0.3632813 -0.140625,0.5390625 C 4.0312813,-3.2915313 3.9609688,-3.022 3.902375,-2.7524688 L 3.4570625,-0.9595 c -0.035156,0.15234375 -0.46875,0.85546875 -1.125,0.85546875 -0.5039062,0 -0.6210937,-0.4453125 -0.6210937,-0.80859375 0,-0.4570313 0.1757812,-1.078125 0.515625,-1.9570313 0.1523437,-0.4101562 0.1992187,-0.515625 0.1992187,-0.7148437 0,-0.4453125 -0.328125,-0.8203125 -0.8203125,-0.8203125 -0.94921875,0 -1.3125,1.453125 -1.3125,1.5351562 0,0.1054688 0.09375,0.1054688 0.1171875,0.1054688 0.09375,0 0.10546875,-0.023437 0.15234375,-0.1875 0.26953125,-0.9375 0.66796875,-1.2304688 1.00781255,-1.2304688 0.082031,0 0.2578125,0 0.2578125,0.3164063 0,0.2460937 -0.1054688,0.515625 -0.1757813,0.703125 -0.3984375,1.0546875 -0.5742187,1.6171875 -0.5742187,2.0859375 0,0.890625 0.6210937,1.18359375 1.21875,1.18359375 0.3867187,0 0.7265625,-0.1640625 0.9960937,-0.4453125 C 3.1640938,0.17721875 3.0469063,0.66940625 2.6484688,1.19675 2.3906563,1.5365937 2.0156563,1.8295625 1.558625,1.8295625 c -0.140625,0 -0.59765625,-0.035156 -0.76171875,-0.421875 0.1640625,0 0.29296875,0 0.43359375,-0.1171875 0.09375,-0.09375 0.1992188,-0.2226563 0.1992188,-0.41015625 0,-0.31640625 -0.2695313,-0.3515625 -0.375,-0.3515625 -0.2226563,0 -0.5507813,0.1640625 -0.5507813,0.64453125 0,0.5039062 0.43359375,0.8671875 1.0546875,0.8671875 1.0195313,0 2.0507813,-0.9023438 2.3320313,-2.02734375 z m 0,0"
       style="fill:#000000;fill-opacity:1;fill-rule:nonzero;stroke:none"
       aria-label="y"
       transform="matrix(1.3333333,0,0,1.3333333,279.60933,164.52933)" />
    <g
       id="g12"
       aria-label="f&#10;Y&#10;(y)"
       transform="matrix(1.3333333,0,0,1.3333333,15.765333,25.728)">
      <path
         id="path13"
         d="m 3.6564688,-3.9854531 h 0.8554687 c 0.1992188,0 0.3046875,0 0.3046875,-0.1992188 0,-0.1054687 -0.1054687,-0.1054687 -0.2695312,-0.1054687 H 3.7150625 L 3.926,-5.4268594 c 0.035156,-0.2109375 0.1757813,-0.9140625 0.234375,-1.0429687 0.09375,-0.1875 0.2578125,-0.3398438 0.46875,-0.3398438 0.046875,0 0.3046875,0 0.4921875,0.1875 -0.4335937,0.035156 -0.5390625,0.3867188 -0.5390625,0.5390625 0,0.2226563 0.1757813,0.3398438 0.3632813,0.3398438 0.2695312,0 0.5507812,-0.2109375 0.5507812,-0.5976563 0,-0.4570312 -0.4570312,-0.6796875 -0.8671875,-0.6796875 -0.3398437,0 -0.9609375,0.1757813 -1.265625,1.1601563 -0.058594,0.2109375 -0.082031,0.3164062 -0.328125,1.5703125 H 2.3556875 c -0.1992187,0 -0.3046875,0 -0.3046875,0.1875 0,0.1171875 0.09375,0.1171875 0.28125,0.1171875 H 2.9885 l -0.75,3.93749998 C 2.0627188,0.91298438 1.8986563,1.8270469 1.3713125,1.8270469 c -0.035156,0 -0.28125,0 -0.46875,-0.1875 0.4570313,-0.023437 0.5390625,-0.3867188 0.5390625,-0.5390625 0,-0.22265627 -0.1757812,-0.33984377 -0.3632812,-0.33984377 -0.25781255,0 -0.5507813,0.2109375 -0.5507813,0.59765627 0,0.4453125 0.43359375,0.6796875 0.84375,0.6796875 0.5507813,0 0.9492188,-0.5859375 1.125,-0.9609375 0.328125,-0.63281252 0.5507813,-1.83984377 0.5625,-1.91015627 z m 0,0"
         style="fill:#000000;fill-opacity:1;fill-rule:nonzero;stroke:none" />
      <path
         id="path14"
         d="m 9.6008047,-2.4297891 c 0.140625,-0.140625 0.28125,-0.2695312 0.4335933,-0.375 0.28125,-0.1875 0.539063,-0.1992187 0.632813,-0.2109375 0.07031,-0.011719 0.164062,-0.011719 0.164062,-0.1523437 0,-0.046875 -0.04687,-0.09375 -0.105468,-0.09375 -0.175782,0 -0.386719,0.023437 -0.5625,0.023437 -0.2226566,0 -0.5156253,-0.023437 -0.7265628,-0.023437 -0.035156,0 -0.140625,0 -0.140625,0.1523437 0,0.082031 0.09375,0.09375 0.1289062,0.09375 0.1992188,0.011719 0.1992188,0.09375 0.1992188,0.1289063 0,0.070312 -0.035156,0.1171875 -0.09375,0.1875 -0.035156,0.058594 -0.070312,0.1054687 -0.1171875,0.1523437 L 7.6789297,-0.73057031 6.7531484,-2.7696328 c -0.046875,-0.09375 -0.046875,-0.1171875 -0.046875,-0.1171875 0,-0.1289063 0.328125,-0.1289063 0.375,-0.1289063 0.09375,0 0.1757813,0 0.1757813,-0.1523437 0,-0.011719 0,-0.09375 -0.1054688,-0.09375 -0.2109375,0 -0.7265625,0.023437 -0.9375,0.023437 -0.1757812,0 -0.6210937,-0.023437 -0.796875,-0.023437 -0.046875,0 -0.1289062,0.011719 -0.1289062,0.1523437 0,0.09375 0.082031,0.09375 0.1875,0.09375 0.3984375,0 0.421875,0.058594 0.4921875,0.2109375 l 1.0898437,2.39062504 -0.3164062,1.27734375 c -0.09375,0.35156251 -0.09375,0.37500001 -0.6445313,0.38671871 -0.1171875,0 -0.2109375,0 -0.2109375,0.140625 0,0.070312 0.046875,0.1054688 0.1171875,0.1054688 0.1289063,0 0.2929688,-0.023437 0.4335938,-0.023437 0.1289062,0 0.328125,0 0.4570312,0 0.140625,0 0.3046875,0 0.4453125,0 0.1523438,0 0.3164063,0.023437 0.46875,0.023437 0.035156,0 0.1523438,0 0.1523438,-0.1523438 0,-0.09375 -0.082031,-0.09375 -0.234375,-0.09375 -0.1171875,0 -0.140625,0 -0.2695313,-0.023437 -0.1289062,-0.011719 -0.1523437,-0.023437 -0.1523437,-0.09375 0,-0.046875 0.082031,-0.37499996 0.1289062,-0.56249996 0.058594,-0.22265625 0.2109375,-0.83203125 0.2226563,-0.85546875 0.023437,-0.10546875 0.023437,-0.1171875 0.09375,-0.1875 z m 0,0"
         style="fill:#000000;fill-opacity:1;fill-rule:nonzero;stroke:none" />
      <path
         id="path15"
         d="m 15.067602,2.3895469 c 0,-0.035156 0,-0.046875 -0.164063,-0.2226563 -1.242187,-1.25390622 -1.570312,-3.12890622 -1.570312,-4.6640625 0,-1.7226562 0.386718,-3.4570312 1.605468,-4.7109375 0.128907,-0.1171875 0.128907,-0.1289062 0.128907,-0.1640625 0,-0.070312 -0.03516,-0.1054687 -0.09375,-0.1054687 -0.105469,0 -0.996094,0.6796875 -1.582032,1.9453125 -0.515625,1.1015625 -0.632812,2.203125 -0.632812,3.0351562 0,0.7851563 0.117187,1.99218753 0.65625,3.11718753 0.597656,1.21874997 1.453125,1.87499997 1.558594,1.87499997 0.05859,0 0.09375,-0.035156 0.09375,-0.1054687 z m 0,0"
         style="fill:#000000;fill-opacity:1;fill-rule:nonzero;stroke:none" />
      <path
         id="path16"
         d="m 20.487523,-3.7979531 c 0.04687,-0.140625 0.04687,-0.1523438 0.04687,-0.2226563 0,-0.1875 -0.140625,-0.2695312 -0.292968,-0.2695312 -0.105469,0 -0.257813,0.058594 -0.351563,0.1992187 -0.02344,0.058594 -0.09375,0.3632813 -0.140625,0.5390625 -0.07031,0.2578125 -0.140625,0.5273438 -0.199219,0.796875 l -0.445312,1.79296878 c -0.03516,0.15234375 -0.46875,0.85546875 -1.125,0.85546875 -0.503906,0 -0.621094,-0.4453125 -0.621094,-0.80859375 0,-0.45703128 0.175781,-1.07812498 0.515625,-1.95703128 0.152344,-0.4101562 0.199219,-0.515625 0.199219,-0.7148437 0,-0.4453125 -0.328125,-0.8203125 -0.820313,-0.8203125 -0.949218,0 -1.3125,1.453125 -1.3125,1.5351562 0,0.1054688 0.09375,0.1054688 0.117188,0.1054688 0.09375,0 0.105469,-0.023437 0.152344,-0.1875 0.269531,-0.9375 0.667968,-1.2304688 1.007812,-1.2304688 0.08203,0 0.257813,0 0.257813,0.3164063 0,0.2460937 -0.105469,0.515625 -0.175782,0.703125 -0.398437,1.0546875 -0.574218,1.6171875 -0.574218,2.0859375 0,0.89062498 0.621093,1.18359373 1.21875,1.18359373 0.386718,0 0.726562,-0.1640625 0.996093,-0.4453125 -0.128906,0.515625 -0.246093,1.0078125 -0.644531,1.53515627 -0.257812,0.3398437 -0.632812,0.6328125 -1.089844,0.6328125 -0.140625,0 -0.597656,-0.035156 -0.761718,-0.421875 0.164062,0 0.292968,0 0.433593,-0.1171875 0.09375,-0.09375 0.199219,-0.2226563 0.199219,-0.41015627 0,-0.31640625 -0.269531,-0.3515625 -0.375,-0.3515625 -0.222656,0 -0.550781,0.1640625 -0.550781,0.64453127 0,0.5039062 0.433594,0.8671875 1.054687,0.8671875 1.019532,0 2.050782,-0.9023438 2.332032,-2.02734377 z m 0,0"
         style="fill:#000000;fill-opacity:1;fill-rule:nonzero;stroke:none" />
      <path
         id="path17"
         d="m 23.774633,-2.4971719 c 0,-0.7734375 -0.117188,-1.9804687 -0.65625,-3.1054687 -0.597656,-1.21875 -1.464844,-1.875 -1.558594,-1.875 -0.05859,0 -0.105469,0.046875 -0.105469,0.1054687 0,0.035156 0,0.046875 0.199219,0.234375 0.972656,0.984375 1.535156,2.5664063 1.535156,4.640625 0,1.71093753 -0.363281,3.45703128 -1.59375,4.7226563 -0.140625,0.1171875 -0.140625,0.1289062 -0.140625,0.1640625 0,0.058594 0.04687,0.1054687 0.105469,0.1054687 0.09375,0 0.996094,-0.6796875 1.582031,-1.94531247 0.503907,-1.1015625 0.632813,-2.20312503 0.632813,-3.04687503 z m 0,0"
         style="fill:#000000;fill-opacity:1;fill-rule:nonzero;stroke:none" />
    </g>
  </g>
</svg>
