<?xml version="1.0" standalone="no"?>
<!DOCTYPE svg PUBLIC "-//W3C//DTD SVG 20010904//EN"
 "http://www.w3.org/TR/2001/REC-SVG-20010904/DTD/svg10.dtd">
<svg version="1.0" xmlns="http://www.w3.org/2000/svg"
 width="1283.000000pt" height="492.000000pt" viewBox="0 0 1283.000000 492.000000"
 preserveAspectRatio="xMidYMid meet">

<g transform="translate(0.000000,492.000000) scale(0.100000,-0.100000)"
fill="#000000" stroke="none">
<path d="M1322 4243 c-32 -46 -45 -101 -40 -172 5 -63 34 -141 59 -156 20 -13
18 1 -6 50 -36 69 -35 181 0 251 29 56 28 54 16 54 -5 0 -18 -12 -29 -27z"/>
<path d="M1633 4228 c17 -33 23 -64 25 -128 3 -75 0 -91 -22 -135 -29 -57 -25
-73 9 -31 60 75 61 225 3 309 -30 42 -40 32 -15 -15z"/>
<path d="M1134 4234 c-17 -4 -23 -20 -38 -97 -10 -51 -21 -102 -23 -114 -4
-16 -1 -23 11 -23 9 0 18 11 21 25 3 14 7 36 10 50 5 21 11 25 41 25 40 0 94
44 94 77 0 44 -54 70 -116 57z m71 -59 c0 -32 -5 -42 -26 -54 -14 -8 -33 -12
-42 -8 -13 5 -14 12 -6 44 17 63 18 64 46 61 25 -3 28 -7 28 -43z"/>
<path d="M1430 4156 c0 -3 10 -21 21 -41 l22 -36 -39 -40 c-24 -25 -33 -39
-23 -39 9 0 26 11 39 25 13 14 26 25 30 25 4 0 12 -11 18 -25 7 -15 20 -25 32
-25 l21 0 -22 40 -23 40 39 40 c46 47 27 55 -21 9 l-31 -30 -13 30 c-8 19 -20
31 -31 31 -11 0 -19 -2 -19 -4z"/>
<path d="M786 3851 c-25 -28 -35 -84 -24 -133 12 -54 24 -68 58 -68 46 0 65
32 65 110 0 53 -4 73 -19 89 -24 26 -58 27 -80 2z m68 -24 c9 -36 7 -127 -4
-148 -6 -10 -17 -19 -25 -19 -23 0 -35 35 -35 104 0 45 5 69 15 80 19 19 41
11 49 -17z"/>
<path d="M1067 3795 c-27 -41 -46 -79 -42 -85 3 -5 24 -10 46 -10 35 0 39 -3
39 -25 0 -16 6 -25 15 -25 9 0 15 9 15 21 0 12 8 28 18 35 16 13 16 13 0 14
-16 0 -18 10 -18 75 0 53 -4 75 -12 75 -7 0 -35 -34 -61 -75z m40 -72 c-3 -2
-19 -3 -36 -1 l-31 3 33 50 32 49 3 -48 c2 -26 1 -50 -1 -53z"/>
<path d="M1358 3747 c-44 -85 -43 -80 -14 -62 l26 17 0 -1496 0 -1496 -490 0
c-351 0 -490 -3 -490 -11 0 -8 137 -10 488 -8 l487 4 5 -135 6 -135 4 134 5
134 5322 0 c2928 0 5326 -3 5329 -6 4 -4 1 -13 -6 -22 -7 -8 -10 -15 -6 -15
11 0 96 44 96 50 0 6 -85 50 -97 50 -3 0 2 -9 12 -20 18 -20 17 -20 -5318 -20
l-5337 0 0 1496 0 1496 25 -16 26 -17 -27 53 c-14 29 -27 54 -28 55 -1 1 -9
-12 -18 -30z"/>
<path d="M945 3681 c-8 -15 3 -31 21 -31 9 0 14 7 12 17 -4 20 -24 28 -33 14z"/>
<path d="M962 3608 c-10 -30 -10 -31 3 -14 13 17 21 46 12 46 -1 0 -8 -15 -15
-32z"/>
<path d="M786 3091 c-25 -28 -35 -84 -24 -133 12 -54 24 -68 58 -68 46 0 65
32 65 110 0 53 -4 73 -19 89 -24 26 -58 27 -80 2z m54 -1 c19 -12 27 -139 11
-169 -15 -26 -37 -27 -51 -2 -22 41 -8 181 18 181 4 0 14 -4 22 -10z"/>
<path d="M1057 3099 c-9 -6 -15 -15 -11 -20 4 -6 13 -4 24 6 37 33 75 -20 39
-56 -10 -10 -25 -19 -31 -19 -7 -1 2 -7 20 -15 29 -13 33 -19 30 -47 -2 -26
-9 -35 -31 -43 -24 -8 -31 -6 -42 8 -9 13 -15 15 -20 6 -18 -29 65 -40 103
-13 28 19 30 69 3 86 -19 12 -19 12 0 36 24 31 24 44 1 65 -21 19 -58 22 -85
6z"/>
<path d="M945 2921 c-8 -15 3 -31 21 -31 9 0 14 7 12 17 -4 20 -24 28 -33 14z"/>
<path d="M962 2848 c-10 -30 -10 -31 3 -14 13 17 21 46 12 46 -1 0 -8 -15 -15
-32z"/>
<path d="M786 2341 c-25 -28 -35 -84 -24 -133 12 -54 24 -68 58 -68 46 0 65
32 65 110 0 53 -4 73 -19 89 -24 26 -58 27 -80 2z m68 -24 c9 -36 7 -127 -4
-148 -6 -10 -17 -19 -25 -19 -23 0 -35 35 -35 104 0 45 5 69 15 80 19 19 41
11 49 -17z"/>
<path d="M1058 2349 c-10 -5 -18 -17 -18 -26 0 -14 2 -14 19 1 36 33 80 3 68
-46 -4 -14 -27 -48 -52 -76 -25 -27 -45 -53 -45 -56 0 -3 29 -6 65 -6 49 0 65
3 65 14 0 10 -11 12 -45 8 -53 -6 -56 4 -14 44 35 33 59 74 59 102 0 41 -60
66 -102 41z"/>
<path d="M945 2171 c-8 -15 3 -31 21 -31 9 0 14 7 12 17 -4 20 -24 28 -33 14z"/>
<path d="M962 2098 c-10 -30 -10 -31 3 -14 13 17 21 46 12 46 -1 0 -8 -15 -15
-32z"/>
<path d="M786 1581 c-25 -28 -35 -84 -24 -133 12 -54 24 -68 58 -68 46 0 65
32 65 110 0 53 -4 73 -19 89 -24 26 -58 27 -80 2z m54 -1 c19 -12 27 -139 11
-169 -15 -26 -37 -27 -51 -2 -22 41 -8 181 18 181 4 0 14 -4 22 -10z"/>
<path d="M1083 1584 c-38 -16 -43 -27 -10 -22 21 3 22 0 25 -89 2 -74 6 -93
17 -93 12 0 15 20 15 110 0 61 -3 110 -7 109 -5 0 -23 -7 -40 -15z"/>
<path d="M945 1411 c-8 -15 3 -31 21 -31 9 0 14 7 12 17 -4 20 -24 28 -33 14z"/>
<path d="M962 1338 c-10 -30 -10 -31 3 -14 13 17 21 46 12 46 -1 0 -8 -15 -15
-32z"/>
<path d="M12290 786 c0 -3 10 -21 21 -41 l22 -36 -39 -40 c-24 -25 -33 -39
-23 -39 9 0 26 11 39 25 13 14 26 25 30 25 4 0 12 -11 18 -25 7 -15 20 -25 32
-25 l21 0 -22 40 -23 40 39 40 c46 47 27 55 -21 9 l-31 -30 -13 30 c-8 19 -20
31 -31 31 -11 0 -19 -2 -19 -4z"/>
<path d="M523 484 c-38 -16 -43 -27 -10 -22 21 3 22 0 25 -89 2 -74 6 -93 17
-93 12 0 15 20 15 110 0 61 -3 110 -7 109 -5 0 -23 -7 -40 -15z"/>
<path d="M2343 484 c-38 -16 -43 -27 -10 -22 21 3 22 0 25 -89 2 -74 6 -93 17
-93 12 0 15 20 15 110 0 61 -3 110 -7 109 -5 0 -23 -7 -40 -15z"/>
<path d="M3288 489 c-10 -5 -18 -17 -18 -26 0 -14 2 -14 19 1 36 33 80 3 68
-46 -4 -14 -27 -48 -52 -76 -25 -27 -45 -53 -45 -56 0 -3 29 -6 65 -6 49 0 65
3 65 14 0 10 -11 12 -46 8 -43 -4 -46 -4 -36 14 6 11 20 28 32 39 27 24 50 67
50 93 0 41 -60 66 -102 41z"/>
<path d="M4267 489 c-9 -6 -15 -15 -11 -20 4 -6 13 -4 24 6 24 22 50 9 50 -26
0 -22 -7 -32 -25 -41 l-26 -12 31 -13 c27 -11 31 -17 28 -45 -2 -26 -9 -35
-31 -43 -24 -8 -31 -6 -42 8 -13 19 -32 6 -20 -13 10 -15 78 -12 103 6 28 19
30 69 3 86 -19 12 -19 12 0 36 24 31 24 44 1 65 -21 19 -58 22 -85 6z"/>
<path d="M5257 425 c-27 -41 -46 -79 -42 -85 3 -5 24 -10 46 -10 35 0 39 -3
39 -25 0 -16 6 -25 15 -25 9 0 15 9 15 21 0 12 8 28 18 35 16 13 16 13 0 14
-16 0 -18 10 -18 75 0 53 -4 75 -12 75 -7 0 -35 -34 -61 -75z m40 -72 c-3 -2
-19 -3 -36 -1 l-31 3 33 50 32 49 3 -48 c2 -26 1 -50 -1 -53z"/>
<path d="M6216 478 c-3 -13 -6 -36 -6 -53 0 -28 3 -30 37 -30 31 0 37 -4 44
-27 14 -52 -31 -97 -64 -63 -19 19 -27 19 -27 1 0 -17 22 -26 60 -26 32 0 70
39 70 72 0 27 -45 68 -75 68 -21 0 -25 5 -25 30 0 27 3 30 24 24 28 -7 66 3
66 17 0 5 -22 9 -49 9 -42 0 -49 -3 -55 -22z"/>
<path d="M7244 490 c-11 -4 -33 -22 -47 -40 -32 -37 -37 -111 -11 -148 18 -26
74 -30 98 -7 45 45 16 111 -48 109 -20 -1 -36 1 -36 3 0 20 37 66 63 77 34 15
17 21 -19 6z m24 -153 c-2 -32 -8 -43 -22 -46 -26 -4 -46 25 -46 65 0 35 21
48 53 32 14 -7 17 -19 15 -51z"/>
<path d="M8150 485 c0 -11 12 -15 50 -15 28 0 50 -2 50 -5 0 -3 -16 -44 -35
-92 -40 -100 -39 -93 -22 -93 6 0 27 44 46 98 19 53 36 103 38 110 4 9 -12 12
-61 12 -52 0 -66 -3 -66 -15z"/>
<path d="M9151 481 c-21 -21 -19 -52 5 -72 13 -10 12 -15 -4 -33 -30 -34 -34
-54 -12 -76 25 -25 81 -26 102 -2 28 33 29 52 2 79 -23 23 -24 27 -10 42 19
21 21 52 4 69 -18 18 -66 14 -87 -7z m69 -6 c10 -12 9 -20 -5 -41 -16 -25 -17
-25 -36 -8 -22 20 -24 35 -7 52 16 16 33 15 48 -3z m5 -146 c0 -30 -4 -34 -27
-37 -40 -5 -58 36 -34 73 16 24 19 25 39 12 15 -10 22 -25 22 -48z"/>
<path d="M10120 480 c-24 -24 -26 -58 -4 -89 14 -20 23 -22 55 -18 45 6 46 3
19 -40 -12 -20 -32 -36 -52 -42 -30 -8 -31 -9 -7 -10 53 -2 109 67 109 132 0
73 -73 114 -120 67z m74 -12 c39 -56 -4 -119 -46 -68 -21 25 -22 43 -8 71 14
25 35 24 54 -3z"/>
<path d="M11053 484 c-38 -16 -43 -27 -10 -22 21 3 22 0 25 -89 2 -74 6 -93
17 -93 12 0 15 20 15 110 0 61 -3 110 -7 109 -5 0 -23 -7 -40 -15z"/>
<path d="M11196 481 c-25 -28 -35 -84 -24 -133 12 -54 24 -68 58 -68 46 0 65
32 65 110 0 53 -4 73 -19 89 -24 26 -58 27 -80 2z m68 -24 c9 -36 7 -127 -4
-148 -6 -10 -17 -19 -25 -19 -23 0 -35 35 -35 104 0 45 5 69 15 80 19 19 41
11 49 -17z"/>
<path d="M12033 484 c-38 -16 -43 -27 -10 -22 21 3 22 0 25 -89 2 -74 6 -93
17 -93 12 0 15 20 15 110 0 61 -3 110 -7 109 -5 0 -23 -7 -40 -15z"/>
<path d="M12193 484 c-38 -16 -43 -27 -10 -22 21 3 22 0 25 -89 2 -74 6 -93
17 -93 12 0 15 20 15 110 0 61 -3 110 -7 109 -5 0 -23 -7 -40 -15z"/>
<path d="M205 370 c3 -6 52 -10 111 -10 63 0 104 4 104 10 0 6 -44 10 -111 10
-71 0 -108 -4 -104 -10z"/>
</g>
</svg>
