<?xml version="1.0" standalone="no"?>
<!DOCTYPE svg PUBLIC "-//W3C//DTD SVG 20010904//EN"
 "http://www.w3.org/TR/2001/REC-SVG-20010904/DTD/svg10.dtd">
<svg version="1.0" xmlns="http://www.w3.org/2000/svg"
 width="1262.000000pt" height="477.000000pt" viewBox="0 0 1262.000000 477.000000"
 preserveAspectRatio="xMidYMid meet">

<g transform="translate(0.000000,477.000000) scale(0.100000,-0.100000)"
fill="#FF0000" stroke="none">
<path d="M1282 4133 c-32 -46 -45 -101 -40 -172 5 -63 34 -141 59 -156 20 -13
18 1 -6 50 -36 69 -35 181 0 251 29 56 28 54 16 54 -5 0 -18 -12 -29 -27z"/>
<path d="M1593 4118 c17 -33 23 -64 25 -128 3 -75 0 -91 -22 -135 -29 -57 -25
-73 9 -31 60 75 59 250 -2 318 -28 31 -33 19 -10 -24z"/>
<path d="M1094 4124 c-17 -4 -23 -20 -38 -97 -10 -51 -21 -102 -23 -114 -4
-16 -1 -23 11 -23 9 0 18 11 21 25 3 14 7 36 10 50 5 21 11 25 41 25 40 0 94
44 94 77 0 44 -54 70 -116 57z m74 -56 c2 -28 -2 -40 -20 -52 -12 -9 -31 -16
-42 -16 -17 0 -18 5 -12 46 8 59 12 66 44 62 23 -3 27 -8 30 -40z"/>
<path d="M1390 4046 c0 -3 10 -21 21 -41 l22 -36 -39 -40 c-24 -25 -33 -39
-23 -39 9 0 26 11 39 25 13 14 26 25 30 25 4 0 12 -11 18 -25 7 -15 20 -25 32
-25 l21 0 -22 40 -23 40 39 40 c46 47 27 55 -21 9 l-31 -30 -13 30 c-8 19 -20
31 -31 31 -11 0 -19 -2 -19 -4z"/>
<path d="M746 3741 c-25 -28 -35 -84 -24 -133 12 -54 24 -68 58 -68 46 0 65
32 65 110 0 53 -4 73 -19 89 -24 26 -58 27 -80 2z m54 -1 c19 -12 27 -139 11
-169 -15 -26 -37 -27 -51 -2 -22 41 -8 181 18 181 4 0 14 -4 22 -10z"/>
<path d="M1027 3685 c-27 -41 -46 -79 -42 -85 3 -5 24 -10 46 -10 35 0 39 -3
39 -25 0 -16 6 -25 15 -25 9 0 15 9 15 21 0 12 8 28 18 35 16 13 16 13 0 14
-16 0 -18 10 -18 75 0 53 -4 75 -12 75 -7 0 -35 -34 -61 -75z m43 -25 l0 -50
-35 0 -35 0 31 50 c17 28 33 50 35 50 2 0 4 -22 4 -50z"/>
<path d="M1318 3637 c-44 -85 -43 -80 -14 -62 l26 17 -2 -1493 -3 -1494 -490
-5 c-269 -3 -484 -9 -478 -13 7 -4 223 -7 480 -6 258 1 474 1 481 0 9 -1 13
-36 14 -133 l2 -133 6 134 5 134 5332 1 5332 1 -15 -22 c-8 -13 -12 -23 -9
-23 10 0 95 44 95 50 0 6 -85 50 -97 50 -4 0 -2 -5 5 -12 7 -7 12 -16 12 -20
0 -4 -2398 -8 -5330 -8 l-5330 0 0 1496 0 1496 25 -16 26 -17 -27 53 c-14 29
-27 54 -28 55 -1 1 -9 -12 -18 -30z"/>
<path d="M905 3571 c-8 -15 3 -31 21 -31 9 0 14 7 12 17 -4 20 -24 28 -33 14z"/>
<path d="M922 3498 c-10 -30 -10 -31 3 -14 13 17 21 46 12 46 -1 0 -8 -15 -15
-32z"/>
<path d="M746 2981 c-25 -28 -35 -84 -24 -133 12 -54 24 -68 58 -68 46 0 65
32 65 110 0 53 -4 73 -19 89 -24 26 -58 27 -80 2z m68 -24 c9 -36 7 -127 -4
-148 -6 -10 -17 -19 -25 -19 -23 0 -35 35 -35 104 0 45 5 69 15 80 19 19 41
11 49 -17z"/>
<path d="M1017 2989 c-9 -6 -15 -15 -11 -20 4 -6 13 -4 24 6 37 33 75 -20 39
-56 -10 -10 -25 -19 -31 -19 -7 -1 2 -7 20 -15 29 -13 33 -19 30 -47 -2 -26
-9 -35 -31 -43 -24 -8 -31 -6 -42 8 -9 13 -15 15 -20 6 -18 -29 65 -40 103
-13 28 19 30 69 3 86 -19 12 -19 12 0 36 24 31 24 44 1 65 -21 19 -58 22 -85
6z"/>
<path d="M905 2811 c-8 -15 3 -31 21 -31 9 0 14 7 12 17 -4 20 -24 28 -33 14z"/>
<path d="M922 2738 c-10 -30 -10 -31 3 -14 13 17 21 46 12 46 -1 0 -8 -15 -15
-32z"/>
<path d="M746 2231 c-25 -28 -35 -84 -24 -133 12 -54 24 -68 58 -68 46 0 65
32 65 110 0 53 -4 73 -19 89 -24 26 -58 27 -80 2z m54 -1 c19 -12 27 -139 11
-169 -15 -26 -37 -27 -51 -2 -22 41 -8 181 18 181 4 0 14 -4 22 -10z"/>
<path d="M1012 2238 c-7 -7 -12 -19 -12 -27 0 -11 4 -11 19 3 36 33 80 3 68
-46 -4 -14 -27 -48 -52 -76 -25 -27 -45 -53 -45 -56 0 -3 29 -6 65 -6 49 0 65
3 65 14 0 10 -11 12 -45 8 -53 -6 -56 4 -14 44 58 55 74 108 41 137 -22 20
-73 22 -90 5z"/>
<path d="M905 2061 c-8 -15 3 -31 21 -31 9 0 14 7 12 17 -4 20 -24 28 -33 14z"/>
<path d="M922 1988 c-10 -30 -10 -31 3 -14 13 17 21 46 12 46 -1 0 -8 -15 -15
-32z"/>
<path d="M746 1471 c-25 -28 -35 -84 -24 -133 12 -54 24 -68 58 -68 46 0 65
32 65 110 0 53 -4 73 -19 89 -24 26 -58 27 -80 2z m68 -24 c9 -36 7 -127 -4
-148 -6 -10 -17 -19 -25 -19 -23 0 -35 35 -35 104 0 45 5 69 15 80 19 19 41
11 49 -17z"/>
<path d="M1043 1474 c-38 -16 -43 -27 -10 -22 21 3 22 0 25 -89 2 -74 6 -93
17 -93 12 0 15 20 15 110 0 61 -3 110 -7 109 -5 0 -23 -7 -40 -15z"/>
<path d="M904 1299 c-4 -7 1 -18 12 -26 16 -12 17 -17 6 -46 -10 -29 -10 -30
4 -12 8 11 14 35 12 54 -3 36 -21 51 -34 30z"/>
<path d="M12250 676 c0 -3 10 -21 21 -41 l22 -36 -39 -40 c-24 -25 -33 -39
-23 -39 9 0 26 11 39 25 13 14 26 25 30 25 4 0 12 -11 18 -25 7 -15 20 -25 32
-25 l21 0 -22 40 -23 40 39 40 c46 47 27 55 -21 9 l-31 -30 -13 30 c-8 19 -20
31 -31 31 -11 0 -19 -2 -19 -4z"/>
<path d="M483 374 c-38 -16 -43 -27 -10 -22 21 3 22 0 25 -89 2 -74 6 -93 17
-93 12 0 15 20 15 110 0 61 -3 110 -7 109 -5 0 -23 -7 -40 -15z"/>
<path d="M2303 374 c-38 -16 -43 -27 -10 -22 21 3 22 0 25 -89 2 -74 6 -93 17
-93 12 0 15 20 15 110 0 61 -3 110 -7 109 -5 0 -23 -7 -40 -15z"/>
<path d="M3248 379 c-10 -5 -18 -17 -18 -26 0 -14 2 -14 19 1 36 33 80 3 68
-46 -4 -14 -27 -48 -52 -76 -25 -27 -45 -53 -45 -56 0 -3 29 -6 65 -6 51 0 65
3 65 15 0 12 -9 13 -46 8 -43 -6 -46 -5 -36 13 6 11 20 28 32 39 27 24 50 67
50 93 0 41 -60 66 -102 41z"/>
<path d="M4221 377 c-16 -20 0 -30 19 -12 24 22 50 9 50 -26 0 -21 -7 -32 -27
-43 -25 -14 -26 -15 -7 -16 52 -1 60 -77 11 -95 -24 -8 -31 -6 -42 8 -13 19
-32 6 -20 -13 10 -15 78 -12 103 6 28 19 30 69 3 86 -19 11 -19 12 2 39 19 27
19 29 3 53 -12 19 -25 26 -50 26 -18 0 -39 -6 -45 -13z"/>
<path d="M5217 315 c-27 -41 -46 -79 -42 -85 3 -5 24 -10 46 -10 35 0 39 -3
39 -25 0 -16 6 -25 15 -25 9 0 15 9 15 21 0 12 8 28 18 35 16 13 16 13 0 14
-16 0 -18 10 -18 75 0 53 -4 75 -12 75 -7 0 -35 -34 -61 -75z m40 -72 c-3 -2
-19 -3 -36 -1 l-31 3 33 50 32 49 3 -48 c2 -26 1 -50 -1 -53z"/>
<path d="M6176 374 c-3 -9 -6 -32 -6 -52 0 -36 1 -37 37 -37 31 0 37 -4 44
-27 14 -52 -31 -97 -64 -63 -19 19 -27 19 -27 1 0 -17 22 -26 60 -26 32 0 70
39 70 72 0 27 -45 68 -75 68 -21 0 -25 5 -25 28 0 27 2 29 41 28 25 -1 44 4
46 12 7 20 -93 16 -101 -4z"/>
<path d="M7169 351 c-35 -35 -39 -44 -39 -90 0 -38 5 -56 20 -71 57 -57 150
15 102 79 -15 20 -28 26 -56 25 -20 -1 -36 1 -36 3 0 20 37 66 63 77 29 13 30
14 8 15 -15 1 -38 -13 -62 -38z m59 -124 c-2 -32 -8 -43 -22 -46 -26 -4 -46
25 -46 65 0 35 21 48 53 32 14 -7 17 -19 15 -51z"/>
<path d="M8110 375 c0 -11 12 -15 50 -15 28 0 50 -2 50 -5 0 -3 -16 -44 -35
-92 -40 -100 -39 -93 -22 -93 6 0 27 44 46 98 19 53 36 103 38 110 4 9 -12 12
-61 12 -52 0 -66 -3 -66 -15z"/>
<path d="M9118 379 c-22 -12 -24 -62 -3 -79 13 -11 12 -16 -10 -41 -37 -45
-12 -89 50 -89 59 0 89 72 43 104 -20 15 -21 16 -5 34 20 22 22 53 5 70 -15
15 -57 15 -80 1z m66 -21 c8 -13 6 -22 -9 -37 -17 -20 -19 -20 -37 -5 -21 20
-23 35 -6 52 16 16 38 12 52 -10z m1 -139 c0 -30 -4 -34 -27 -37 -40 -5 -58
36 -34 73 16 24 19 25 39 12 15 -10 22 -25 22 -48z"/>
<path d="M10080 370 c-24 -24 -26 -58 -4 -89 14 -20 23 -22 55 -18 45 6 46 3
19 -40 -12 -20 -32 -36 -52 -42 -30 -8 -31 -9 -7 -10 53 -2 109 67 109 132 0
73 -73 114 -120 67z m74 -12 c38 -54 0 -113 -45 -72 -21 19 -24 45 -9 75 14
25 35 24 54 -3z"/>
<path d="M11013 374 c-38 -16 -43 -27 -10 -22 21 3 22 0 25 -89 2 -74 6 -93
17 -93 12 0 15 20 15 110 0 61 -3 110 -7 109 -5 0 -23 -7 -40 -15z"/>
<path d="M11860 374 c-38 -16 -43 -27 -10 -22 21 3 22 0 25 -89 2 -74 6 -93
17 -93 12 0 15 20 15 110 0 61 -3 110 -7 109 -5 0 -23 -7 -40 -15z"/>
</g>
</svg>
