<?xml version="1.0" standalone="no"?>
<!DOCTYPE svg PUBLIC "-//W3C//DTD SVG 20010904//EN"
 "http://www.w3.org/TR/2001/REC-SVG-20010904/DTD/svg10.dtd">
<svg version="1.0" xmlns="http://www.w3.org/2000/svg"
 width="345.000000pt" height="191.000000pt" viewBox="0 0 345.000000 191.000000"
 preserveAspectRatio="xMidYMid meet">

<g transform="translate(0.000000,191.000000) scale(0.100000,-0.100000)"
fill="#000000" stroke="none">
<path d="M1350 1870 c0 -5 5 -10 11 -10 5 0 7 5 4 10 -3 6 -8 10 -11 10 -2 0
-4 -4 -4 -10z"/>
<path d="M1460 1831 c0 -28 5 -51 10 -51 6 0 9 3 9 8 -1 4 -1 15 0 25 2 27 21
20 21 -8 0 -14 5 -25 10 -25 11 0 13 30 4 54 -3 9 -15 16 -26 16 -10 0 -17 4
-13 9 3 5 1 12 -5 16 -6 4 -10 -13 -10 -44z"/>
<path d="M1715 1870 c-3 -5 1 -10 10 -10 9 0 13 5 10 10 -3 6 -8 10 -10 10 -2
0 -7 -4 -10 -10z"/>
<path d="M1910 1870 c0 -5 5 -10 11 -10 5 0 7 5 4 10 -3 6 -8 10 -11 10 -2 0
-4 -4 -4 -10z"/>
<path d="M1950 1832 c0 -52 1 -53 28 -50 21 2 28 9 30 31 2 19 -2 29 -15 34
-10 4 -23 14 -30 22 -10 13 -12 7 -13 -37z m40 -22 c0 -11 -4 -20 -10 -20 -5
0 -10 9 -10 20 0 11 5 20 10 20 6 0 10 -9 10 -20z"/>
<path d="M2155 1870 c-3 -5 -1 -10 4 -10 6 0 11 5 11 10 0 6 -2 10 -4 10 -3 0
-8 -4 -11 -10z"/>
<path d="M1180 1825 c0 -25 5 -45 10 -45 6 0 9 3 9 8 -3 20 2 32 16 32 8 0 15
-9 15 -20 0 -11 5 -20 10 -20 6 0 10 20 10 45 0 25 -4 45 -10 45 -5 0 -10 -9
-10 -21 0 -14 -5 -19 -17 -17 -10 2 -17 11 -17 21 1 9 -2 17 -7 17 -5 0 -9
-20 -9 -45z"/>
<path d="M1624 1857 c-3 -9 -4 -28 -2 -44 2 -23 8 -29 35 -31 28 -3 33 0 39
24 4 15 2 34 -3 43 -13 21 -61 27 -69 8z m54 -36 c-4 -38 -38 -42 -38 -3 0 34
7 43 27 35 8 -3 13 -16 11 -32z"/>
<path d="M1537 1853 c-8 -14 5 -73 17 -73 15 0 14 72 -1 77 -6 2 -13 0 -16 -4z"/>
<path d="M1812 1823 c2 -29 8 -38 23 -40 11 -2 14 0 8 3 -7 3 -13 14 -13 24 0
10 6 21 13 23 9 4 8 8 -3 16 -25 18 -31 12 -28 -26z"/>
<path d="M2107 1853 c-8 -14 5 -73 17 -73 15 0 14 72 -1 77 -6 2 -13 0 -16 -4z"/>
<path d="M1282 1841 c-8 -4 -12 -19 -10 -32 2 -18 10 -25 31 -27 27 -3 28 -1
25 30 -3 34 -21 45 -46 29z m38 -41 c0 -5 -7 -10 -16 -10 -8 0 -12 5 -9 10 3
6 10 10 16 10 5 0 9 -4 9 -10z"/>
<path d="M1350 1815 c0 -19 5 -35 10 -35 6 0 10 16 10 35 0 19 -4 35 -10 35
-5 0 -10 -16 -10 -35z"/>
<path d="M1392 1838 c-7 -7 -12 -29 -12 -51 0 -36 2 -38 27 -35 36 4 45 38 11
39 l-23 0 23 9 c27 11 30 50 4 50 -10 0 -23 -5 -30 -12z m28 -18 c0 -5 -4 -10
-10 -10 -5 0 -10 5 -10 10 0 6 5 10 10 10 6 0 10 -4 10 -10z m0 -50 c0 -5 -4
-10 -10 -10 -5 0 -10 5 -10 10 0 6 5 10 10 10 6 0 10 -4 10 -10z"/>
<path d="M1721 1813 c0 -29 2 -33 8 -18 7 18 4 55 -5 55 -2 0 -4 -17 -3 -37z"/>
<path d="M1755 1839 c-4 -5 1 -20 12 -31 16 -20 17 -21 1 -15 -10 4 -18 2 -18
-3 0 -14 37 -12 46 2 4 6 -1 17 -11 25 -11 7 -13 13 -7 13 7 0 12 5 12 10 0
13 -27 13 -35 -1z"/>
<path d="M1860 1815 c0 -19 5 -35 10 -35 6 0 10 11 10 25 0 14 5 25 10 25 6 0
10 5 10 10 0 6 -9 10 -20 10 -16 0 -20 -7 -20 -35z"/>
<path d="M1910 1815 c0 -19 5 -35 10 -35 6 0 10 16 10 35 0 19 -4 35 -10 35
-5 0 -10 -16 -10 -35z"/>
<path d="M2030 1817 c0 -34 2 -37 30 -37 28 0 30 3 30 35 0 19 -4 35 -10 35
-5 0 -10 -14 -10 -31 0 -20 -4 -29 -12 -26 -7 2 -13 13 -13 25 0 11 -4 24 -8
28 -4 4 -7 -9 -7 -29z"/>
<path d="M2163 1815 c0 -22 2 -30 4 -17 2 12 2 30 0 40 -3 9 -5 -1 -4 -23z"/>
<path d="M2200 1835 c-19 -23 -8 -50 22 -53 19 -2 28 2 33 18 12 39 -29 66
-55 35z m38 -22 c-5 -25 -28 -28 -28 -4 0 12 6 21 16 21 9 0 14 -7 12 -17z"/>
<path d="M2270 1816 c0 -20 5 -36 10 -36 6 0 10 12 10 26 0 32 22 27 32 -7 5
-19 6 -17 5 11 -2 30 -6 35 -29 38 -26 3 -28 1 -28 -32z"/>
<path d="M1593 1494 c-91 -45 -173 -146 -466 -579 -96 -142 -145 -203 -232
-290 -201 -200 -396 -306 -642 -349 -24 -4 -33 -1 -36 12 -4 16 -5 16 -6 0 -1
-14 -13 -18 -64 -21 -44 -2 -32 -4 40 -5 95 -2 111 1 225 38 294 96 503 273
743 628 214 317 305 441 366 499 87 81 193 99 288 48 78 -43 130 -102 249
-284 59 -90 156 -238 216 -330 158 -242 316 -391 524 -495 174 -88 258 -107
458 -104 123 2 136 3 57 5 -98 4 -103 5 -104 26 -1 17 -2 18 -6 5 -4 -15 -16
-18 -60 -18 -211 0 -548 189 -724 406 -59 72 -193 270 -248 364 -34 58 -101
162 -163 252 -133 193 -278 261 -415 192z"/>
<path d="M74 1442 c-9 -13 -8 -21 4 -32 14 -13 15 -12 9 4 -6 14 -3 17 8 12
13 -4 14 -2 5 14 -13 24 -13 24 -26 2z"/>
<path d="M84 1075 c0 -176 2 -247 3 -157 2 90 2 234 0 320 -1 86 -3 13 -3
-163z"/>
<path d="M226 1134 c-9 -24 -7 -97 4 -114 7 -11 9 3 9 46 -1 34 2 67 5 73 4 6
3 11 -2 11 -6 0 -13 -7 -16 -16z"/>
<path d="M335 1085 c0 -36 3 -65 7 -65 12 0 20 66 13 99 -11 51 -20 35 -20
-34z"/>
<path d="M173 1125 c-11 -19 -4 -85 8 -85 5 0 9 14 9 30 0 17 5 30 11 30 8 0
8 4 0 14 -9 11 -9 15 1 19 8 4 7 6 -4 6 -9 1 -21 -6 -25 -14z"/>
<path d="M265 1080 c0 -32 2 -37 14 -27 11 9 15 9 18 0 3 -7 9 -13 14 -13 6 0
7 6 1 16 -5 9 -7 26 -4 37 4 14 1 18 -7 13 -6 -4 -17 -3 -24 2 -10 8 -12 1
-12 -28z"/>
<path d="M76 733 c-8 -19 8 -38 23 -29 17 11 13 26 -4 20 -11 -5 -13 -2 -9 10
3 9 4 16 1 16 -3 0 -8 -8 -11 -17z"/>
<path d="M710 285 c0 -14 5 -25 10 -25 6 0 10 11 10 25 0 14 -4 25 -10 25 -5
0 -10 -11 -10 -25z"/>
<path d="M1210 285 c0 -14 4 -25 9 -25 4 0 6 11 3 25 -2 14 -6 25 -8 25 -2 0
-4 -11 -4 -25z"/>
<path d="M1712 285 c0 -16 2 -22 5 -12 2 9 2 23 0 30 -3 6 -5 -1 -5 -18z"/>
<path d="M2202 285 c0 -16 2 -22 5 -12 2 9 2 23 0 30 -3 6 -5 -1 -5 -18z"/>
<path d="M2690 285 c0 -14 5 -25 10 -25 6 0 10 11 10 25 0 14 -4 25 -10 25 -5
0 -10 -11 -10 -25z"/>
<path d="M3154 229 c-4 -7 -3 -9 4 -5 5 3 13 0 15 -6 4 -9 6 -10 6 -1 1 17
-16 25 -25 12z"/>
<path d="M3196 233 c-11 -12 -6 -41 9 -47 8 -3 15 -2 15 3 0 4 10 7 22 7 14
-1 24 6 26 17 3 15 -1 18 -20 16 -12 -2 -28 0 -34 4 -6 3 -14 4 -18 0z m24
-23 c0 -5 -4 -10 -10 -10 -5 0 -10 5 -10 10 0 6 5 10 10 10 6 0 10 -4 10 -10z
m40 0 c0 -5 -4 -10 -10 -10 -5 0 -10 5 -10 10 0 6 5 10 10 10 6 0 10 -4 10
-10z"/>
<path d="M202 218 c-17 -17 -15 -38 3 -38 9 0 15 9 15 25 0 29 -1 30 -18 13z"/>
<path d="M158 195 c2 -14 9 -25 14 -25 6 0 7 7 4 16 -3 9 -6 20 -6 25 0 5 -4
9 -9 9 -4 0 -6 -11 -3 -25z"/>
<path d="M232 198 c3 -24 20 -28 27 -7 2 7 -1 9 -8 5 -6 -4 -11 -3 -11 3 0 5
6 12 13 14 7 3 4 6 -6 6 -14 1 -18 -5 -15 -21z"/>
<path d="M3155 190 c3 -5 8 -10 11 -10 2 0 4 5 4 10 0 6 -5 10 -11 10 -5 0 -7
-4 -4 -10z"/>
<path d="M1734 69 c-1 -28 2 -37 9 -30 7 7 15 7 24 -1 18 -15 29 -2 13 17 -10
11 -10 18 -1 29 7 9 8 17 2 20 -5 3 -11 0 -14 -6 -3 -10 -7 -10 -18 -1 -12 10
-15 5 -15 -28z"/>
</g>
</svg>
